<?xml version="1.0" encoding="utf-8"?>
<!-- Generator: Adobe Illustrator 16.2.1, SVG Export Plug-In . SVG Version: 6.00 Build 0)  -->
<!DOCTYPE svg PUBLIC "-//W3C//DTD SVG 1.1//EN" "http://www.w3.org/Graphics/SVG/1.1/DTD/svg11.dtd">
<svg version="1.1" id="レイヤー_1" xmlns="http://www.w3.org/2000/svg" xmlns:xlink="http://www.w3.org/1999/xlink" x="0px"
	 y="0px" width="219px" height="100.395px" viewBox="0 0 219 100.395" enable-background="new 0 0 219 100.395"
	 xml:space="preserve">
<g>
	<path fill="#FFFFFF" d="M55.764,9.389c-1.102,0-2.241-0.179-3.023-0.422v4.983c0,0.539,0.462,0.74,1.642,0.88
		c0.08,0,0.181,0.06,0.181,0.199s-0.061,0.181-0.2,0.181h-5.726c-0.118,0-0.2-0.041-0.2-0.181c0-0.141,0.061-0.178,0.181-0.199
		c1.12-0.119,1.441-0.341,1.441-0.88V1.621c0-0.58-0.36-0.799-1.441-0.921c-0.099,0-0.181-0.02-0.181-0.2
		c0-0.159,0.082-0.178,0.2-0.178c3.304,0,5.545-0.062,7.066-0.081c0.02,0,0.041,0,0.061,0c3.543,0,5.344,1.901,5.344,4.403
		C61.107,7.829,59.186,9.389,55.764,9.389z M55.003,0.965c-0.44,0-1.941,0.039-2.263,0.118v6.664c0,0.441,1.26,0.8,2.702,0.8
		c1.741,0,3.023-1.359,3.023-3.802C58.466,2.485,57.062,0.965,55.003,0.965z"/>
	<path fill="#FFFFFF" d="M67.755,15.475c-3.263,0-5.363-2.201-5.363-5.323c0-3.123,2.062-5.344,5.363-5.344
		c3.322,0,5.384,2.221,5.384,5.344C73.139,13.273,71.077,15.475,67.755,15.475z M67.436,5.727c-1.544,0-2.441,1.18-2.441,3.602
		c0,3.303,1.24,5.226,3.142,5.226c1.542,0,2.422-1.263,2.422-3.644C70.558,7.688,69.197,5.727,67.436,5.727z"/>
	<path fill="#FFFFFF" d="M89.77,5.388c-0.02,0-0.04,0.02-0.08,0.02c-0.7,0.14-1.181,0.6-1.461,1.382l-2.702,8.425
		c-0.08,0.181-0.261,0.262-0.501,0.262c-0.241,0-0.559-0.104-0.62-0.262L81.662,7.85l-2.381,7.363
		c-0.08,0.181-0.28,0.262-0.561,0.262c-0.241,0-0.559-0.081-0.602-0.262l-3.642-9.166c-0.16-0.359-0.44-0.521-1.103-0.601
		c-0.12-0.021-0.159-0.06-0.159-0.179c0-0.161,0.039-0.2,0.179-0.2h4.724c0.161,0,0.22,0.039,0.22,0.161
		c0,0.119-0.08,0.179-0.26,0.22c-0.761,0.102-1.08,0.399-0.961,0.701l2.281,6.005L81.1,6.812c0.02-0.08,0.041-0.159,0.041-0.241
		c0-0.562-0.582-1.062-1.26-1.143c-0.12-0.021-0.161-0.06-0.161-0.178c0-0.141,0.041-0.182,0.181-0.182h4.225
		c0.159,0,0.22,0.021,0.22,0.141s-0.041,0.182-0.241,0.221c-0.48,0.103-0.841,0.32-0.841,0.583c0,0.037,0,0.1,0.021,0.141
		l2.32,6.004l1.74-5.324c0.02-0.1,0.039-0.2,0.039-0.3c0-0.561-0.459-0.94-1.18-1.121c-0.181-0.039-0.2-0.08-0.2-0.18
		c0-0.119,0.02-0.161,0.22-0.161h3.422c0.201,0,0.221,0.041,0.221,0.161C89.869,5.306,89.85,5.347,89.77,5.388z"/>
	<path fill="#FFFFFF" d="M99.577,10.089l-7.064,0.582c0.341,2.62,1.861,3.722,3.504,3.722c1.181,0,2.301-0.54,3.021-1.581
		c0.06-0.08,0.14-0.117,0.2-0.117c0.06,0,0.12,0.02,0.181,0.08c0.08,0.06,0.119,0.117,0.119,0.2c0,0.036-0.02,0.08-0.039,0.139
		c-0.621,1.541-2.062,2.362-4.164,2.362c-3.362,0-5.344-2.185-5.344-5.345c0-3.282,2.202-5.322,5.144-5.322
		c2.722,0,4.684,2.042,4.684,4.702C99.816,9.931,99.777,10.071,99.577,10.089z M94.974,5.668c-1.522,0-2.521,1.121-2.521,3.722
		c0,0.181,0,0.279,0,0.461l4.922-0.521c0.14-0.02,0.14-0.141,0.14-0.24C97.514,7.508,96.556,5.668,94.974,5.668z"/>
	<path fill="#FFFFFF" d="M109.269,7.85c-1.779,0-0.259-1.821-2.12-1.821c-1.002,0-2.161,0.9-2.161,1.98v5.824
		c0,0.58,0.24,0.921,1.141,1.001c0.102,0,0.182,0.06,0.182,0.198c0,0.141-0.061,0.181-0.201,0.181h-4.742
		c-0.181,0-0.2-0.04-0.2-0.181c0-0.14,0.061-0.178,0.18-0.198c0.922-0.08,1.142-0.421,1.142-1.001V6.729
		c0-0.562-0.12-0.621-1.059-0.621c-0.162,0-0.241-0.12-0.241-0.22c0-0.102,0.06-0.221,0.181-0.241c1.141-0.2,2.42-0.539,3.422-0.821
		c0.02,0,0.039,0,0.061,0c0.119,0,0.141,0.081,0.141,0.241v1.262c0.878-0.96,2.001-1.521,3.202-1.521c1.199,0,2.04,0.86,2.04,1.819
		C110.229,7.467,109.909,7.85,109.269,7.85z"/>
	<path fill="#FFFFFF" d="M121.004,10.089l-7.063,0.582c0.34,2.62,1.86,3.722,3.504,3.722c1.181,0,2.302-0.54,3.021-1.581
		c0.062-0.08,0.142-0.117,0.199-0.117c0.062,0,0.121,0.02,0.181,0.08c0.081,0.06,0.118,0.117,0.118,0.2
		c0,0.036-0.02,0.08-0.037,0.139c-0.62,1.541-2.061,2.362-4.163,2.362c-3.361,0-5.345-2.185-5.345-5.345
		c0-3.282,2.201-5.322,5.144-5.322c2.724,0,4.687,2.042,4.687,4.702C121.247,9.931,121.206,10.071,121.004,10.089z M116.402,5.668
		c-1.521,0-2.521,1.121-2.521,3.722c0,0.181,0,0.279,0,0.461l4.924-0.521c0.141-0.02,0.141-0.141,0.141-0.24
		C118.945,7.508,117.982,5.668,116.402,5.668z"/>
	<path fill="#FFFFFF" d="M134.312,14.434c-1.101,0.38-2.162,0.779-3.283,1.041c-0.021,0-0.038,0-0.062,0
		c-0.098,0-0.116-0.081-0.139-0.242l-0.061-0.96c-0.539,0.739-1.66,1.202-3.021,1.202c-2.842,0-4.684-2.121-4.684-5.307
		c0-3.162,1.881-5.362,4.723-5.362c1.219,0,2.242,0.42,2.781,0.98V1.884c0-0.521-0.039-0.579-1.062-0.579
		c-0.159,0-0.237-0.104-0.237-0.223c0-0.102,0.06-0.199,0.178-0.222c1.16-0.197,2.399-0.538,3.443-0.86c0.021,0,0.038,0,0.059,0
		c0.08,0,0.142,0.08,0.142,0.242v13.229c0,0.419,0.037,0.58,0.42,0.58c0.16,0,0.4-0.039,0.738-0.102c0.021,0,0.041,0,0.061,0
		c0.121,0,0.162,0.102,0.162,0.2C134.472,14.253,134.415,14.392,134.312,14.434z M130.652,8.627c0-1.721-1.121-2.801-2.562-2.801
		c-1.48,0-2.482,1.078-2.482,3.542c0,3.543,1.381,4.982,3.102,4.982c0.799,0,1.603-0.5,1.943-1.24L130.652,8.627L130.652,8.627z"/>
	<path fill="#FFFFFF" d="M149.777,15.475c-1.161,0-2.323-0.461-3.104-1.282c-0.719,0.44-1.219,0.722-2.059,1.24
		c-0.021,0.02-0.061,0.041-0.082,0.041c-0.08,0-0.16-0.104-0.16-0.262V1.884c0-0.521-0.039-0.579-1.061-0.579
		c-0.162,0-0.242-0.104-0.242-0.223c0-0.102,0.061-0.199,0.18-0.222c1.041-0.178,2.422-0.538,3.443-0.86c0.02,0,0.039,0,0.059,0
		c0.08,0,0.142,0.08,0.142,0.242v5.644c0.598-0.66,1.762-1.079,3.002-1.079c2.922,0,4.522,2.2,4.522,5.344
		C154.418,13.273,152.659,15.475,149.777,15.475z M148.937,5.905c-0.94,0-1.765,0.48-2.123,1.462v4.022
		c0,1.9,1.302,3.042,2.664,3.042c1.562,0,2.42-1.062,2.42-3.464C151.898,7.728,150.738,5.905,148.937,5.905z"/>
	<path fill="#FFFFFF" d="M166.386,5.446c-0.74,0.161-1.242,0.582-1.623,1.58l-4.185,10.207c-0.619,1.421-1.32,1.98-2.502,1.98
		c-1.377,0-2.281-0.817-2.281-1.739c0-0.681,0.304-1.121,0.904-1.121c1.74,0,0.598,1.86,1.82,1.86c0.42,0,0.859-0.421,1.299-1.461
		l0.699-1.662l-4.359-9.046c-0.201-0.421-0.521-0.521-1.182-0.6c-0.119,0-0.162-0.06-0.162-0.18c0-0.141,0.041-0.2,0.182-0.2h4.883
		c0.162,0,0.222,0.041,0.222,0.161c0,0.119-0.082,0.159-0.261,0.198c-0.641,0.12-0.86,0.28-0.86,0.48c0,0.08,0.021,0.16,0.062,0.241
		l2.701,5.903l1.981-4.943c0.101-0.239,0.142-0.44,0.142-0.6c0-0.601-0.48-0.899-1.222-1.062c-0.142-0.021-0.199-0.118-0.199-0.22
		c0-0.12,0.06-0.161,0.22-0.161h3.682c0.201,0,0.244,0.039,0.244,0.161C166.586,5.327,166.566,5.407,166.386,5.446z"/>
</g>
<g>
	<g>
		<path fill="#FFFFFF" d="M76.698,73.039c2.046-5.68,3.764-9.617,3.677-10.303c-0.001-0.808-0.34-1.503-0.885-1.953
			c0.055-0.045,0.107-0.094,0.155-0.146c1.113-1.2,0.759-3.12,0.216-4.603c0.155-0.652,0.117-1.156,0.078-1.687
			c-0.023-0.302-0.048-0.644-0.048-1.11c0-0.117-0.006-0.231-0.018-0.346c-0.005-0.121-0.025-0.245-0.06-0.362
			c-0.138-0.608-0.507-1.351-1.45-1.845c0.084-0.238,0.154-0.463,0.207-0.673c0.216-0.509,0.338-0.869,0.403-1.192
			c0.231-1.136-0.002-2.19-0.642-2.951c-0.121-0.354-0.357-0.804-0.815-1.231c-0.287-0.637-0.515-1.163-0.664-1.531
			c-0.239-0.597-0.917-0.888-1.515-0.648c-0.597,0.239-0.887,0.917-0.648,1.514c0.181,0.451,0.454,1.078,0.811,1.862
			c0.077,0.17,0.195,0.318,0.341,0.434c0.254,0.199,0.292,0.369,0.294,0.388c0.045,0.25,0.169,0.48,0.356,0.652
			c0.22,0.203,0.291,0.585,0.197,1.045c-0.034,0.171-0.13,0.434-0.299,0.827c-0.027,0.064-0.05,0.131-0.065,0.199
			c-0.06,0.261-0.168,0.578-0.32,0.943c-0.103,0.245-0.118,0.519-0.044,0.772l0.211,0.734c0.11,0.381,0.408,0.681,0.79,0.792
			c0.524,0.155,0.558,0.323,0.58,0.435c0.002,0.01,0.005,0.018,0.006,0.027s0.002,0.02,0.003,0.029
			c0.005,0.043,0.008,0.081,0.008,0.123c0,0.554,0.031,0.977,0.055,1.285c0.039,0.523,0.051,0.752-0.061,1.117
			c-0.053,0.174-0.064,0.357-0.033,0.537c-0.006,0.158,0.02,0.317,0.079,0.469c0.373,0.957,0.472,1.686,0.435,2.09
			c-0.234-0.053-0.055,0.746-0.108,0.717c-0.343-0.18-0.081,0-0.84-0.056c-0.497-0.038-0.612-0.05-0.903,0.124
			c-0.884,0.529-1.688,3.844-0.842,3.271c0.794-0.539,2.049-1.259,2.319-0.903c0.267,0.353-0.042,0.86,0.472,0.669
			c-0.055,0.122-0.249,0.389-0.333,0.564c-1.12,2.305-2.211,4.924-1.814,6.855c0.057,0.279,0.103,1.158-0.369,1.861
			c-0.313,0.469-1.009,1.199-1.677,1.326L76.698,73.039z"/>
	</g>
	<g>
		<path fill="#FFFFFF" d="M77.925,56.041c-0.123-0.289-0.271-0.588-0.514-0.852c-0.118-0.131-0.262-0.247-0.386-0.331l-0.152-0.107
			l-0.026-0.019c-0.005-0.004-0.005-0.004-0.009-0.006c0.001,0.009-0.052-0.061-0.048-0.051c-0.104-0.134-0.204-0.238-0.308-0.346
			c-0.104-0.105-0.208-0.207-0.317-0.307c-0.109-0.098-0.22-0.195-0.339-0.289c-0.092-0.072-0.181-0.14-0.297-0.209
			c-0.074-0.182-0.195-0.346-0.335-0.463c-0.179-0.152-0.374-0.243-0.559-0.316c-0.187-0.074-0.369-0.126-0.533-0.18
			c-0.062-0.021-0.12-0.042-0.172-0.062c0.043-0.045,0.084-0.092,0.122-0.137c0.1-0.124,0.181-0.252,0.257-0.383
			c0.151-0.26,0.276-0.523,0.396-0.787l0.344-0.795c0.113-0.26,0.228-0.527,0.367-0.757c0.153-0.231,0.327-0.462,0.531-0.639
			c0.097-0.085,0.232-0.161,0.308-0.13c0.08,0.028,0.108,0.191,0.106,0.322c-0.002,0.277-0.07,0.56-0.146,0.835
			c-0.079,0.274-0.175,0.546-0.28,0.814c0.123-0.261,0.236-0.526,0.334-0.799c0.095-0.273,0.183-0.551,0.205-0.848
			c0.006-0.076,0.004-0.152-0.011-0.231c-0.018-0.076-0.048-0.173-0.147-0.223c-0.097-0.046-0.196-0.023-0.271,0.006
			c-0.077,0.03-0.143,0.073-0.204,0.118c-0.243,0.184-0.434,0.408-0.613,0.643c-0.177,0.251-0.304,0.509-0.438,0.767l-0.394,0.766
			c-0.134,0.251-0.273,0.497-0.426,0.725c-0.077,0.113-0.158,0.223-0.246,0.318c-0.086,0.096-0.182,0.173-0.265,0.211l-0.001,0.002
			c-0.111,0.053-0.158,0.186-0.105,0.295l0.002,0.004c0.077,0.164,0.195,0.239,0.289,0.298c0.098,0.06,0.189,0.099,0.276,0.139
			c0.179,0.075,0.343,0.14,0.494,0.214s0.284,0.158,0.376,0.254c0.092,0.095,0.14,0.197,0.159,0.312
			c0.013,0.078,0.058,0.15,0.128,0.195l0.046,0.029c0.063,0.039,0.169,0.126,0.259,0.213c0.094,0.086,0.186,0.182,0.275,0.281
			c0.091,0.096,0.178,0.196,0.262,0.299c0.082,0.101,0.166,0.207,0.225,0.3c0.047,0.065,0.034,0.054,0.084,0.112l0.063,0.07
			l0.052,0.051c0.067,0.06,0.13,0.109,0.178,0.149c0.101,0.083,0.167,0.151,0.231,0.233c0.124,0.161,0.214,0.378,0.289,0.609
			l0.001,0.006c0.004,0.013,0.009,0.026,0.014,0.04c0.102,0.239,0.377,0.351,0.617,0.251C77.914,56.554,78.025,56.281,77.925,56.041
			z"/>
		<path fill="#FFFFFF" d="M70.913,50.562c0,0,0.455-1.159,0.379-1.548c-0.078-0.388-1.919-1.516-2.501-2.414
			c-0.582-0.897-1.254-3.289-2.273-3.573c-1.018-0.286-2.593,0.068-3.269,1.654c1.009-0.146,2.862-0.299,3.503,0.858
			C67.393,46.698,68.754,48.854,70.913,50.562z"/>
		<path fill="#FFFFFF" d="M73.366,49.867c0,0-0.398-0.74-0.24-1.109c0.157-0.369,0.812-0.642,0.917-0.943
			c0.104-0.3,0.754-2.61,1.433-2.143s0.698,1.005,0.698,1.005c-0.313-0.031-0.935,0.362-1.169,0.698
			C74.686,47.837,73.798,48.882,73.366,49.867z"/>
		<path fill="#FFFFFF" d="M68.936,50.914c0.268,0.498,0.044,1.865,0.327,2.084l1.146,0.262v-1.192L68.936,50.914z"/>
		<path fill="#FFFFFF" d="M76.426,59.397c-0.108-0.063-0.219-0.115-0.326-0.188c-0.11-0.068-0.212-0.143-0.315-0.22
			c-0.202-0.152-0.391-0.327-0.569-0.501c-0.18-0.169-0.355-0.342-0.546-0.429c-0.047-0.025-0.096-0.04-0.145-0.054
			c-0.049-0.018-0.103-0.014-0.151-0.025c-0.052-0.002-0.105,0.002-0.158,0.002l-0.161,0.025c-0.109,0.017-0.211-0.059-0.228-0.168
			l-0.001-0.013l-0.003-0.032c-0.01-0.13,0.002-0.264-0.029-0.383c-0.016-0.125-0.059-0.238-0.104-0.343
			c-0.031-0.046-0.053-0.101-0.087-0.142c-0.039-0.036-0.065-0.084-0.11-0.113c-0.082-0.066-0.171-0.12-0.277-0.15
			c-0.05-0.02-0.103-0.031-0.161-0.037c-0.054-0.014-0.112-0.014-0.169-0.016c-0.116-0.004-0.235,0.012-0.352,0.037
			c-0.118,0.024-0.23,0.065-0.34,0.111c-0.05,0.027-0.104,0.051-0.153,0.08l-0.069,0.048l-0.07,0.04l-0.046,0.027
			c-0.033,0.018-0.055,0.035-0.099,0.055c-0.056,0.021-0.114,0.041-0.172,0.058c-0.062,0.021-0.114,0.025-0.165,0.027
			c-0.053,0.004-0.106,0.011-0.159,0.007c-0.21-0.015-0.416-0.082-0.584-0.2c-0.086-0.058-0.158-0.13-0.229-0.201
			c-0.059-0.079-0.129-0.157-0.169-0.243c-0.093-0.172-0.152-0.356-0.175-0.537c-0.03-0.185-0.02-0.361-0.004-0.533l0.044-0.253
			c0.018-0.083,0.047-0.159,0.07-0.239c0.043-0.162,0.119-0.301,0.182-0.45c0.071-0.142,0.152-0.275,0.229-0.415l0.138,0.645
			c0.002,0.008,0.007,0.012,0.014,0.014l-0.03-0.006c-0.016-0.006-0.063-0.008-0.092-0.012c-0.075-0.008-0.157-0.012-0.243-0.014
			c-0.172,0.002-0.35,0.006-0.53,0.027c-0.179,0.018-0.362,0.047-0.54,0.075c-0.181,0.032-0.359,0.072-0.538,0.112
			c-0.178,0.041-0.354,0.09-0.531,0.135l-0.524,0.157c-0.173,0.056-0.345,0.114-0.516,0.175c-0.172,0.061-0.338,0.131-0.505,0.2
			c-0.168,0.067-0.331,0.146-0.495,0.222c-0.159,0.086-0.318,0.174-0.474,0.264c-0.157,0.089-0.31,0.188-0.457,0.291
			c-0.147,0.106-0.293,0.215-0.437,0.328c-0.138,0.119-0.276,0.241-0.406,0.371c-0.137,0.125-0.253,0.268-0.381,0.406
			c-0.119,0.143-0.239,0.289-0.348,0.448c-0.117,0.152-0.213,0.317-0.326,0.482l-0.004,0.004c-0.017,0.026-0.053,0.032-0.079,0.015
			c-0.02-0.013-0.028-0.037-0.024-0.058c0.038-0.194,0.07-0.397,0.136-0.589c0.053-0.197,0.136-0.381,0.214-0.572
			c0.092-0.186,0.183-0.37,0.297-0.545c0.102-0.18,0.234-0.342,0.36-0.507c0.134-0.16,0.269-0.321,0.421-0.466
			c0.149-0.145,0.307-0.284,0.469-0.414c0.16-0.137,0.335-0.251,0.508-0.369c0.177-0.108,0.355-0.221,0.539-0.316
			c0.182-0.1,0.372-0.188,0.563-0.27c0.189-0.083,0.386-0.15,0.582-0.217c0.197-0.065,0.397-0.117,0.598-0.168
			c0.201-0.047,0.404-0.085,0.609-0.115c0.407-0.062,0.819-0.094,1.235-0.096c0.209-0.004,0.419,0.004,0.637,0.023
			c0.108,0.01,0.221,0.023,0.337,0.045c0.065,0.018,0.116,0.023,0.191,0.048c0.038,0.012,0.07,0.021,0.11,0.036
			c0.05,0.023,0.101,0.048,0.146,0.076c0.212,0.121,0.285,0.395,0.162,0.607l-0.01,0.016l-0.014,0.022
			c-0.068,0.103-0.144,0.207-0.205,0.315c-0.051,0.108-0.124,0.215-0.157,0.324c-0.018,0.057-0.046,0.109-0.06,0.165l-0.04,0.163
			c-0.016,0.107-0.031,0.216-0.02,0.312c0.005,0.101,0.029,0.191,0.064,0.271c0.013,0.044,0.045,0.071,0.063,0.112
			c0.028,0.027,0.053,0.061,0.084,0.083c0.059,0.05,0.128,0.079,0.199,0.094c0.031,0,0.082,0.007,0.098,0.002
			c0.01-0.002,0.02-0.002,0.032,0.001c0.022-0.007,0.061-0.027,0.092-0.041l0.047-0.023l0.012-0.006
			c0.007-0.003-0.059,0.035-0.029,0.02l0.002-0.002l0.003-0.002l0.007-0.004l0.027-0.016l0.113-0.062
			c0.076-0.037,0.154-0.066,0.23-0.098c0.157-0.054,0.315-0.094,0.477-0.115c0.163-0.021,0.328-0.029,0.494-0.012
			c0.084,0.008,0.167,0.018,0.25,0.043l0.124,0.03l0.121,0.048c0.162,0.064,0.311,0.17,0.437,0.297
			c0.066,0.06,0.11,0.139,0.164,0.209c0.048,0.07,0.078,0.154,0.114,0.231c0.055,0.159,0.094,0.317,0.101,0.477
			c0.023,0.159-0.003,0.311-0.006,0.466l-0.231-0.215l0.209-0.012c0.072,0.006,0.144,0.008,0.216,0.018
			c0.071,0.018,0.145,0.024,0.213,0.056c0.07,0.024,0.136,0.054,0.197,0.093c0.126,0.071,0.229,0.164,0.323,0.257
			c0.092,0.095,0.176,0.19,0.258,0.284c0.164,0.186,0.324,0.371,0.5,0.539c0.091,0.082,0.181,0.165,0.277,0.238
			c0.091,0.078,0.199,0.145,0.3,0.218l0.002,0.002c0.025,0.019,0.031,0.054,0.012,0.078C76.483,59.403,76.451,59.411,76.426,59.397z
			"/>
		<path fill="#FFFFFF" d="M62.362,62.738c-0.039,0.104-0.053,0.191-0.057,0.287c-0.007,0.096,0,0.189,0.007,0.283
			c0.013,0.189,0.052,0.377,0.087,0.562c0.075,0.374,0.168,0.745,0.264,1.114c0.1,0.37,0.199,0.739,0.309,1.1
			c0.051,0.181,0.11,0.36,0.167,0.53c0.03,0.084,0.063,0.166,0.092,0.237c0.014,0.036,0.03,0.069,0.039,0.089
			c0.004,0.007,0.014,0.025,0.004,0.012c-0.006-0.007,0,0.002-0.018-0.016c-0.023-0.023-0.053-0.043-0.083-0.055l-0.519,0.092
			c0.06-0.051,0.119-0.1,0.18-0.146c0.06-0.046,0.12-0.098,0.182-0.134c0.121-0.074,0.246-0.144,0.368-0.211
			c0.124-0.061,0.25-0.112,0.375-0.168c0.125-0.049,0.253-0.092,0.379-0.136c0.127-0.04,0.254-0.075,0.383-0.108
			c0.128-0.035,0.259-0.059,0.39-0.083c0.128-0.027,0.261-0.048,0.394-0.062c0.13-0.018,0.265-0.027,0.398-0.03
			c-0.217,0.158-0.435,0.304-0.652,0.443l-0.323,0.212c-0.105,0.072-0.216,0.135-0.318,0.207L64.1,66.967
			c-0.1,0.07-0.197,0.143-0.297,0.209c-0.093,0.071-0.181,0.147-0.274,0.217c-0.045,0.035-0.076,0.072-0.114,0.11
			c-0.039,0.037-0.075,0.071-0.114,0.106l-0.037,0.033c-0.137,0.119-0.329,0.137-0.482,0.057c-0.05-0.025-0.099-0.059-0.143-0.098
			c-0.038-0.033-0.044-0.047-0.066-0.07c-0.043-0.051-0.058-0.078-0.081-0.111c-0.041-0.066-0.07-0.121-0.098-0.174
			c-0.055-0.107-0.092-0.208-0.131-0.31c-0.078-0.2-0.136-0.4-0.189-0.6c-0.102-0.399-0.176-0.802-0.212-1.21
			c-0.038-0.408-0.044-0.824,0.007-1.24c0.025-0.207,0.072-0.415,0.139-0.618c0.038-0.102,0.082-0.2,0.137-0.294
			C62.202,62.882,62.278,62.793,62.362,62.738z"/>
		<path fill="#FFFFFF" d="M66.258,58.242c0.075-0.045,0.347-0.206,0.423-0.248c3.053-1.717,6.999-0.863,9.557,0.743
			c0.182,0.112,0.236,0.353,0.123,0.534c-0.114,0.182-0.354,0.236-0.535,0.122c-2.362-1.483-5.988-2.282-8.763-0.724L66.258,58.242z
			"/>
		<path fill="#FFFFFF" d="M69.965,53.469c-2.034,0-3.155-0.831-3.842-1.342c-0.142-0.104-0.264-0.195-0.368-0.261
			c-0.221-0.138-0.287-0.427-0.15-0.646c0.136-0.221,0.426-0.289,0.647-0.151c0.135,0.085,0.278,0.191,0.428,0.304
			c0.719,0.531,1.703,1.263,3.699,1.143c0.263-0.014,0.481,0.182,0.497,0.441c0.016,0.259-0.181,0.48-0.44,0.496
			C70.274,53.465,70.117,53.469,69.965,53.469z"/>
		<path fill="#FFFFFF" d="M74.683,53.562c-0.242,0-0.448-0.186-0.468-0.432c-0.021-0.258,0.171-0.485,0.43-0.507
			c0.252-0.021,0.69-0.19,1.348-0.886c0.178-0.187,0.476-0.195,0.664-0.018c0.188,0.178,0.196,0.477,0.018,0.664
			c-0.702,0.742-1.342,1.126-1.954,1.176C74.708,53.562,74.695,53.562,74.683,53.562z"/>
		<path fill="#FFFFFF" d="M74.443,51.351c0,0.335-0.006,1.476-0.111,1.646c-0.104,0.172-0.152,0.059-0.152,0.059l-0.525-0.646
			L74.443,51.351z"/>
		<path fill="#FFFFFF" d="M70.212,45.773c0,0,0.065,0.051,0.181,0.141c0.113,0.1,0.265,0.262,0.428,0.456
			c0.162,0.198,0.347,0.435,0.523,0.699c0.178,0.264,0.352,0.554,0.518,0.852c0.163,0.296,0.361,0.583,0.483,0.881
			c0.056,0.152,0.097,0.302,0.122,0.451c0.024,0.151,0.044,0.29,0.044,0.429c0.004,0.134-0.002,0.262-0.018,0.377
			c-0.01,0.059-0.015,0.109-0.026,0.16c-0.016,0.051-0.029,0.097-0.042,0.139c-0.021,0.08-0.064,0.152-0.093,0.189
			c-0.027,0.038-0.043,0.059-0.043,0.059c-0.016,0.02-0.045,0.025-0.066,0.011c-0.005-0.006-0.011-0.012-0.014-0.019l-0.01-0.019
			c0,0-0.01-0.021-0.028-0.061c-0.021-0.039-0.038-0.077-0.081-0.144c-0.039-0.062-0.08-0.131-0.136-0.219
			c-0.05-0.082-0.108-0.178-0.17-0.281c-0.115-0.208-0.255-0.453-0.354-0.733c-0.101-0.282-0.145-0.61-0.253-0.916
			c-0.099-0.31-0.216-0.613-0.321-0.902c-0.109-0.285-0.216-0.55-0.314-0.774c-0.054-0.11-0.102-0.21-0.145-0.299
			c-0.048-0.085-0.088-0.16-0.123-0.221c-0.081-0.122-0.129-0.191-0.129-0.191c-0.015-0.021-0.009-0.051,0.012-0.066
			C70.173,45.759,70.196,45.76,70.212,45.773z"/>
		<path fill="#FFFFFF" d="M73.103,49.988c0,0-0.047-0.074-0.097-0.201c-0.055-0.127-0.103-0.31-0.139-0.518
			c-0.034-0.207-0.058-0.439-0.038-0.675c0.011-0.118,0.039-0.239,0.064-0.361c0.027-0.123,0.045-0.248,0.053-0.373
			c0.004-0.126,0.011-0.253,0.004-0.375c-0.005-0.125-0.011-0.247-0.025-0.367c-0.006-0.121-0.038-0.232-0.05-0.344
			c-0.022-0.11-0.049-0.212-0.07-0.309c-0.03-0.096-0.057-0.182-0.082-0.259c-0.024-0.079-0.057-0.142-0.074-0.199
			c-0.043-0.112-0.068-0.175-0.068-0.175l-0.001-0.003c-0.009-0.025,0.003-0.052,0.027-0.062c0.019-0.007,0.038-0.002,0.051,0.012
			c0,0,0.047,0.051,0.131,0.14c0.041,0.046,0.097,0.099,0.145,0.169c0.052,0.07,0.11,0.148,0.173,0.234
			c0.056,0.091,0.12,0.19,0.183,0.297c0.055,0.111,0.12,0.228,0.168,0.356c0.053,0.126,0.104,0.261,0.14,0.401
			c0.042,0.14,0.069,0.285,0.098,0.429c0.025,0.146,0.051,0.292,0.076,0.436c0.027,0.144,0.037,0.287,0.032,0.422
			c-0.017,0.272-0.104,0.511-0.19,0.708c-0.094,0.195-0.189,0.348-0.275,0.458c-0.081,0.109-0.145,0.169-0.145,0.169
			c-0.024,0.023-0.061,0.022-0.085-0.002C73.108,49.995,73.105,49.991,73.103,49.988z"/>
		<path fill="#FFFFFF" d="M61.666,58.513c0,0,0.02,0.059,0.038,0.152c0,0.05,0.042,0.092,0.061,0.128
			c0.016,0.032,0.067,0.083,0.091,0.118c0.045,0.037,0.07,0.072,0.12,0.103c0.039,0.032,0.089,0.062,0.131,0.095
			c0.052,0.025,0.094,0.062,0.149,0.088c0.048,0.031,0.104,0.059,0.157,0.089c0.057,0.025,0.109,0.06,0.167,0.083
			c0.029,0.009,0.057,0.026,0.085,0.04c0.03,0.012,0.06,0.021,0.087,0.036c0.059,0.031,0.119,0.043,0.179,0.074
			c0.059,0.02,0.12,0.039,0.181,0.062c0.059,0.016,0.119,0.034,0.175,0.05c0.056,0.018,0.107,0.023,0.152,0.035
			c0.088,0.02,0.15,0.039,0.15,0.039s-0.021,0.055-0.08,0.135c-0.029,0.037-0.062,0.098-0.115,0.136
			c-0.051,0.044-0.112,0.097-0.184,0.142c-0.075,0.038-0.16,0.078-0.255,0.109c-0.095,0.019-0.201,0.05-0.31,0.046
			c-0.11,0.002-0.225-0.004-0.337-0.034c-0.116-0.02-0.224-0.074-0.333-0.121c-0.102-0.064-0.206-0.124-0.291-0.211
			c-0.091-0.076-0.161-0.18-0.224-0.277c-0.058-0.104-0.103-0.21-0.124-0.321c-0.029-0.104-0.021-0.22-0.014-0.312
			c0.024-0.103,0.04-0.176,0.089-0.253c0.041-0.07,0.081-0.128,0.123-0.148C61.611,58.541,61.666,58.513,61.666,58.513z"/>
		<path fill="#FFFFFF" d="M68.027,54.01c0,0-0.015,0.002-0.045,0.012c-0.03,0.008-0.072,0.02-0.129,0.025
			c-0.055,0.008-0.129,0.014-0.207,0.013c-0.077,0-0.165-0.002-0.259-0.013c-0.094-0.01-0.194-0.027-0.298-0.049
			c-0.105-0.021-0.212-0.055-0.321-0.094c-0.107-0.045-0.216-0.095-0.321-0.154c-0.106-0.061-0.215-0.119-0.322-0.178
			c-0.218-0.115-0.431-0.238-0.622-0.368c-0.095-0.067-0.188-0.126-0.271-0.193c-0.084-0.063-0.163-0.126-0.232-0.188
			c-0.071-0.058-0.134-0.116-0.187-0.17c-0.054-0.052-0.101-0.095-0.135-0.139c-0.069-0.081-0.109-0.128-0.109-0.128
			c-0.009-0.012-0.008-0.025,0.003-0.037c0.009-0.008,0.022-0.008,0.032,0l0.001,0.002c0,0,0.049,0.033,0.133,0.096
			c0.042,0.031,0.096,0.065,0.157,0.103c0.059,0.042,0.13,0.082,0.209,0.122c0.154,0.09,0.343,0.176,0.544,0.268
			c0.205,0.087,0.422,0.18,0.644,0.259c0.111,0.042,0.224,0.075,0.337,0.106c0.112,0.033,0.223,0.061,0.326,0.099
			c0.206,0.075,0.391,0.169,0.549,0.249c0.079,0.043,0.151,0.082,0.216,0.116c0.064,0.041,0.116,0.067,0.163,0.099
			c0.095,0.055,0.152,0.092,0.152,0.092c0.013,0.009,0.017,0.025,0.009,0.04C68.04,54.003,68.033,54.008,68.027,54.01z"/>
		<path fill="#FFFFFF" d="M75.088,53.857c-0.166,0-0.327-0.089-0.411-0.245c-0.125-0.228-0.043-0.513,0.184-0.638
			c0.348-0.189,2.066-1.104,2.979-0.268c-0.032,0.146-0.051,0.515,0.086,0.668c-0.176,0.191-0.473,0.204-0.664,0.029
			c-0.296-0.273-1.34,0.061-1.948,0.394C75.243,53.836,75.165,53.857,75.088,53.857z"/>
		<path fill="#FFFFFF" d="M55.353,54.207c0,0,0,0.021,0.001,0.062c0.004,0.039,0.001,0.1-0.007,0.183
			c-0.02,0.159-0.062,0.396-0.151,0.682c-0.087,0.285-0.199,0.626-0.335,1.009c-0.13,0.383-0.275,0.814-0.396,1.277
			c-0.124,0.461-0.216,0.961-0.212,1.451c0.003,0.494,0.129,0.953,0.405,1.334c0.03,0.05,0.074,0.094,0.111,0.14
			c0.017,0.02,0.042,0.054,0.052,0.062l0.081,0.09c0.113,0.129,0.193,0.203,0.302,0.309c0.21,0.205,0.438,0.398,0.675,0.586
			c0.474,0.367,0.991,0.709,1.522,0.947c0.263,0.123,0.529,0.223,0.779,0.277c0.247,0.052,0.48,0.068,0.622,0.025
			c0.146-0.039,0.222-0.09,0.317-0.236c0.092-0.145,0.152-0.377,0.187-0.627l0.019-0.193l0.006-0.201
			c0.005-0.128-0.001-0.299,0.001-0.444c0-0.301,0.001-0.596,0.002-0.882c0.01-0.578,0.02-1.121,0.048-1.628
			c0.021-0.503,0.067-0.969,0.107-1.378c0.026-0.209,0.048-0.4,0.077-0.578c0.027-0.18,0.068-0.343,0.097-0.488
			c0.025-0.146,0.073-0.278,0.108-0.389c0.033-0.111,0.067-0.203,0.104-0.277c0.07-0.143,0.107-0.219,0.107-0.219
			s-0.008,0.082-0.023,0.24c-0.012,0.077-0.014,0.173-0.01,0.287c0.005,0.112-0.004,0.238,0.011,0.383
			c0.016,0.287,0.062,0.637,0.104,1.037c0.056,0.399,0.119,0.852,0.188,1.346c0.066,0.496,0.136,1.029,0.212,1.597
			c0.035,0.285,0.07,0.578,0.107,0.878c0.017,0.154,0.038,0.287,0.048,0.466l0.018,0.261l-0.001,0.275
			c-0.013,0.367-0.065,0.775-0.277,1.199c-0.098,0.214-0.263,0.422-0.458,0.601c-0.204,0.166-0.444,0.304-0.685,0.371
			c-0.488,0.149-0.939,0.114-1.337,0.034c-0.401-0.082-0.764-0.214-1.106-0.369c-0.68-0.318-1.28-0.727-1.818-1.189
			c-0.271-0.229-0.524-0.475-0.759-0.736c-0.113-0.125-0.252-0.283-0.341-0.4l-0.073-0.092c-0.041-0.052-0.06-0.084-0.09-0.127
			c-0.054-0.082-0.112-0.16-0.157-0.246c-0.404-0.678-0.495-1.471-0.405-2.114c0.088-0.653,0.299-1.206,0.523-1.681
			c0.224-0.477,0.474-0.875,0.694-1.224c0.217-0.35,0.423-0.64,0.579-0.886c0.155-0.245,0.275-0.438,0.34-0.578
			c0.031-0.07,0.057-0.127,0.069-0.166C55.347,54.226,55.353,54.207,55.353,54.207z"/>
		<path fill="#FFFFFF" d="M58.907,67.885c-0.134-0.047-9.186,3.145-11.47,17.934L47.4,86.054l0.232,0.055
			c1.977,0.473,5.195,7.503,6.267,10.172l0.096,0.239l0.24-0.095c3.395-1.345,2.2-6.123,1.241-9.963
			c-0.373-1.486-0.723-2.891-0.697-3.752c0.103-3.344,1.93-5.842,5.429-7.418l0.546-0.247L58.907,67.885z"/>
		<path fill="#FFFFFF" d="M67.371,65.395c0,0,0.103-0.077,0.287-0.197c0.188-0.113,0.466-0.268,0.81-0.417
			c0.689-0.305,1.663-0.58,2.672-0.654c0.251-0.021,0.506-0.02,0.755-0.021c0.125,0.004,0.249,0.011,0.372,0.02
			c0.123,0.005,0.243,0.017,0.362,0.035c0.237,0.031,0.465,0.071,0.679,0.129c0.214,0.047,0.412,0.118,0.592,0.186
			c0.181,0.061,0.339,0.149,0.477,0.221c0.068,0.037,0.134,0.068,0.19,0.103c0.057,0.038,0.107,0.073,0.154,0.106
			c0.183,0.131,0.276,0.212,0.276,0.212s-0.131-0.008-0.345-0.038c-0.052-0.006-0.111-0.016-0.174-0.023
			c-0.066-0.002-0.134-0.01-0.208-0.016c-0.148-0.011-0.308-0.03-0.488-0.033c-0.178-0.007-0.367-0.021-0.57-0.016
			c-0.2-0.008-0.413-0.001-0.631,0.004c-0.217-0.004-0.445,0.021-0.673,0.021c-0.23,0.023-0.463,0.021-0.699,0.049
			c-0.233,0.014-0.468,0.037-0.699,0.058c-0.232,0.021-0.46,0.042-0.682,0.062c-0.448,0.044-0.866,0.083-1.225,0.12
			c-0.363,0.031-0.667,0.059-0.886,0.071C67.5,65.395,67.371,65.395,67.371,65.395z"/>
		<path fill="#FFFFFF" d="M55.468,97.064c-0.229-0.157,2.573-2.992,2.604-3.271c0.36-3.268,0.519-5.46,0.333-7.685
			c-0.371-4.449,0.981-13.207,2.798-16.422c0.103-0.182,0.311-0.139,0.516-0.188c0.204-0.047,1.108,0.145,1.282,0.263l2.4,1.085
			c0.279,0.189,0.728,0.393,0.619,0.712c-3.554,10.409-4.187,15.333-3.489,20.659c0.04,0.311-0.117,0.614-0.395,0.76
			C62.137,92.978,58.631,94.676,55.468,97.064z"/>
		<path fill="#FFFFFF" d="M70.822,50.895c0,0,0.023,0.212,0.062,0.587c0.01,0.093,0.021,0.196,0.033,0.309
			c0.005,0.056,0.011,0.115,0.017,0.176c0.003,0.031,0.006,0.062,0.009,0.093l0.002,0.024l0.001,0.012l0,0.006
			c0.002-0.01-0.014,0.084-0.007,0.045l-0.001,0.004c-0.005,0.008,0.006,0.008-0.034,0.059c-0.017,0.017-0.039,0.03-0.058,0.04
			l-0.027,0.008c-0.124,0.021-0.178,0-0.258-0.01c-0.073-0.014-0.146-0.03-0.219-0.05c-0.037-0.012-0.073-0.021-0.11-0.031
			l-0.029-0.008c-0.038-0.016-0.025-0.012-0.04-0.02l-0.051-0.023c-0.068-0.029-0.146-0.094-0.222-0.142
			c-0.279-0.2-0.546-0.414-0.833-0.653c-0.287-0.235-0.579-0.494-0.882-0.76c-0.605-0.535-1.23-1.126-1.844-1.736
			c-0.31-0.302-0.613-0.61-0.912-0.923c-0.148-0.156-0.296-0.314-0.436-0.482c-0.069-0.08-0.139-0.168-0.204-0.262
			c-0.066-0.088-0.138-0.195-0.166-0.228c-0.041-0.055-0.086-0.104-0.117-0.127c-0.028-0.026-0.038-0.01,0.056-0.009
			c0.044-0.006,0.092-0.02,0.114-0.042c0.019-0.014,0.02-0.021,0.014-0.016c-0.014,0.009-0.047,0.066-0.073,0.121
			c-0.052,0.124-0.094,0.278-0.125,0.433c-0.037,0.154-0.063,0.311-0.086,0.462c-0.045,0.306-0.083,0.593-0.112,0.85
			c-0.031,0.26-0.06,0.486-0.081,0.671c-0.049,0.375-0.085,0.593-0.085,0.593c-0.004,0.026-0.028,0.044-0.055,0.041
			c-0.019-0.003-0.034-0.018-0.04-0.034c0,0-0.016-0.052-0.045-0.15c-0.029-0.1-0.069-0.245-0.112-0.432
			c-0.044-0.187-0.091-0.413-0.131-0.678c-0.038-0.264-0.079-0.565-0.09-0.9c-0.01-0.341-0.018-0.701,0.102-1.148
			c0.038-0.117,0.071-0.237,0.169-0.381c0.05-0.071,0.117-0.148,0.213-0.219c0.104-0.07,0.241-0.128,0.383-0.132
			c0.291-0.008,0.461,0.112,0.588,0.205c0.125,0.099,0.212,0.199,0.293,0.304c0.092,0.128,0.127,0.192,0.181,0.269
			c0.051,0.075,0.099,0.154,0.16,0.234c0.112,0.159,0.229,0.324,0.354,0.489c0.245,0.33,0.519,0.654,0.79,0.979
			c0.556,0.642,1.134,1.268,1.679,1.852c0.273,0.291,0.542,0.568,0.797,0.83c0.253,0.261,0.507,0.508,0.729,0.707
			c0.056,0.045,0.09,0.094,0.16,0.134l0.049,0.029c0.002,0.004,0.03,0.019,0.01,0.01l0.026,0.011l0.1,0.039
			c0.065,0.025,0.13,0.048,0.192,0.066c0.055,0.018,0.134,0.031,0.14,0.031c0,0,0,0-0.001,0.002
			c-0.013,0.003-0.028,0.014-0.038,0.027c-0.009,0.009-0.016,0.041-0.012,0.029l0.004-0.011l0.002-0.002
			c0.005-0.041-0.008,0.05-0.006,0.04v-0.006V52.09l0-0.024c0-0.031,0-0.062,0-0.093c0.001-0.061,0.001-0.12,0.001-0.176
			c0.002-0.112,0.005-0.216,0.006-0.311c0.005-0.375,0.009-0.587,0.009-0.587c0-0.027,0.022-0.048,0.048-0.048
			c0.024,0,0.044,0.019,0.046,0.042L70.822,50.895L70.822,50.895z"/>
		<path fill="#FFFFFF" d="M76.669,38.9c-1.504-2.865-4.144-6.039-12.291-7.85c-0.538-0.119-1.093-0.208-1.658-0.273
			c-1.104-1.691-4-2.734-6.355-2.134l0,0h0c0,0.422,0.015,1.021-0.482,1.54c-0.386,0.404-1.083,0.759-2.335,0.946
			c-1.002,0.149-2.117,0.855-3.101,1.87c-1.833,1.889-3.209,4.85-2.537,7.294c0.343,0.916,0.936,1.367,1.322,1.049
			c0.088-0.072,0.167-0.186,0.228-0.344c0.206-0.529,0.348-0.971,0.577-1.232c0.01-0.012,0.023-0.019,0.034-0.03
			c0.026,0.022,0.053,0.046,0.083,0.065l0.132,0.082c0.709,0.439,1.445,0.871,2.109,1.021c0.002-0.001,0.004-0.002,0.005-0.004
			c0.004,0.001,0.008,0.003,0.013,0.004c-0.194,0.869-0.5,2.621-0.251,4.252c0.324,2.122,1.102,4.436,2.032,6.038
			c0.16,0.273,0.123,0.46,0.082,0.576c-0.192,0.541-1.091,0.982-1.391,1.096c-0.152,0.058-0.265,0.189-0.296,0.351l-0.423,2.159
			c-0.036,0.182,0.04,0.37,0.192,0.477c0.153,0.107,0.354,0.111,0.513,0.016c1.115-0.678,2.483-1.525,2.671-1.712
			c0.279-0.28,0.847-1.483,0.703-2.568c0.048-2.163,0.851-3.353,2.259-3.353c0.666,0,1.25,0.28,1.416,0.482
			c0.668,0.819,0.871,1.131,0.698,2.262c-0.087,0.571-0.249,1.336-0.404,2.076c-0.454,2.156-0.482,2.434-0.269,2.695
			c0.089,0.111,0.244,0.187,0.387,0.187c0.775,0,2.057-1.907,3.041-6.094c0.835-3.565,0.38-7.105,0.134-9.008
			c-0.019-0.151-0.037-0.296-0.054-0.431c1.775,0.902,5.836,2.838,7.769,3.483c0.432,0.144,0.945,0.219,1.483,0.219
			c1.356,0,3.242-0.497,4.09-1.899C77.186,41.553,77.484,40.45,76.669,38.9z"/>
		<path fill="#FFFFFF" d="M39.815,87.742c0.026,0.006,0.053,0.008,0.08,0.008c0.094,0,0.185-0.034,0.257-0.098
			c0.092-0.08,0.141-0.199,0.131-0.321c-0.003-0.038-0.288-3.937,1.926-8.005c0.589-1.082,1.284-2.341,2.021-3.674
			c2.17-3.934,4.63-8.393,5.928-11.094c1.759-3.66,2.851-7.727,2.997-11.155c0.006-0.136-0.06-0.267-0.174-0.341
			c-0.113-0.074-0.258-0.084-0.382-0.026c-0.125,0.061-1.235,0.597-1.64,0.96c-0.054,0.047-0.093,0.111-0.113,0.179
			c-0.722,2.413-3.466,9.457-5.604,13.268c-0.51,0.907-1.203,2.1-1.973,3.401c-0.113,0.727-0.25,1.461-0.409,2.203
			c1.25-2.094,2.403-4.054,3.059-5.225c2.13-3.797,4.855-10.767,5.635-13.311c0.176-0.131,0.482-0.309,0.784-0.471
			c-0.248,3.15-1.304,6.899-2.88,10.181c-1.288,2.681-3.743,7.13-5.908,11.055c-0.736,1.335-1.432,2.594-2.021,3.677
			c-1.873,3.439-2.048,6.693-2.038,7.925L39.815,87.742z"/>
		<path fill="#FFFFFF" d="M66.035,51.717c-0.012,0-0.024-0.002-0.037-0.004c-0.102-0.02-0.167-0.117-0.148-0.219
			c0.052-0.262-0.049-2.731-0.768-4.007c-0.051-0.091-0.019-0.204,0.072-0.256c0.09-0.05,0.204-0.018,0.255,0.072
			c0.782,1.393,0.874,3.938,0.809,4.264C66.202,51.655,66.124,51.717,66.035,51.717z"/>
		<g>
			<path fill="#FFFFFF" d="M67.555,55.976c0.053-0.027,0.105-0.052,0.159-0.073c0.155-0.071,0.316-0.134,0.501-0.195
				c0.169-0.058,0.34-0.104,0.501-0.146c0.283-0.068,0.581-0.12,0.911-0.156c0.11-0.012,0.212-0.02,0.307-0.025l0.068-0.006
				l0.299-0.006h0.035c-0.023,0.063-0.041,0.137-0.042,0.217c-0.001,0.096,0.021,0.18,0.047,0.256l-0.091-0.016l-0.255-0.037
				l-0.071-0.006c-0.086-0.01-0.182-0.02-0.285-0.025c-0.129-0.006-0.27-0.011-0.417-0.011c-0.162,0-0.321,0.005-0.472,0.017
				c-0.161,0.014-0.329,0.029-0.503,0.059c-0.188,0.029-0.357,0.064-0.515,0.107C67.671,55.941,67.613,55.959,67.555,55.976z"/>
		</g>
		<g>
			<path fill="#FFFFFF" d="M43.073,71.984c3.57-6.115,7.51-13.621,8.284-18.232c-0.517-0.305-2.959-0.447-5.778,0.821
				c-0.372,1.722-1.053,3.886-1.855,6.081C43.884,64.076,43.831,67.914,43.073,71.984z"/>
		</g>
		<g>
			<path fill="#FFFFFF" d="M43.039,37.142c-1.359-0.335-3.302-0.731-5.551-1.19c-5.598-1.141-12.053-2.155-13.845-3.186
				c-1.462-0.841-3.479-3.271-3.479-3.271v11.126l0.748-0.117c0.019-0.003,1.897-0.294,4.012-0.294c0.729,0,1.406,0.035,2.013,0.103
				c0.226,0.024,0.54,0.057,0.931,0.097c2.762,0.28,8.297,0.937,13.938,2.329l2.152,0.532l1.734-5.474L43.039,37.142z"/>
			<path fill="#FFFFFF" d="M30.756,62.677c-2.144-1.162-5.08-2.751-11.977-2.751c-0.245,0-0.495,0.002-0.748,0.006v-7.158
				c2.014,0.136,4.855,0.283,7.587,0.283c3.436,0,5.677-0.237,6.661-0.709l0.124-0.061l0.413-4.414l0.037-0.424l-0.386,0.185
				c-0.017,0.008-0.421,0.196-2.034,0.45c-0.864,0.137-3.029,0.225-5.52,0.225c-3.323,0-6.788-0.151-9.757-0.43l-2.289-0.213v17.885
				l2.852-0.299c1.153-0.121,2.26-0.182,3.291-0.182c4.694,0,6.986,1.271,8.229,1.962c0.132,0.073,0.254,0.144,0.37,0.203
				c-0.233,2.964-1.217,5.978-2.777,8.506c-1.589,2.573-3.402,3.646-4.061,3.972c-0.655-0.319-2.456-1.381-4.056-3.972
				c-1.242-2.013-2.092-4.233-2.523-6.603l-0.037-0.205l-0.208,0.006c-0.68,0.017-1.393-0.062-2.105-0.238
				c-0.974-0.239-1.894-0.641-2.659-1.16l-0.426-0.288l0.048,0.513c0.327,3.473,1.643,7.26,3.708,10.661l0.125,0.208
				c1.249,2.062,1.474,2.433,7.577,7.604l0.559,0.471l0.559-0.473c6.104-5.169,6.329-5.539,7.576-7.602l0.125-0.208
				c2.407-3.968,3.789-8.45,3.789-12.298v-2.491l-0.553-0.214C31.801,63.241,31.319,62.982,30.756,62.677z"/>
		</g>
		<path fill="#FFFFFF" d="M91.769,79.869c0.976-3.211,0.621-3.833,0.484-4.07c-0.199-0.35-0.473-0.637-2.144-1.242
			c0.41-1.144,0.441-2.057,0.094-2.721c-0.266-0.51-0.979-1.201-4.012-2.141c3.252-3.99,7.938-10.219,7.938-13.001
			c0-1.653-2.482-7.379-5.125-7.379c-0.091,0-0.181,0.005-0.269,0.018c-1.722,0.237-3.921,3.911-11.207,18.723
			c-1.333,2.709-2.386,4.852-2.821,5.58c-0.361,0.605-0.604,0.795-0.836,0.854c-0.27-0.858-0.44-1.914-0.484-3.027
			c-0.064-1.674-0.393-3.197-0.406-3.262l-0.051-0.234l-0.135-0.201c-0.031-0.045-0.756-1.112-1.639-1.836
			c-0.915-0.747-2.005-0.827-2.431-0.827c-0.096,0-0.149,0.004-0.148,0.004l-0.926,0.062l-0.213,0.897
			c-0.013,0.056-1.407,5.948-2.268,10.168l-0.042,0.204l1.424,10.91l0.092,0.187c0.978,1.976,1.951,3.4,2.598,4.347
			c0.146,0.215,0.347,0.508,0.474,0.707c-0.351,1.564-0.315,2.514,0.111,3.059c0.268,0.344,0.67,0.541,1.103,0.541h11.73
			c0.828,0,1.582-0.594,2.764-3.532c0.208-0.275,0.636-0.851,1.159-1.558c0.609-0.818,1.407-1.891,1.983-2.658
			c0.218-0.26,0.439-0.543,0.657-0.846l3.557-2.665l-0.017-0.649C92.755,84.023,92.667,81.799,91.769,79.869z M90.677,76.702
			c-0.033,0.509-0.367,1.983-0.728,3.058c-2.978,4.85-5.511,7.928-6.133,8.004c-0.584-0.084-0.677-0.353-0.847-1.012
			c-0.082-0.32-0.176-0.68-0.377-1.008c3.096-4.449,4.084-6.424,4.748-7.75c0.412-0.823,0.681-1.355,1.249-2.09
			C89.435,76.189,90.331,76.522,90.677,76.702z M85.163,90.044c-0.61,0.819-1.137,1.527-1.247,1.669l-0.046,0.061l-0.027,0.068
			c-0.414,1.049-1.014,2.282-1.299,2.577H71.239c0.003-0.376,0.12-1.126,0.294-1.821l0.021-0.082l-0.006-0.082
			c-0.026-0.354-0.298-0.753-0.844-1.553c-0.609-0.889-1.524-2.229-2.434-4.055L66.92,76.501c0.725-3.544,1.807-8.193,2.139-9.603
			c0.278,0.039,0.66,0.144,0.976,0.402c0.557,0.455,1.071,1.143,1.238,1.376c0.07,0.351,0.298,1.572,0.348,2.856
			c0.066,1.687,0.391,3.254,0.913,4.412l0.12,0.265l0.289,0.036c0.222,0.027,0.423,0.041,0.613,0.041
			c1.159,0,1.934-0.506,2.671-1.744c0.472-0.791,1.54-2.963,2.892-5.711c1.712-3.482,3.844-7.814,5.758-11.376
			c3.032-5.636,3.921-6.304,4.1-6.371c0.009,0,0.017,0,0.027,0c0.365,0,1.165,0.698,2.057,2.235c0.844,1.452,1.3,2.822,1.3,3.374
			c0,2.466-6.308,10.457-8.747,13.338L81.429,72.4l0.76,0.702l1.983-2.147c1.999,0.541,4.198,1.328,4.465,1.7
			c0.177,0.339-0.205,1.505-0.663,2.36c-0.775,0.949-1.107,1.609-1.561,2.516c-0.675,1.352-1.692,3.385-5.042,8.153
			c-0.224,0.048-0.761,0.083-1.401-0.455c-1.015-0.853-1.456-2.481-1.208-3.092c0.171-0.423,1.769-1.433,3.152-2.112l0.307-0.151
			l-0.019-0.343c-0.147-2.668,1.618-4.478,1.634-4.494l0.889-0.885h-2.816v1.037h0.498c-0.565,0.847-1.26,2.26-1.25,4.057
			c-0.968,0.494-2.994,1.614-3.355,2.502c-0.469,1.154,0.26,3.232,1.5,4.275c0.685,0.576,1.331,0.721,1.81,0.721
			c0.363,0,0.628-0.083,0.74-0.125c0.042,0.123,0.077,0.257,0.113,0.393c0.173,0.674,0.411,1.596,1.705,1.778
			c0.044,0.006,0.09,0.01,0.137,0.01c0.195,0,0.425-0.06,0.72-0.243c0.137,0.416,0.411,0.807,0.918,0.985
			c0.025,0.008,0.05,0.012,0.075,0.018C85.405,89.719,85.285,89.879,85.163,90.044z M88.007,86.295l-0.08,0.075
			c-0.086,0.099-0.321,0.404-0.664,0.858c-0.62,0.738-1.237,1.303-1.492,1.328c-0.282-0.119-0.32-0.544-0.318-0.779
			c0.632-0.644,1.465-1.668,2.602-3.271c0.921-1.301,1.779-2.623,2.297-3.44c0.449,1.183,0.586,2.464,0.626,3.004L88.007,86.295z"/>
		<path fill="#FFFFFF" d="M41.796,46.216c-1.266-0.104-2.431-0.325-3.38-0.617l-0.188,0.314c-1.953,3.256-1.976,18.703-1.976,18.86
			v2.17c0,4.705-1.669,10.152-4.58,14.949l-0.142,0.234c-1.628,2.69-3.622,5.04-8.993,9.09c-0.435,0.328-1.294,0.863-1.769,1.152
			c-0.474-0.289-1.334-0.824-1.769-1.152c-5.147-3.882-7.129-6.15-8.657-8.553l-0.454-0.711v0.002
			c-0.949,0.291-2.114,0.512-3.381,0.615c-2.396,0.197-4.5-0.081-5.508-0.648c1.133,0.868,3.252,3.539,5.613,6.154
			c0.863,1.081,1.929,2.146,3.086,3.168c0.518,0.477,1.032,0.915,1.536,1.298c0.002,0.001,0.003,0.002,0.005,0.003
			c1.372,1.111,2.796,2.161,4.113,3.113c0.902,0.651,2.29,1.562,2.909,1.912c0.644,0.363,2.121,1.395,2.136,1.404l0.371,0.26
			l0.37-0.26c0.015-0.01,1.491-1.041,2.135-1.404c0.621-0.352,2.008-1.263,2.909-1.912c4.761-3.441,7.926-6.696,10.262-10.554
			l0.14-0.229C40.026,79.205,42,72.668,42,66.943v-2.172c0-4.289,0.321-8.805,0.675-12.037c0.186-1.57,0.606-2.494,1.125-3.656
			c0.529-1.185,1.542-2.469,2.486-3.126C45.159,46.247,43.558,46.361,41.796,46.216z"/>
		<g>
			<path fill="#FFFFFF" d="M77.207,61.503c-0.685,0-1.352,0.466-1.865,1.288c-0.675-0.246-1.496-0.371-2.447-0.371
				c-2.722,0-6.079,1.026-8.239,1.949l-0.563-0.532c-0.432-1.952,0.375-3.547,2.467-4.868l9.787,0.76
				c0.191,0.096,0.672,0.297,1.405,0.336c0.117,0.006,0.228-0.039,0.307-0.123c0.864-0.931,0.167-2.957-0.156-3.752
				c0.218-0.646,0.187-1.056,0.142-1.656c-0.022-0.307-0.051-0.689-0.051-1.197c0-0.092-0.005-0.18-0.016-0.27
				c0-0.002,0-0.006,0-0.01c0-0.046-0.008-0.09-0.023-0.132c-0.177-0.873-0.902-1.177-1.394-1.321l-0.212-0.733
				c0.177-0.425,0.306-0.804,0.381-1.13c0.208-0.481,0.318-0.799,0.372-1.056c0.178-0.876-0.026-1.648-0.547-2.132
				c-0.037-0.21-0.178-0.677-0.723-1.103c-0.372-0.82-0.652-1.462-0.82-1.891l-0.861-0.089c0.18,0.53,0.651,1.592,1.017,2.392
				c0.027,0.061,0.07,0.114,0.125,0.153c0.257,0.186,0.382,0.373,0.443,0.504c-0.011,0.024-0.019,0.049-0.026,0.075
				c-0.037,0.161,0.032,0.326,0.17,0.415c0.426,0.272,0.598,0.84,0.46,1.521c-0.054,0.262-0.208,0.638-0.338,0.935
				c-0.009,0.023-0.016,0.046-0.022,0.07c-0.07,0.319-0.205,0.708-0.399,1.156c-0.035,0.083-0.041,0.176-0.016,0.261l0.311,1.077
				c0.038,0.132,0.144,0.232,0.275,0.267c0.635,0.168,0.972,0.339,1.051,0.822c0.012,0.071,0.017,0.143,0.017,0.219
				c0,0.537,0.029,0.936,0.053,1.254c0.045,0.6,0.067,0.9-0.147,1.475c-0.035,0.092-0.032,0.197,0.007,0.289
				c0.538,1.256,0.71,2.404,0.456,2.918c-0.581-0.066-0.91-0.247-0.912-0.247l0,0l0,0l-0.419-0.28
				c-0.174-0.116-0.41-0.072-0.533,0.1c-0.013,0.018-0.023,0.035-0.032,0.055l-9.197-0.715c-0.082-0.006-0.163,0.014-0.233,0.057
				c-2.499,1.535-3.473,3.516-2.895,5.89c0.017,0.073,0.056,0.138,0.11,0.19l0.834,0.788c0.114,0.107,0.281,0.134,0.424,0.072
				c2.077-0.915,5.461-1.985,8.163-1.985c0.999,0,1.824,0.146,2.454,0.436c0.188,0.086,0.41,0.011,0.505-0.173
				c0.456-0.87,0.998-1.18,1.354-1.18c0.287,0,0.472,0.191,0.492,0.505c-0.043,0.108-0.166,0.361-0.285,0.604
				c-0.716,1.477-2.207,4.545-1.784,6.609c0.083,0.402,0.101,1.372-0.426,2.155c-0.371,0.552-0.945,0.903-1.709,1.048
				c-0.162,0.032-0.393-0.082-0.541,0.048c-0.302,0.262-0.307-0.009-0.49-0.029v0.78c0.437,0.041,0.831,0.031,1.174-0.033
				c0.976-0.185,1.72-0.649,2.209-1.381c0.668-0.995,0.656-2.193,0.542-2.744c-0.37-1.805,1.096-4.824,1.722-6.113
				c0.229-0.472,0.324-0.668,0.353-0.801c0.007-0.028,0.01-0.058,0.01-0.086C78.476,62.064,77.942,61.503,77.207,61.503z"/>
			<path fill="#FFFFFF" d="M67.299,71.355c-0.582-0.297-1.206-0.634-1.888-1.025l-0.05-0.029c-1.102-0.629-2.337-0.975-3.478-0.975
				c-0.612,0-1.195,0.098-1.732,0.291c-0.009,0.004-0.017,0.005-0.024,0.009c-1.548,0.681-3.301,1.819-4.938,3.209
				c-0.104,0.087-0.153,0.222-0.132,0.354c0.021,0.136,0.109,0.249,0.234,0.299l4.542,1.877c1.196,2.093,0.909,4.68,0.63,7.184
				c-0.098,0.881-0.19,1.712-0.215,2.504c-0.013,0.422,0.032,0.961,0.084,1.584c0.155,1.848,0.364,4.353-0.822,5.645
				c-1.184-0.154-2.928,1.331-4.458,2.639c-0.261,0.225-0.513,0.44-0.749,0.636c-0.851-2.044-3.831-8.854-6.194-9.958
				c-0.011-0.101-0.052-0.196-0.12-0.277c-0.183-0.219-0.549-0.314-1.184-0.314c-1.513,0-4.647,0.604-6.976,1.946l-0.012,0.792
				c0.095,0.02,0.194,0.002,0.278-0.047c2.19-1.306,5.299-1.916,6.71-1.916c0.251,0,0.409,0.02,0.503,0.037
				c-0.021,0.193,0.105,0.372,0.296,0.418c0.528,0.126,1.739,0.969,3.919,5.188c1.271,2.461,2.249,4.882,2.258,4.907
				c0.046,0.112,0.142,0.199,0.26,0.229c0.033,0.008,0.066,0.014,0.1,0.014c0.086,0,0.17-0.028,0.239-0.082
				c0.354-0.277,0.753-0.619,1.176-0.98c1.216-1.041,2.881-2.465,3.771-2.465c0.067,0,0.128,0.008,0.18,0.025
				c0.135,0.048,0.286,0.018,0.391-0.08c1.621-1.499,1.382-4.342,1.208-6.419c-0.05-0.601-0.093-1.118-0.082-1.497
				c0.023-0.76,0.114-1.574,0.21-2.439c0.284-2.551,0.605-5.442-0.801-7.779c-0.043-0.07-0.107-0.127-0.184-0.158l-4.066-1.681
				c1.9-1.531,3.448-2.325,4.243-2.675c1.32-0.471,3.056-0.22,4.548,0.635l0.049,0.027c0.803,0.459,1.56,0.866,2.275,1.221
				L67.299,71.355L67.299,71.355z"/>
		</g>
	</g>
</g>
<g>
	<g>
		<g>
			<path fill="#FFFFFF" d="M217.879,55.5c0,0.943-0.336,1.746-1.008,2.406c-0.678,0.658-1.479,0.988-2.408,0.988
				c-0.629,0-1.203-0.15-1.721-0.45c-0.516-0.3-0.926-0.708-1.225-1.226c-0.299-0.517-0.449-1.089-0.449-1.719
				c0-0.931,0.33-1.733,0.99-2.406c0.66-0.675,1.463-1.012,2.404-1.012c0.93,0,1.732,0.337,2.408,1.012
				C217.543,53.768,217.879,54.569,217.879,55.5z"/>
		</g>
	</g>
	<path fill="#FFFFFF" d="M134.286,73.707c0.612-0.412,1.229,0.139,1.229,0.686v2.945c0,0.546-0.415,1.16-0.924,1.363
		c0,0-0.723,0.287-1.939,0.596c-1.216,0.31-2.382,0.463-3.494,0.463c-4.809,0-7.209-2.348-7.209-7.044v-6.529
		c0-0.548-0.449-0.996-0.998-0.996h-1.029c-0.547,0-0.994-0.264-0.994-0.585c0-0.322,0.312-0.904,0.696-1.297l7.559-7.697
		c0.383-0.391,0.868-0.711,1.077-0.711s0.381,0.448,0.381,0.997v3.661c0,0.547,0.448,0.997,0.996,0.997h4.383
		c0.547,0,0.996,0.448,0.996,0.995v2.643c0,0.549-0.449,0.997-0.996,0.997h-4.383c-0.548,0-0.996,0.448-0.996,0.996v4.051
		c0,0.548,0.016,1.443,0.033,1.991c0,0,0.009,0.279,0.096,0.711c0.086,0.432,0.331,0.795,0.733,1.084
		c0.399,0.291,1.011,0.436,1.825,0.436C132.262,74.459,133.363,74.261,134.286,73.707z"/>
	<path fill="#FFFFFF" d="M211.127,79.271V61.551c0-0.547,0.451-0.995,0.996-0.995h4.701c0.547,0,0.996,0.448,0.996,0.995v17.973
		c0,4.697-2.404,7.045-7.211,7.045c-1.111,0-2.277-0.154-3.496-0.464c-1.215-0.308-1.936-0.595-1.936-0.595
		c-0.51-0.203-0.928-0.816-0.928-1.365v-2.943c0-0.548,0.617-1.099,1.23-0.688c0.924,0.558,2.023,0.754,2.961,0.754
		c0.814,0,1.4-0.178,1.826-0.436C210.901,80.443,211.127,79.711,211.127,79.271z"/>
	<path fill="#FFFFFF" d="M110.156,60.222c-1.212,0-2.354,0.213-3.429,0.641c-1.075,0.426-2.523,1.732-2.523,1.732
		c-0.407,0.367-0.739,0.219-0.739-0.33V54.73c0-0.548-0.448-0.996-0.997-0.996h-4.681c-0.548,0-0.997,0.448-0.997,0.996v23.7
		c0,0.548,0.449,0.996,0.997,0.996h4.681c0.548,0,0.997-0.448,0.997-0.996v-8.904c0.021-0.702,0.326-1.615,0.719-2.138
		c0.361-0.438,0.732-0.833,1.117-1.17c0.642-0.562,1.384-0.843,2.224-0.843c1.075,0,1.804,0.379,2.188,1.132
		c0.384,0.752,0.573,1.582,0.573,2.483c0,0.222-0.002,0.368-0.008,0.435c-0.006,0.068-0.006,0.068-0.006,0.068
		c-0.002,0.082-0.002,0.596-0.002,1.143v7.794c0,0.548,0.446,0.996,0.994,0.996h4.681c0.55,0,0.997-0.448,0.997-0.996V67.842
		C116.94,62.761,114.679,60.222,110.156,60.222z"/>
	<path fill="#FFFFFF" d="M171.543,63.754c-0.487-1.142-1.242-2.017-2.262-2.623c-1.018-0.605-2.282-0.908-3.791-0.908
		c-1.508,0-2.838,0.311-3.992,0.928c-1.158,0.617-2.273,1.532-3.35,2.744c-0.271-0.654-0.634-1.231-1.092-1.725
		c-0.459-0.494-0.967-0.885-1.529-1.168s-1.135-0.484-1.715-0.604c-0.58-0.115-1.193-0.174-1.836-0.174
		c-1.359,0-2.559,0.238-3.596,0.722c-1.039,0.481-2.32,1.647-2.32,1.647c-0.406,0.367-0.739,0.221-0.739-0.326v-0.715
		c0-0.547-0.446-0.995-0.995-0.995h-4.682c-0.547,0-0.996,0.448-0.996,0.995v16.879c0,0.547,0.449,0.996,0.996,0.996h4.682
		c0.549,0,0.995-0.449,0.995-0.996v-8.828c0-0.711,0.364-1.76,0.853-2.356c0.306-0.388,0.576-0.694,0.801-0.907
		c0.258-0.247,0.594-0.471,1.01-0.668c0.414-0.197,0.867-0.296,1.361-0.296c1.038,0,1.762,0.347,2.169,1.038
		c0.406,0.691,0.522,1.953,0.522,1.953c0.048,0.547,0.088,1.441,0.088,1.99v8.073c0,0.548,0.449,0.996,0.998,0.996h4.682
		c0.549,0,0.996-0.448,0.996-0.996v-8.827c0-0.733,0.383-1.824,0.893-2.41l-0.016-0.004c0.301-0.362,0.604-0.686,0.902-0.971
		c0.593-0.562,1.354-0.843,2.281-0.843c0.949,0,1.646,0.331,2.084,0.991c0.441,0.661,0.564,2,0.564,2
		c0.053,0.547,0.094,1.441,0.094,1.99v8.073c0,0.546,0.449,0.996,0.997,0.996h4.681c0.548,0,0.996-0.448,0.996-0.996V67.916
		C172.276,66.285,172.033,64.898,171.543,63.754z"/>
	<path fill="#FFFFFF" d="M192.817,68.193c0.344-0.055,1.322-0.223,2.148-0.223c1.223,0,2.195,0.172,2.92,0.51
		c0.723,0.34,1.232,0.77,1.529,1.289s0.445,1.068,0.445,1.648c0,0.705-0.254,1.389-0.762,2.051c-0.508,0.66-1.389,0.99-2.65,0.99
		c-1.062,0-2.314-0.301-3.754-0.908c-1.439-0.605-2.503-1.27-2.503-1.27c-0.462-0.291-0.843-0.08-0.843,0.469v4.547
		c1.21,0.828,2.539,1.447,3.986,1.854c1.447,0.408,2.957,0.609,4.539,0.609c1.979,0,3.656-0.385,5.035-1.158
		c1.377-0.773,2.408-1.8,3.094-3.086c0.688-1.285,1.027-2.663,1.027-4.134c0-1.422-0.346-2.733-1.043-3.939
		c-0.701-1.204-1.703-2.173-3.014-2.901s-2.832-1.095-4.561-1.095c-0.271,0-0.455,0.006-0.545,0.01
		c-0.096,0.006-0.248,0.018-0.467,0.038c-0.215,0.018-0.215,0.018-0.215,0.018c-0.223,0.025-0.406-0.4-0.406-0.949v-2.42
		c0-0.548,0.453-0.996,0.998-0.996h7.203c0.547,0,0.996-0.449,0.996-0.996v-3.42c0-0.548-0.449-0.996-0.996-0.996h-12.895
		c-0.548,0-0.996,0.448-0.996,0.996V67.67c0,0.436,0.355,0.748,0.791,0.725C192.088,68.385,192.45,68.252,192.817,68.193z"/>
	<path fill="#FFFFFF" d="M175.405,72.22c0,4.695,2.403,7.043,7.211,7.043c0.785,0,1.914-0.253,2.532-0.553
		c0.611-0.297,0.994-0.797,0.994-1.347v-2.657c0-0.549-0.446-0.998-0.994-0.998h-0.363c-0.817,0-1.425,0.11-1.827-0.182
		c-0.4-0.289-0.645-0.652-0.73-1.084c-0.088-0.434-0.098-0.711-0.098-0.711c-0.018-0.547-0.034-1.443-0.034-1.991V54.719
		c0-0.548-0.446-0.996-0.994-0.996h-4.7c-0.547,0-0.996,0.448-0.996,0.996V72.22z"/>
</g>
</svg>
