<?xml version="1.0" encoding="utf-8"?>
<!-- Generator: Adobe Illustrator 15.0.2, SVG Export Plug-In  -->
<!DOCTYPE svg PUBLIC "-//W3C//DTD SVG 1.1//EN" "http://www.w3.org/Graphics/SVG/1.1/DTD/svg11.dtd" [
	<!ENTITY ns_flows "http://ns.adobe.com/Flows/1.0/">
]>
<svg version="1.1"
	 xmlns="http://www.w3.org/2000/svg" xmlns:xlink="http://www.w3.org/1999/xlink" xmlns:a="http://ns.adobe.com/AdobeSVGViewerExtensions/3.0/"
	 x="0px" y="0px" width="300px" height="300px" viewBox="0 0 130 130" overflow="visible" enable-background="new 0 0 130 130"
	 xml:space="preserve">
<defs>
</defs>
<rect fill="#0067B1" width="130" height="130"/>
<path fill="#FFFFFF" d="M37.64,40.528l8.81,29.958l8.813-29.958h6.38h17.507v2.978l-8.993,15.493c3.161,1.016,5.552,2.86,7.17,5.532
	c1.621,2.676,2.433,5.815,2.433,9.418c0,4.459-1.187,8.203-3.556,11.242c-2.371,3.039-5.439,4.559-9.206,4.559
	c-2.836,0-5.308-0.904-7.414-2.705c-2.106-1.803-3.667-4.244-4.679-7.32l4.983-2.07c0.729,1.865,1.691,3.336,2.887,4.408
	s2.604,1.609,4.223,1.609c1.7,0,3.14-0.951,4.315-2.854c1.175-1.904,1.763-4.193,1.763-6.869c0-2.957-0.63-5.248-1.884-6.865
	c-1.46-1.905-3.749-2.86-6.869-2.86h-2.43v-2.916L70.4,46.604H60.13l-0.583,0.995L47.058,89.75h-0.608l-9.114-30.506L28.221,89.75
	h-0.607L13.028,40.528h6.381l8.812,29.958l5.956-20.174l-2.917-9.784H37.64L37.64,40.528z"/>
<path fill-rule="evenodd" clip-rule="evenodd" fill="#FFFFFF" d="M112.256,43.098c0.93,0,1.357,0.259,1.357,0.905
	c0,0.62-0.428,0.84-1.332,0.84h-0.84v-1.745H112.256L112.256,43.098z M112.436,42.453h-1.986v5.27h0.992v-2.248h0.982l1.072,2.248
	h1.111l-1.176-2.402c0.762-0.155,1.201-0.672,1.201-1.421C114.633,42.943,113.91,42.453,112.436,42.453L112.436,42.453z
	 M116.351,45.217c0,1.072-0.413,2.067-1.176,2.803c-0.8,0.775-1.796,1.188-2.894,1.188c-1.033,0-2.054-0.426-2.815-1.202
	c-0.763-0.775-1.188-1.77-1.188-2.829s0.439-2.093,1.229-2.894c0.733-0.749,1.729-1.15,2.813-1.15c1.112,0,2.106,0.415,2.88,1.201
	C115.95,43.085,116.351,44.093,116.351,45.217L116.351,45.217z M112.309,40.528c-1.252,0-2.378,0.452-3.231,1.317
	c-0.901,0.917-1.407,2.105-1.407,3.333c0,1.228,0.478,2.364,1.357,3.255c0.891,0.904,2.041,1.396,3.281,1.396
	c1.213,0,2.389-0.491,3.307-1.382c0.878-0.853,1.355-1.99,1.355-3.269c0-1.24-0.49-2.402-1.342-3.268
	C114.736,41.006,113.572,40.528,112.309,40.528L112.309,40.528z"/>
<path fill="#FFFFFF" d="M104.485,40.25l1.032,6.284l-3.657,6.999c0,0-1.405-2.97-3.738-4.613c-1.966-1.385-3.245-1.686-5.249-1.272
	c-2.572,0.53-5.487,3.605-6.762,7.396c-1.523,4.537-1.536,6.73-1.59,8.748c-0.086,3.238,0.424,5.148,0.424,5.148
	s-2.22-4.11-2.199-10.132c0.013-4.295,0.688-8.191,2.676-12.035c1.748-3.381,4.348-5.409,6.655-5.647
	c2.384-0.247,4.271,0.903,5.728,2.146c1.527,1.307,3.076,4.163,3.076,4.163L104.485,40.25L104.485,40.25z"/>
<path fill="#FFFFFF" d="M104.936,75.807c0,0-1.615,2.889-2.625,4c-1.006,1.115-2.811,3.078-5.037,4.059s-3.393,1.166-5.593,0.953
	s-4.241-1.486-4.959-2.014c-0.718-0.533-2.545-2.096-3.579-3.555c-1.035-1.457-2.651-4.373-2.651-4.373s0.901,2.922,1.464,4.162
	c0.326,0.715,1.323,2.898,2.738,4.799c1.32,1.773,3.885,4.826,7.781,5.516c3.897,0.688,6.575-1.062,7.238-1.482
	c0.664-0.426,2.06-1.594,2.943-2.541c0.922-0.986,1.796-2.248,2.279-3.004c0.354-0.551,0.93-1.672,0.93-1.672L104.936,75.807
	L104.936,75.807z"/>
</svg>
