<?xml version="1.0" encoding="utf-8"?>
<!-- Generator: Adobe Illustrator 16.2.1, SVG Export Plug-In . SVG Version: 6.00 Build 0)  -->
<!DOCTYPE svg PUBLIC "-//W3C//DTD SVG 1.1//EN" "http://www.w3.org/Graphics/SVG/1.1/DTD/svg11.dtd">
<svg version="1.1" id="レイヤー_1" xmlns="http://www.w3.org/2000/svg" xmlns:xlink="http://www.w3.org/1999/xlink" x="0px"
	 y="0px" width="957.023px" height="386.717px" viewBox="0 0 957.023 386.717" enable-background="new 0 0 957.023 386.717"
	 xml:space="preserve">
<g>
	<g>
		<path fill="#040000" d="M351.925,228.843c7.905-21.938,14.541-37.158,14.204-39.799c-0.007-3.122-1.313-5.807-3.421-7.544
			c0.211-0.172,0.412-0.36,0.6-0.563c4.3-4.63,2.933-12.048,0.834-17.778c0.599-2.523,0.454-4.468,0.301-6.512
			c-0.087-1.165-0.186-2.486-0.186-4.289c0-0.454-0.022-0.893-0.068-1.334c-0.021-0.476-0.097-0.945-0.229-1.402
			c-0.531-2.347-1.962-5.219-5.604-7.128c0.327-0.917,0.597-1.785,0.8-2.595c0.836-1.969,1.307-3.362,1.56-4.607
			c0.893-4.388-0.009-8.46-2.479-11.397c-0.468-1.366-1.379-3.107-3.147-4.759c-1.111-2.459-1.99-4.491-2.562-5.912
			c-0.924-2.307-3.542-3.428-5.851-2.504c-2.307,0.924-3.428,3.543-2.504,5.851c0.697,1.741,1.75,4.16,3.129,7.191
			c0.299,0.656,0.751,1.231,1.319,1.677c0.981,0.771,1.125,1.426,1.138,1.499c0.17,0.968,0.652,1.854,1.373,2.522
			c0.848,0.785,1.125,2.257,0.763,4.039c-0.134,0.661-0.502,1.675-1.154,3.193c-0.106,0.248-0.19,0.504-0.254,0.766
			c-0.231,1.009-0.648,2.235-1.237,3.645c-0.396,0.947-0.456,2.001-0.17,2.987l0.817,2.831c0.428,1.476,1.578,2.631,3.053,3.065
			c2.023,0.596,2.155,1.247,2.242,1.678c0.008,0.034,0.017,0.068,0.021,0.102c0.004,0.039,0.008,0.077,0.013,0.116
			c0.021,0.159,0.029,0.315,0.029,0.478c0,2.139,0.122,3.769,0.211,4.959c0.15,2.027,0.196,2.906-0.232,4.314
			c-0.205,0.675-0.248,1.386-0.128,2.076c-0.021,0.616,0.079,1.232,0.308,1.812c1.44,3.694,1.823,6.514,1.68,8.072
			c-0.907-0.204-0.213,2.884-0.419,2.776c-1.327-0.701-0.312-0.004-3.246-0.224c-1.92-0.144-2.364-0.193-3.485,0.479
			c-3.418,2.046-6.521,14.849-3.255,12.635c3.068-2.079,7.914-4.859,8.955-3.486c1.032,1.361-0.163,3.328,1.823,2.586
			c-0.212,0.469-0.959,1.499-1.288,2.178c-4.326,8.905-8.542,19.018-7.011,26.483c0.222,1.079,0.396,4.477-1.421,7.188
			c-1.214,1.809-3.896,4.636-6.479,5.122L351.925,228.843z"/>
	</g>
	<g>
		<path fill="#040000" d="M356.665,163.182c-0.473-1.114-1.05-2.271-1.986-3.291c-0.456-0.505-1.015-0.954-1.49-1.277l-0.588-0.412
			l-0.101-0.077c-0.021-0.016-0.021-0.016-0.036-0.022c0.005,0.038-0.201-0.23-0.187-0.192c-0.4-0.518-0.787-0.924-1.188-1.338
			c-0.4-0.408-0.805-0.8-1.225-1.182c-0.422-0.382-0.852-0.754-1.311-1.116c-0.358-0.275-0.698-0.542-1.148-0.808
			c-0.287-0.702-0.754-1.339-1.296-1.788c-0.69-0.592-1.443-0.941-2.158-1.224c-0.722-0.28-1.425-0.48-2.062-0.692
			c-0.238-0.079-0.46-0.162-0.663-0.248c0.168-0.172,0.325-0.347,0.469-0.523c0.387-0.48,0.702-0.976,0.996-1.476
			c0.583-1.001,1.066-2.023,1.529-3.046l1.328-3.066c0.438-1.006,0.879-2.039,1.419-2.926c0.592-0.893,1.262-1.783,2.052-2.466
			c0.376-0.33,0.896-0.623,1.188-0.505c0.308,0.113,0.416,0.739,0.412,1.242c-0.011,1.071-0.271,2.163-0.564,3.223
			c-0.304,1.064-0.674,2.111-1.081,3.145c0.476-1.004,0.914-2.027,1.289-3.082c0.367-1.052,0.708-2.124,0.795-3.277
			c0.021-0.289,0.014-0.585-0.044-0.891c-0.067-0.292-0.188-0.667-0.569-0.859c-0.375-0.182-0.756-0.088-1.041,0.024
			c-0.299,0.118-0.553,0.281-0.788,0.455c-0.94,0.714-1.678,1.578-2.37,2.486c-0.685,0.971-1.174,1.965-1.691,2.958l-1.519,2.956
			c-0.521,0.969-1.055,1.925-1.647,2.806c-0.299,0.439-0.613,0.858-0.948,1.226c-0.332,0.366-0.702,0.67-1.022,0.82l-0.006,0.003
			c-0.432,0.201-0.61,0.712-0.408,1.139l0.007,0.016c0.299,0.632,0.755,0.924,1.116,1.152c0.376,0.226,0.729,0.382,1.068,0.532
			c0.687,0.293,1.325,0.54,1.906,0.829c0.578,0.286,1.097,0.608,1.451,0.979c0.358,0.371,0.542,0.759,0.614,1.211
			c0.049,0.298,0.222,0.579,0.498,0.752l0.18,0.112c0.243,0.152,0.651,0.488,0.999,0.82c0.361,0.34,0.718,0.708,1.062,1.084
			c0.351,0.378,0.688,0.767,1.013,1.161c0.315,0.389,0.639,0.802,0.867,1.158c0.185,0.249,0.132,0.206,0.324,0.435l0.247,0.269
			l0.201,0.191c0.26,0.236,0.502,0.427,0.688,0.583c0.391,0.322,0.646,0.586,0.892,0.905c0.479,0.621,0.83,1.454,1.117,2.353
			l0.006,0.019c0.016,0.051,0.035,0.101,0.056,0.151c0.393,0.925,1.455,1.359,2.379,0.969
			C356.621,165.172,357.054,164.107,356.665,163.182z"/>
		<path fill="#040000" d="M329.577,142.015c0,0,1.76-4.472,1.465-5.974c-0.297-1.501-7.409-5.857-9.658-9.325
			c-2.247-3.464-4.847-12.702-8.78-13.803c-3.932-1.104-10.018,0.265-12.626,6.392c3.899-0.567,11.054-1.16,13.529,3.314
			C315.982,127.095,321.24,135.423,329.577,142.015z"/>
		<path fill="#040000" d="M339.054,139.338c0,0-1.537-2.863-0.928-4.286c0.607-1.427,3.139-2.481,3.543-3.644
			c0.406-1.161,2.914-10.081,5.536-8.276c2.619,1.807,2.695,3.882,2.695,3.882c-1.208-0.121-3.611,1.398-4.515,2.695
			C344.156,131.493,340.724,135.53,339.054,139.338z"/>
		<path fill="#040000" d="M321.945,143.377c1.034,1.931,0.172,7.203,1.26,8.051l4.429,1.009v-4.606L321.945,143.377z"/>
		<path fill="#040000" d="M350.878,176.146c-0.419-0.244-0.847-0.445-1.258-0.728c-0.428-0.26-0.82-0.55-1.221-0.842
			c-0.776-0.599-1.51-1.268-2.196-1.937c-0.694-0.657-1.37-1.327-2.109-1.663c-0.181-0.096-0.37-0.157-0.56-0.204
			c-0.187-0.073-0.396-0.058-0.582-0.097c-0.201-0.007-0.406,0.006-0.608,0.008l-0.626,0.095c-0.421,0.063-0.813-0.226-0.877-0.647
			l-0.006-0.049l-0.014-0.126c-0.04-0.498,0.011-1.016-0.111-1.479c-0.062-0.483-0.227-0.917-0.399-1.32
			c-0.12-0.18-0.202-0.386-0.336-0.545c-0.148-0.144-0.253-0.33-0.424-0.444c-0.315-0.253-0.662-0.467-1.071-0.58
			c-0.192-0.073-0.399-0.122-0.623-0.145c-0.208-0.049-0.435-0.049-0.656-0.055c-0.444-0.014-0.906,0.047-1.356,0.14
			c-0.453,0.097-0.892,0.251-1.312,0.428c-0.193,0.109-0.405,0.198-0.592,0.315l-0.27,0.177l-0.271,0.162l-0.178,0.102
			c-0.129,0.07-0.214,0.132-0.379,0.208c-0.216,0.083-0.44,0.16-0.667,0.225c-0.237,0.079-0.438,0.094-0.637,0.109
			c-0.203,0.012-0.409,0.041-0.611,0.024c-0.812-0.057-1.605-0.319-2.259-0.775c-0.332-0.217-0.608-0.5-0.885-0.775
			c-0.226-0.306-0.497-0.603-0.651-0.941c-0.362-0.661-0.589-1.377-0.677-2.074c-0.117-0.707-0.078-1.389-0.019-2.058l0.172-0.974
			c0.068-0.32,0.182-0.615,0.271-0.923c0.167-0.63,0.46-1.164,0.702-1.744c0.271-0.55,0.588-1.065,0.881-1.603l0.532,2.495
			c0.012,0.025,0.028,0.042,0.056,0.047l-0.115-0.019c-0.062-0.021-0.245-0.032-0.356-0.052c-0.29-0.027-0.606-0.044-0.938-0.046
			c-0.664,0.002-1.353,0.022-2.049,0.103c-0.694,0.068-1.396,0.177-2.087,0.293c-0.696,0.125-1.386,0.279-2.077,0.431
			c-0.688,0.159-1.37,0.346-2.054,0.521l-2.024,0.603c-0.669,0.215-1.332,0.447-1.991,0.682c-0.664,0.229-1.307,0.504-1.95,0.769
			c-0.65,0.26-1.277,0.563-1.909,0.865c-0.617,0.324-1.229,0.661-1.833,1.01c-0.606,0.347-1.196,0.724-1.768,1.13
			c-0.568,0.404-1.13,0.826-1.684,1.266c-0.532,0.458-1.065,0.926-1.568,1.428c-0.528,0.482-0.979,1.033-1.474,1.569
			c-0.459,0.557-0.925,1.123-1.344,1.73c-0.454,0.589-0.825,1.232-1.261,1.864l-0.014,0.019c-0.065,0.1-0.205,0.125-0.305,0.057
			c-0.075-0.051-0.108-0.141-0.091-0.224c0.146-0.752,0.27-1.535,0.522-2.272c0.205-0.763,0.528-1.477,0.828-2.216
			c0.354-0.707,0.709-1.426,1.146-2.097c0.396-0.701,0.905-1.32,1.395-1.965c0.517-0.616,1.037-1.24,1.627-1.791
			c0.576-0.566,1.187-1.104,1.812-1.609c0.617-0.524,1.294-0.965,1.963-1.419c0.684-0.425,1.371-0.851,2.081-1.228
			c0.706-0.388,1.438-0.72,2.176-1.035c0.729-0.329,1.492-0.586,2.25-0.842c0.758-0.255,1.531-0.457,2.306-0.645
			c0.776-0.184,1.562-0.327,2.352-0.45c1.573-0.24,3.166-0.357,4.773-0.367c0.808-0.01,1.62,0.018,2.457,0.089
			c0.418,0.038,0.854,0.094,1.304,0.178c0.254,0.061,0.447,0.085,0.74,0.182c0.146,0.046,0.271,0.083,0.424,0.144
			c0.193,0.085,0.388,0.182,0.565,0.287c0.821,0.475,1.101,1.525,0.626,2.346l-0.041,0.067l-0.053,0.083
			c-0.261,0.403-0.556,0.802-0.791,1.216c-0.198,0.419-0.478,0.832-0.604,1.258c-0.071,0.211-0.178,0.424-0.231,0.635l-0.155,0.632
			c-0.062,0.412-0.12,0.83-0.077,1.207c0.019,0.387,0.113,0.737,0.249,1.045c0.049,0.172,0.173,0.272,0.243,0.426
			c0.109,0.106,0.202,0.241,0.322,0.327c0.229,0.195,0.498,0.301,0.771,0.36c0.118-0.001,0.317,0.026,0.377,0.004
			c0.037-0.007,0.076-0.003,0.124,0.009c0.087-0.024,0.237-0.108,0.354-0.159l0.185-0.088l0.046-0.022
			c0.028-0.016-0.227,0.134-0.112,0.069l0.008-0.004l0.014-0.008l0.027-0.015l0.105-0.06l0.438-0.238
			c0.293-0.151,0.594-0.258,0.891-0.384c0.604-0.204,1.216-0.362,1.842-0.445c0.626-0.079,1.266-0.11,1.906-0.042
			c0.322,0.034,0.645,0.067,0.963,0.16l0.479,0.121l0.469,0.19c0.624,0.247,1.202,0.656,1.685,1.143
			c0.258,0.23,0.429,0.537,0.633,0.805c0.188,0.281,0.299,0.596,0.439,0.893c0.212,0.612,0.364,1.237,0.389,1.846
			c0.092,0.617-0.014,1.199-0.023,1.792l-0.896-0.822l0.812-0.046c0.276,0.017,0.555,0.028,0.832,0.065
			c0.273,0.071,0.561,0.095,0.822,0.215c0.271,0.095,0.525,0.21,0.764,0.361c0.485,0.278,0.88,0.637,1.245,0.993
			c0.354,0.362,0.681,0.731,0.997,1.094c0.633,0.726,1.251,1.433,1.936,2.083c0.351,0.318,0.697,0.635,1.067,0.919
			c0.353,0.303,0.771,0.563,1.159,0.845l0.007,0.005c0.097,0.071,0.118,0.207,0.047,0.304
			C351.096,176.176,350.972,176.2,350.878,176.146z"/>
		<path fill="#040000" d="M296.552,189.054c-0.149,0.395-0.204,0.739-0.22,1.109c-0.027,0.364,0.001,0.73,0.026,1.095
			c0.051,0.727,0.2,1.453,0.336,2.173c0.289,1.441,0.649,2.875,1.022,4.302c0.385,1.428,0.767,2.854,1.19,4.246
			c0.201,0.697,0.431,1.391,0.65,2.045c0.113,0.322,0.241,0.648,0.355,0.92c0.055,0.146,0.116,0.271,0.151,0.347
			c0.016,0.022,0.053,0.096,0.016,0.042c-0.023-0.025-0.001,0.008-0.068-0.061c-0.091-0.091-0.206-0.164-0.324-0.209l-2.003,0.35
			c0.229-0.191,0.459-0.375,0.693-0.559c0.232-0.174,0.465-0.375,0.701-0.521c0.468-0.286,0.95-0.554,1.423-0.813
			c0.477-0.229,0.967-0.431,1.446-0.645c0.481-0.194,0.979-0.354,1.465-0.523c0.492-0.162,0.983-0.291,1.481-0.421
			c0.493-0.14,1.001-0.228,1.505-0.323c0.498-0.104,1.01-0.181,1.521-0.233c0.506-0.072,1.026-0.103,1.543-0.119
			c-0.84,0.612-1.681,1.174-2.521,1.715l-1.244,0.817c-0.406,0.277-0.834,0.518-1.229,0.801l-1.203,0.796
			c-0.387,0.271-0.764,0.554-1.149,0.81c-0.361,0.276-0.698,0.569-1.061,0.832c-0.174,0.14-0.295,0.287-0.442,0.431
			c-0.146,0.142-0.286,0.278-0.438,0.413l-0.143,0.125c-0.528,0.464-1.272,0.524-1.861,0.222c-0.194-0.104-0.385-0.233-0.552-0.381
			c-0.143-0.129-0.169-0.179-0.255-0.272c-0.167-0.193-0.224-0.295-0.312-0.429c-0.158-0.25-0.271-0.463-0.375-0.67
			c-0.213-0.417-0.354-0.806-0.509-1.196c-0.299-0.773-0.521-1.544-0.729-2.312c-0.396-1.541-0.68-3.1-0.821-4.678
			c-0.146-1.578-0.172-3.179,0.027-4.786c0.098-0.804,0.279-1.605,0.536-2.393c0.146-0.392,0.316-0.771,0.531-1.133
			C295.932,189.603,296.228,189.263,296.552,189.054z"/>
		<path fill="#040000" d="M311.6,171.683c0.288-0.17,1.338-0.794,1.636-0.961c11.792-6.622,27.035-3.329,36.913,2.873
			c0.701,0.441,0.913,1.367,0.477,2.068c-0.44,0.701-1.366,0.913-2.068,0.473c-9.125-5.73-23.13-8.818-33.848-2.798L311.6,171.683z"
			/>
		<path fill="#040000" d="M325.919,153.245c-7.854,0-12.185-3.209-14.842-5.182c-0.546-0.403-1.018-0.751-1.418-1.004
			c-0.854-0.531-1.109-1.65-0.579-2.5c0.526-0.849,1.646-1.111,2.5-0.579c0.524,0.33,1.073,0.737,1.655,1.167
			c2.779,2.061,6.577,4.883,14.285,4.419c1.016-0.058,1.86,0.702,1.92,1.702c0.062,1-0.698,1.86-1.698,1.92
			C327.113,153.227,326.506,153.245,325.919,153.245z"/>
		<path fill="#040000" d="M344.14,153.61c-0.935,0-1.729-0.718-1.807-1.667c-0.082-0.999,0.662-1.875,1.661-1.957
			c0.974-0.08,2.667-0.738,5.209-3.421c0.688-0.727,1.837-0.758,2.562-0.069c0.729,0.689,0.758,1.837,0.069,2.565
			c-2.712,2.862-5.184,4.348-7.548,4.542C344.24,153.608,344.189,153.61,344.14,153.61z"/>
		<path fill="#040000" d="M343.219,145.068c0,1.3-0.025,5.703-0.431,6.36c-0.403,0.657-0.586,0.231-0.586,0.231l-2.027-2.501
			L343.219,145.068z"/>
		<path fill="#040000" d="M326.873,123.52c0,0,0.255,0.198,0.702,0.545c0.438,0.387,1.021,1.013,1.653,1.761
			c0.625,0.763,1.336,1.675,2.018,2.7c0.69,1.016,1.363,2.141,2.003,3.288c0.632,1.146,1.398,2.253,1.866,3.406
			c0.216,0.586,0.375,1.167,0.47,1.743c0.093,0.581,0.17,1.117,0.172,1.652c0.016,0.521-0.009,1.01-0.07,1.458
			c-0.036,0.224-0.058,0.418-0.102,0.617c-0.062,0.196-0.112,0.377-0.161,0.54c-0.084,0.303-0.251,0.584-0.358,0.734
			c-0.104,0.146-0.166,0.223-0.166,0.223c-0.061,0.081-0.175,0.098-0.256,0.038c-0.021-0.018-0.042-0.042-0.055-0.067l-0.036-0.075
			c0,0-0.039-0.081-0.112-0.233c-0.078-0.148-0.146-0.301-0.312-0.557c-0.149-0.239-0.309-0.506-0.525-0.839
			c-0.194-0.324-0.417-0.69-0.658-1.089c-0.446-0.806-0.987-1.749-1.37-2.833c-0.388-1.086-0.559-2.356-0.977-3.541
			c-0.383-1.197-0.839-2.367-1.241-3.48c-0.422-1.104-0.833-2.127-1.215-2.995c-0.206-0.423-0.394-0.811-0.561-1.154
			c-0.185-0.33-0.34-0.618-0.472-0.854c-0.314-0.469-0.5-0.737-0.5-0.737c-0.058-0.083-0.037-0.197,0.045-0.255
			C326.721,123.467,326.811,123.473,326.873,123.52z"/>
		<path fill="#040000" d="M338.04,139.8c0,0-0.181-0.287-0.374-0.774c-0.209-0.49-0.394-1.199-0.535-2
			c-0.13-0.797-0.222-1.699-0.148-2.609c0.042-0.455,0.151-0.921,0.248-1.394c0.108-0.476,0.176-0.958,0.209-1.445
			c0.019-0.482,0.044-0.973,0.016-1.448c-0.021-0.479-0.042-0.954-0.1-1.413c-0.022-0.467-0.146-0.895-0.192-1.329
			c-0.085-0.422-0.188-0.82-0.271-1.195c-0.116-0.367-0.223-0.703-0.314-1c-0.093-0.304-0.217-0.548-0.286-0.768
			c-0.165-0.432-0.263-0.678-0.263-0.678l-0.005-0.014c-0.036-0.095,0.014-0.2,0.105-0.236c0.071-0.028,0.146-0.007,0.2,0.046
			c0,0,0.184,0.198,0.505,0.544c0.157,0.177,0.372,0.381,0.561,0.653c0.199,0.27,0.424,0.574,0.669,0.906
			c0.218,0.351,0.464,0.731,0.707,1.148c0.213,0.428,0.464,0.88,0.649,1.375c0.205,0.49,0.398,1.007,0.54,1.55
			c0.164,0.538,0.266,1.097,0.38,1.657c0.099,0.563,0.197,1.127,0.294,1.682c0.104,0.56,0.139,1.108,0.124,1.634
			c-0.066,1.052-0.401,1.97-0.736,2.732c-0.361,0.757-0.729,1.347-1.061,1.766c-0.313,0.423-0.561,0.656-0.561,0.656
			c-0.093,0.089-0.237,0.086-0.329-0.007C338.058,139.828,338.049,139.814,338.04,139.8z"/>
		<path fill="#040000" d="M293.862,172.738c0,0,0.078,0.222,0.147,0.582c0.002,0.197,0.164,0.356,0.232,0.499
			c0.062,0.122,0.263,0.319,0.354,0.45c0.172,0.145,0.271,0.278,0.462,0.4c0.146,0.129,0.344,0.238,0.505,0.364
			c0.203,0.106,0.362,0.238,0.575,0.344c0.189,0.122,0.406,0.222,0.608,0.341c0.217,0.095,0.42,0.229,0.645,0.316
			c0.112,0.042,0.219,0.107,0.329,0.161c0.113,0.042,0.229,0.081,0.338,0.141c0.228,0.117,0.457,0.167,0.688,0.282
			c0.229,0.079,0.465,0.15,0.698,0.242c0.229,0.056,0.46,0.127,0.678,0.193c0.216,0.065,0.411,0.091,0.584,0.135
			c0.343,0.075,0.581,0.146,0.581,0.146s-0.084,0.208-0.309,0.521c-0.111,0.145-0.24,0.373-0.443,0.524
			c-0.195,0.171-0.433,0.371-0.711,0.55c-0.287,0.145-0.617,0.302-0.984,0.419c-0.367,0.075-0.776,0.191-1.197,0.179
			c-0.424,0.01-0.869-0.014-1.304-0.134c-0.448-0.072-0.863-0.286-1.286-0.467c-0.396-0.245-0.797-0.478-1.125-0.816
			c-0.351-0.295-0.625-0.694-0.866-1.067c-0.222-0.407-0.396-0.81-0.479-1.244c-0.113-0.401-0.079-0.852-0.054-1.206
			c0.095-0.391,0.155-0.68,0.345-0.976c0.158-0.272,0.312-0.499,0.472-0.573C293.65,172.84,293.862,172.738,293.862,172.738z"/>
		<path fill="#040000" d="M318.433,155.334c0,0-0.061,0.017-0.175,0.048c-0.118,0.028-0.28,0.075-0.498,0.1
			c-0.216,0.024-0.501,0.05-0.797,0.048c-0.299-0.002-0.641-0.009-1-0.051c-0.364-0.035-0.75-0.101-1.153-0.189
			c-0.405-0.082-0.815-0.212-1.236-0.362c-0.413-0.171-0.835-0.364-1.242-0.599c-0.411-0.226-0.829-0.454-1.247-0.683
			c-0.838-0.448-1.66-0.925-2.399-1.423c-0.366-0.257-0.729-0.485-1.048-0.744c-0.327-0.248-0.63-0.485-0.896-0.725
			c-0.274-0.228-0.519-0.446-0.723-0.653c-0.208-0.202-0.391-0.373-0.52-0.539c-0.27-0.316-0.422-0.496-0.422-0.496
			c-0.036-0.042-0.03-0.104,0.012-0.14c0.035-0.03,0.085-0.031,0.122-0.004l0.008,0.005c0,0,0.188,0.136,0.514,0.374
			c0.158,0.123,0.37,0.249,0.604,0.399c0.23,0.155,0.503,0.314,0.808,0.477c0.596,0.338,1.326,0.674,2.104,1.027
			c0.789,0.335,1.628,0.691,2.488,0.999c0.429,0.159,0.864,0.292,1.301,0.411c0.432,0.125,0.858,0.234,1.257,0.382
			c0.796,0.289,1.51,0.648,2.122,0.959c0.306,0.164,0.583,0.313,0.832,0.454c0.25,0.149,0.451,0.257,0.632,0.375
			c0.368,0.212,0.586,0.357,0.586,0.357c0.05,0.032,0.063,0.099,0.033,0.15C318.48,155.31,318.457,155.326,318.433,155.334z"/>
		<path fill="#040000" d="M345.71,154.745c-0.644,0-1.263-0.339-1.591-0.94c-0.483-0.878-0.164-1.981,0.714-2.464
			c1.34-0.739,7.979-4.272,11.507-1.036c-0.125,0.568-0.195,1.983,0.333,2.582c-0.678,0.739-1.826,0.788-2.564,0.11
			c-1.146-1.054-5.178,0.231-7.522,1.523C346.305,154.672,346.006,154.745,345.71,154.745z"/>
		<path fill="#040000" d="M269.479,156.097c0,0,0.002,0.082,0.006,0.24c0.014,0.158,0.003,0.392-0.028,0.709
			c-0.078,0.618-0.243,1.528-0.586,2.629c-0.333,1.104-0.768,2.427-1.292,3.901c-0.504,1.482-1.062,3.145-1.529,4.93
			c-0.475,1.78-0.835,3.713-0.817,5.609c0.01,1.904,0.5,3.68,1.562,5.152c0.116,0.193,0.285,0.361,0.428,0.542
			c0.066,0.076,0.164,0.208,0.202,0.239l0.309,0.34c0.438,0.498,0.748,0.787,1.166,1.198c0.813,0.786,1.694,1.537,2.605,2.259
			c1.834,1.422,3.83,2.738,5.882,3.665c1.016,0.474,2.045,0.855,3.009,1.064c0.957,0.205,1.854,0.264,2.405,0.099
			c0.562-0.151,0.859-0.345,1.224-0.91c0.354-0.556,0.589-1.458,0.721-2.425l0.073-0.744l0.021-0.775
			c0.021-0.498-0.005-1.154,0.005-1.715c0.003-1.164,0.006-2.302,0.009-3.411c0.037-2.228,0.075-4.331,0.187-6.284
			c0.081-1.945,0.257-3.746,0.411-5.331c0.104-0.8,0.187-1.545,0.3-2.231c0.104-0.687,0.264-1.323,0.374-1.887
			c0.095-0.565,0.279-1.07,0.416-1.498c0.128-0.431,0.26-0.79,0.402-1.07c0.271-0.553,0.411-0.849,0.411-0.849
			s-0.029,0.324-0.088,0.933c-0.047,0.294-0.055,0.665-0.039,1.104c0.021,0.438-0.015,0.92,0.044,1.483
			c0.06,1.11,0.24,2.459,0.399,4c0.217,1.549,0.461,3.296,0.728,5.203c0.253,1.911,0.528,3.98,0.819,6.169
			c0.134,1.101,0.271,2.23,0.413,3.386c0.063,0.6,0.146,1.113,0.188,1.801l0.068,1.01l-0.005,1.057
			c-0.049,1.427-0.254,2.997-1.07,4.643c-0.379,0.819-1.018,1.624-1.766,2.311c-0.79,0.643-1.716,1.181-2.648,1.436
			c-1.887,0.577-3.627,0.44-5.166,0.136c-1.548-0.317-2.949-0.829-4.271-1.429c-2.626-1.233-4.944-2.809-7.026-4.593
			c-1.048-0.884-2.024-1.833-2.932-2.841c-0.439-0.487-0.975-1.1-1.314-1.548l-0.282-0.361c-0.16-0.201-0.23-0.324-0.349-0.49
			c-0.209-0.315-0.433-0.612-0.606-0.951c-1.56-2.616-1.91-5.677-1.561-8.166c0.337-2.524,1.152-4.657,2.021-6.488
			c0.865-1.84,1.831-3.381,2.68-4.729c0.838-1.35,1.634-2.472,2.235-3.418c0.597-0.947,1.062-1.695,1.312-2.239
			c0.119-0.267,0.221-0.483,0.266-0.635C269.454,156.174,269.479,156.097,269.479,156.097z"/>
		<path fill="#040000" d="M283.206,208.932c-0.521-0.178-35.483,12.146-44.306,69.274l-0.141,0.911l0.896,0.214
			c7.636,1.823,20.063,28.978,24.209,39.288l0.37,0.922l0.926-0.365c13.115-5.193,8.5-23.652,4.792-38.484
			c-1.438-5.74-2.793-11.168-2.691-14.49c0.398-12.916,7.453-22.561,20.97-28.656l2.11-0.951L283.206,208.932z"/>
		<path fill="#040000" d="M315.898,199.32c0,0,0.396-0.306,1.108-0.762c0.728-0.445,1.8-1.042,3.13-1.623
			c2.659-1.171,6.42-2.232,10.32-2.519c0.97-0.089,1.955-0.081,2.916-0.089c0.48,0.019,0.963,0.045,1.436,0.08
			c0.474,0.021,0.939,0.062,1.398,0.141c0.917,0.116,1.797,0.271,2.623,0.493c0.826,0.183,1.592,0.456,2.287,0.718
			c0.696,0.232,1.307,0.574,1.84,0.85c0.266,0.144,0.517,0.263,0.735,0.396c0.219,0.149,0.413,0.289,0.595,0.414
			c0.706,0.5,1.068,0.817,1.068,0.817s-0.507-0.031-1.331-0.146c-0.2-0.028-0.43-0.06-0.675-0.093
			c-0.253-0.008-0.518-0.039-0.802-0.062c-0.569-0.041-1.19-0.113-1.885-0.123c-0.688-0.027-1.417-0.078-2.201-0.062
			c-0.774-0.029-1.594-0.005-2.439,0.012c-0.841-0.014-1.721,0.087-2.604,0.086c-0.89,0.089-1.79,0.082-2.694,0.188
			c-0.903,0.051-1.809,0.142-2.704,0.22c-0.896,0.083-1.776,0.166-2.634,0.245c-1.729,0.169-3.345,0.326-4.729,0.463
			c-1.405,0.12-2.581,0.225-3.426,0.275C316.395,199.314,315.898,199.32,315.898,199.32z"/>
		<path fill="#040000" d="M269.921,321.641c-0.888-0.604,9.939-11.559,10.059-12.627c1.392-12.623,2.004-21.093,1.289-29.688
			c-1.433-17.188,3.788-51.019,10.81-63.426c0.396-0.705,1.199-0.547,1.989-0.729s4.282,0.562,4.953,1.017l9.268,4.185
			c1.083,0.731,2.813,1.521,2.394,2.758c-13.727,40.207-16.17,59.224-13.477,79.791c0.154,1.204-0.451,2.379-1.525,2.944
			C295.678,305.863,282.138,312.418,269.921,321.641z"/>
		<path fill="#040000" d="M329.231,143.306c0,0,0.087,0.824,0.24,2.267c0.038,0.36,0.08,0.76,0.126,1.195
			c0.021,0.217,0.043,0.443,0.066,0.678c0.011,0.117,0.021,0.237,0.035,0.358l0.009,0.091l0.004,0.046l0.002,0.023
			c0.007-0.033-0.053,0.325-0.029,0.179l-0.003,0.011c-0.017,0.027,0.024,0.03-0.131,0.222c-0.065,0.07-0.149,0.125-0.225,0.157
			l-0.103,0.028c-0.479,0.084-0.688,0-0.997-0.038c-0.282-0.052-0.562-0.118-0.846-0.192c-0.143-0.039-0.284-0.079-0.429-0.119
			l-0.11-0.033c-0.146-0.057-0.097-0.043-0.154-0.069l-0.194-0.098c-0.262-0.111-0.568-0.354-0.86-0.541
			c-1.074-0.774-2.11-1.598-3.218-2.521c-1.109-0.909-2.237-1.907-3.407-2.939c-2.34-2.063-4.752-4.351-7.122-6.703
			c-1.195-1.169-2.368-2.36-3.521-3.567c-0.574-0.603-1.146-1.212-1.684-1.864c-0.271-0.308-0.539-0.654-0.79-1.01
			c-0.254-0.343-0.535-0.756-0.642-0.883c-0.155-0.212-0.334-0.404-0.448-0.493c-0.11-0.1-0.146-0.039,0.216-0.035
			c0.169-0.023,0.354-0.077,0.438-0.164c0.073-0.053,0.08-0.083,0.057-0.064c-0.057,0.035-0.182,0.257-0.282,0.468
			c-0.199,0.477-0.362,1.074-0.479,1.671c-0.144,0.595-0.246,1.2-0.333,1.788c-0.173,1.179-0.32,2.292-0.434,3.286
			c-0.119,1.001-0.229,1.874-0.313,2.593c-0.187,1.448-0.329,2.289-0.329,2.289c-0.015,0.102-0.109,0.172-0.211,0.157
			c-0.072-0.011-0.129-0.066-0.151-0.13c0,0-0.061-0.203-0.175-0.584c-0.115-0.382-0.27-0.943-0.433-1.664
			c-0.172-0.72-0.352-1.599-0.507-2.62c-0.15-1.021-0.308-2.181-0.35-3.479c-0.037-1.312-0.069-2.704,0.394-4.434
			c0.146-0.45,0.275-0.912,0.652-1.468c0.192-0.275,0.451-0.573,0.824-0.845c0.399-0.269,0.931-0.496,1.479-0.51
			c1.122-0.034,1.783,0.436,2.269,0.79c0.485,0.383,0.823,0.77,1.135,1.174c0.354,0.497,0.491,0.744,0.698,1.039
			c0.196,0.292,0.382,0.597,0.615,0.906c0.435,0.616,0.887,1.254,1.371,1.888c0.945,1.277,2.003,2.53,3.053,3.786
			c2.146,2.479,4.381,4.896,6.484,7.153c1.055,1.125,2.093,2.197,3.077,3.207c0.979,1.007,1.957,1.961,2.816,2.736
			c0.216,0.166,0.349,0.354,0.622,0.51l0.188,0.119c0.007,0.008,0.112,0.065,0.037,0.033l0.098,0.04l0.385,0.152
			c0.255,0.096,0.504,0.184,0.742,0.254c0.213,0.071,0.521,0.119,0.543,0.12c-0.003,0.002,0.002,0.004-0.006,0.009
			c-0.05,0.015-0.107,0.053-0.146,0.106c-0.036,0.032-0.062,0.161-0.05,0.118l0.019-0.043l0.007-0.011
			c0.022-0.153-0.03,0.197-0.024,0.157v-0.023v-0.046l0.001-0.092c0.001-0.122,0.002-0.242,0.003-0.359
			c0.002-0.235,0.004-0.462,0.005-0.68c0.007-0.436,0.018-0.836,0.021-1.198c0.021-1.447,0.039-2.274,0.039-2.274
			c0.001-0.1,0.084-0.18,0.185-0.178c0.092,0.001,0.168,0.072,0.177,0.162L329.231,143.306L329.231,143.306z"/>
		<path fill="#040000" d="M351.815,96.973c-5.813-11.068-16.007-23.326-47.479-30.322c-2.076-0.461-4.219-0.805-6.404-1.055
			c-4.26-6.533-15.446-10.56-24.544-8.243v0.001c0,0-0.001,0-0.002,0c0,1.632,0.057,3.944-1.862,5.948
			c-1.493,1.559-4.183,2.931-9.021,3.652c-3.869,0.576-8.178,3.304-11.98,7.224c-7.078,7.295-12.393,18.732-9.796,28.176
			c1.327,3.539,3.614,5.28,5.105,4.054c0.344-0.282,0.646-0.722,0.884-1.334c0.794-2.041,1.345-3.749,2.23-4.759
			c0.039-0.044,0.087-0.072,0.127-0.114c0.104,0.086,0.204,0.177,0.321,0.25l0.511,0.315c2.736,1.697,5.584,3.362,8.146,3.941
			c0.007-0.004,0.016-0.008,0.022-0.013c0.016,0.004,0.032,0.01,0.049,0.014c-0.752,3.358-1.93,10.125-0.972,16.426
			c1.248,8.196,4.255,17.132,7.847,23.32c0.617,1.063,0.476,1.783,0.315,2.232c-0.741,2.082-4.213,3.794-5.368,4.229
			c-0.591,0.221-1.025,0.733-1.146,1.352l-1.634,8.346c-0.139,0.706,0.153,1.426,0.743,1.837c0.59,0.411,1.366,0.436,1.979,0.062
			c4.306-2.618,9.593-5.89,10.321-6.618c1.078-1.078,3.268-5.72,2.712-9.919c0.188-8.353,3.289-12.949,8.729-12.949
			c2.571,0,4.826,1.084,5.467,1.866c2.579,3.162,3.363,4.37,2.695,8.739c-0.337,2.204-0.96,5.16-1.562,8.02
			c-1.755,8.326-1.862,9.395-1.039,10.41c0.344,0.425,0.943,0.715,1.493,0.715c2.994,0,7.945-7.366,11.744-23.538
			c3.229-13.768,1.47-27.444,0.521-34.792c-0.075-0.583-0.146-1.144-0.212-1.667c6.859,3.486,22.547,10.964,30.013,13.452
			c1.665,0.556,3.646,0.849,5.728,0.849c5.239,0,12.521-1.922,15.797-7.339C353.81,107.221,354.964,102.96,351.815,96.973z"/>
		<path fill="#040000" d="M209.458,285.632c0.103,0.022,0.207,0.033,0.311,0.033c0.361,0,0.714-0.132,0.991-0.374
			c0.356-0.312,0.543-0.776,0.505-1.248c-0.012-0.15-1.112-15.202,7.442-30.915c2.276-4.183,4.959-9.043,7.802-14.195
			c8.384-15.192,17.886-32.417,22.899-42.848c6.795-14.145,11.015-29.851,11.576-43.093c0.022-0.526-0.232-1.026-0.673-1.316
			c-0.439-0.291-0.999-0.327-1.475-0.1c-0.484,0.232-4.773,2.312-6.336,3.707c-0.207,0.185-0.359,0.423-0.438,0.689
			c-2.789,9.321-13.389,36.532-21.645,51.249c-1.969,3.51-4.646,8.11-7.618,13.137c-0.439,2.811-0.965,5.646-1.582,8.515
			c4.828-8.087,9.282-15.664,11.816-20.183c8.228-14.666,18.754-41.59,21.768-51.413c0.683-0.51,1.861-1.193,3.028-1.82
			c-0.957,12.166-5.036,26.653-11.125,39.328c-4.977,10.354-14.457,27.537-22.821,42.695c-2.846,5.158-5.53,10.023-7.81,14.211
			c-7.232,13.283-7.911,25.846-7.871,30.604L209.458,285.632z"/>
		<path fill="#040000" d="M310.738,146.484c-0.047,0-0.095-0.005-0.143-0.014c-0.393-0.078-0.648-0.46-0.57-0.854
			c0.201-1.011-0.189-10.543-2.967-15.476c-0.196-0.35-0.072-0.792,0.277-0.989c0.35-0.195,0.792-0.072,0.989,0.277
			c3.021,5.378,3.376,15.207,3.125,16.471C311.382,146.245,311.079,146.484,310.738,146.484z"/>
		<g>
			<path fill="#040000" d="M316.609,162.93c0.204-0.102,0.408-0.198,0.612-0.281c0.602-0.274,1.224-0.516,1.938-0.754
				c0.652-0.224,1.313-0.401,1.934-0.559c1.093-0.268,2.246-0.468,3.518-0.609c0.423-0.044,0.817-0.072,1.186-0.097l0.267-0.019
				l1.152-0.028l0.138,0.001c-0.09,0.246-0.16,0.53-0.163,0.847c-0.003,0.36,0.079,0.692,0.182,0.982l-0.354-0.063l-0.989-0.14
				l-0.273-0.027c-0.334-0.032-0.704-0.068-1.102-0.092c-0.501-0.027-1.039-0.045-1.61-0.045c-0.625,0-1.238,0.022-1.824,0.066
				c-0.619,0.053-1.271,0.113-1.943,0.225c-0.724,0.113-1.377,0.248-1.986,0.413C317.059,162.799,316.833,162.861,316.609,162.93z"
				/>
		</g>
		<g>
			<path fill="#040000" d="M222.042,224.763c13.792-23.618,29.009-52.607,32-70.423c-1.996-1.18-11.433-1.725-22.318,3.175
				c-1.434,6.651-4.065,15.007-7.167,23.485C225.177,194.218,224.971,209.045,222.042,224.763z"/>
		</g>
		<g>
			<path fill="#040000" d="M221.912,90.181c-5.249-1.296-12.753-2.826-21.441-4.597c-21.621-4.407-46.557-8.327-53.479-12.305
				c-5.647-3.245-13.437-12.636-13.437-12.636v42.98l2.887-0.453c0.072-0.011,7.328-1.134,15.497-1.134
				c2.813,0,5.43,0.133,7.776,0.395c0.868,0.097,2.082,0.22,3.594,0.374c10.668,1.083,32.05,3.617,53.836,8.996l8.312,2.052
				l6.702-21.142L221.912,90.181z"/>
			<path fill="#040000" d="M174.467,188.812c-8.28-4.485-19.621-10.627-46.266-10.627c-0.945,0-1.91,0.008-2.886,0.023v-27.644
				c7.779,0.521,18.754,1.095,29.308,1.095c13.27,0,21.927-0.924,25.729-2.747l0.479-0.229l1.592-17.046l0.142-1.639l-1.489,0.713
				c-0.063,0.03-1.627,0.756-7.859,1.739c-3.334,0.527-11.7,0.868-21.315,0.868c-12.837,0-26.224-0.589-37.69-1.661l-8.839-0.826
				v69.085l11.013-1.156c4.452-0.467,8.728-0.705,12.711-0.705c18.134,0,26.985,4.918,31.784,7.585
				c0.51,0.284,0.983,0.548,1.431,0.785c-0.903,11.444-4.704,23.089-10.731,32.854c-6.136,9.938-13.143,14.084-15.687,15.34
				c-2.526-1.232-9.485-5.328-15.666-15.34c-4.8-7.775-8.08-16.356-9.746-25.508l-0.144-0.789l-0.801,0.021
				c-2.627,0.064-5.382-0.244-8.135-0.921c-3.762-0.925-7.312-2.476-10.268-4.479l-1.644-1.113l0.186,1.979
				c1.262,13.421,6.347,28.047,14.32,41.184l0.484,0.801c4.822,7.966,5.69,9.397,29.265,29.371l2.159,1.822l2.159-1.826
				c23.576-19.972,24.445-21.402,29.263-29.365l0.486-0.803c9.3-15.324,14.633-32.643,14.633-47.506v-9.623l-2.135-0.823
				C178.502,190.998,176.643,189.991,174.467,188.812z"/>
		</g>
		<path fill="#040000" d="M410.14,255.222c3.771-12.399,2.396-14.806,1.87-15.726c-0.768-1.346-1.827-2.456-8.279-4.791
			c1.581-4.422,1.705-7.95,0.363-10.514c-1.029-1.965-3.785-4.636-15.497-8.269c12.564-15.409,30.662-39.471,30.662-50.22
			c0-6.383-9.591-28.501-19.8-28.501c-0.35,0-0.696,0.023-1.038,0.07c-6.651,0.918-15.146,15.108-43.287,72.322
			c-5.149,10.469-9.216,18.738-10.896,21.557c-1.394,2.338-2.335,3.067-3.228,3.299c-1.045-3.322-1.701-7.396-1.869-11.696
			c-0.253-6.466-1.52-12.349-1.573-12.595l-0.196-0.916l-0.523-0.771c-0.118-0.174-2.921-4.298-6.334-7.09
			c-3.531-2.887-7.742-3.198-9.388-3.198c-0.367,0-0.572,0.017-0.571,0.017l-3.577,0.233l-0.823,3.472
			c-0.051,0.213-5.438,22.973-8.76,39.272l-0.161,0.79l5.502,42.141l0.357,0.724c3.777,7.633,7.539,13.137,10.034,16.788
			c0.566,0.832,1.342,1.963,1.832,2.734c-1.356,6.037-1.219,9.704,0.429,11.812c1.036,1.327,2.587,2.088,4.257,2.088h45.311
			c3.2,0,6.112-2.294,10.676-13.643c0.802-1.062,2.457-3.289,4.479-6.013c2.354-3.163,5.434-7.305,7.659-10.268
			c0.842-1.005,1.694-2.104,2.537-3.269l13.74-10.298l-0.066-2.502C413.95,271.271,413.613,262.674,410.14,255.222z
			 M405.921,242.986c-0.127,1.97-1.416,7.668-2.812,11.82c-11.5,18.729-21.286,30.618-23.688,30.91
			c-2.258-0.318-2.615-1.363-3.271-3.908c-0.317-1.238-0.68-2.619-1.458-3.887c11.959-17.191,15.776-24.816,18.338-29.939
			c1.593-3.18,2.629-5.238,4.827-8.07C401.126,241.007,404.586,242.295,405.921,242.986z M384.623,294.525
			c-2.354,3.166-4.388,5.898-4.816,6.449l-0.178,0.229l-0.106,0.27c-1.601,4.047-3.916,8.811-5.021,9.951H330.84
			c0.01-1.456,0.464-4.352,1.135-7.036l0.078-0.312l-0.023-0.32c-0.1-1.367-1.153-2.913-3.261-5.993
			c-2.35-3.438-5.884-8.608-9.4-15.666l-5.208-39.881c2.797-13.69,6.979-31.649,8.26-37.097c1.076,0.156,2.548,0.558,3.769,1.556
			c2.149,1.758,4.136,4.415,4.782,5.319c0.271,1.354,1.15,6.07,1.344,11.023c0.255,6.521,1.51,12.575,3.528,17.049l0.463,1.024
			l1.117,0.137c0.859,0.105,1.633,0.156,2.366,0.156c4.479,0,7.471-1.951,10.32-6.735c1.822-3.057,5.947-11.439,11.171-22.06
			c6.613-13.449,14.849-30.186,22.24-43.934c11.712-21.777,15.145-24.358,15.837-24.614c0.034-0.004,0.068-0.006,0.104-0.006
			c1.41,0,4.499,2.702,7.945,8.636c3.261,5.613,5.02,10.903,5.02,13.031c0,9.526-24.363,40.393-33.784,51.523l-8.441,9.146
			l2.938,2.714l7.658-8.293c7.723,2.088,16.217,5.127,17.247,6.569c0.683,1.305-0.792,5.81-2.562,9.113
			c-2.994,3.67-4.275,6.219-6.024,9.717c-2.61,5.219-6.539,13.075-19.478,31.492c-0.866,0.19-2.939,0.321-5.411-1.756
			c-3.919-3.294-5.625-9.583-4.664-11.943c0.662-1.631,6.83-5.533,12.175-8.158l1.188-0.584l-0.071-1.321
			c-0.572-10.308,6.25-17.296,6.312-17.361l3.434-3.417h-10.878v4h1.923c-2.18,3.271-4.865,8.729-4.825,15.674
			c-3.741,1.908-11.565,6.234-12.961,9.664c-1.813,4.459,1.003,12.482,5.795,16.514c2.646,2.226,5.144,2.787,6.993,2.787
			c1.399,0,2.423-0.32,2.858-0.487c0.158,0.479,0.295,0.989,0.435,1.519c0.671,2.603,1.59,6.164,6.584,6.868
			c0.172,0.024,0.349,0.038,0.532,0.038c0.751,0,1.641-0.23,2.781-0.939c0.526,1.611,1.587,3.115,3.549,3.805
			c0.098,0.031,0.192,0.049,0.288,0.072C385.559,293.266,385.097,293.887,384.623,294.525z M395.611,280.044l-0.311,0.289
			c-0.331,0.38-1.24,1.562-2.562,3.317c-2.395,2.854-4.777,5.03-5.763,5.125c-1.092-0.449-1.237-2.094-1.229-3.009
			c2.44-2.483,5.662-6.438,10.047-12.633c3.559-5.026,6.873-10.133,8.878-13.29c1.73,4.568,2.263,9.52,2.415,11.602L395.611,280.044
			z"/>
		<path fill="#040000" d="M217.113,125.233c-4.893-0.4-9.391-1.254-13.059-2.383l-0.727,1.214
			c-7.544,12.575-7.633,72.243-7.633,72.844v8.387c0,18.171-6.447,39.218-17.691,57.747l-0.547,0.903
			c-6.291,10.392-13.991,19.468-34.735,35.11c-1.68,1.271-5.002,3.336-6.833,4.456c-1.83-1.119-5.151-3.188-6.833-4.456
			c-19.882-14.995-27.537-23.757-33.442-33.032l-1.751-2.75l-0.001,0.002c-3.668,1.131-8.167,1.982-13.059,2.385
			c-9.254,0.759-17.38-0.315-21.275-2.51c4.376,3.358,12.561,13.672,21.681,23.778c3.334,4.172,7.449,8.281,11.923,12.235
			c2,1.839,3.987,3.533,5.933,5.01c0.007,0.005,0.013,0.009,0.02,0.014c5.297,4.293,10.8,8.344,15.888,12.02
			c3.485,2.518,8.842,6.039,11.236,7.389c2.488,1.404,8.192,5.387,8.249,5.426l1.432,1.002l1.432-1.002
			c0.058-0.039,5.761-4.021,8.248-5.426c2.399-1.354,7.757-4.875,11.238-7.389c18.393-13.287,30.616-25.857,39.635-40.758
			l0.542-0.896c13.29-21.896,20.912-47.144,20.912-69.26v-8.388c0-16.57,1.242-34.01,2.604-46.493
			c0.72-6.07,2.346-9.639,4.348-14.122c2.044-4.577,5.954-9.54,9.605-12.078C230.103,125.354,223.917,125.79,217.113,125.233z"/>
		<g>
			<path fill="#040000" d="M353.891,184.281c-2.644,0-5.221,1.795-7.205,4.974c-2.605-0.95-5.777-1.431-9.452-1.431
				c-10.515,0-23.48,3.966-31.825,7.523l-2.177-2.053c-1.67-7.545,1.45-13.703,9.527-18.802l37.807,2.936
				c0.741,0.369,2.6,1.141,5.429,1.297c0.449,0.021,0.879-0.15,1.182-0.477c3.337-3.594,0.646-11.42-0.604-14.492
				c0.843-2.493,0.724-4.081,0.551-6.401c-0.088-1.183-0.198-2.656-0.198-4.625c0-0.351-0.021-0.691-0.062-1.035
				c0-0.013,0-0.026,0-0.04c0-0.18-0.03-0.352-0.091-0.512c-0.681-3.37-3.484-4.545-5.383-5.104l-0.82-2.831
				c0.688-1.641,1.183-3.106,1.475-4.364c0.802-1.859,1.229-3.084,1.434-4.079c0.688-3.383-0.099-6.368-2.112-8.235
				c-0.144-0.812-0.688-2.613-2.793-4.262c-1.439-3.167-2.518-5.646-3.17-7.302l-3.325-0.343c0.692,2.046,2.516,6.146,3.925,9.236
				c0.105,0.237,0.273,0.442,0.485,0.594c0.994,0.717,1.479,1.443,1.715,1.948c-0.043,0.092-0.074,0.189-0.101,0.29
				c-0.142,0.619,0.121,1.26,0.657,1.602c1.647,1.049,2.312,3.245,1.779,5.874c-0.206,1.014-0.807,2.463-1.305,3.612
				c-0.037,0.087-0.064,0.178-0.088,0.271c-0.271,1.23-0.792,2.732-1.542,4.466c-0.138,0.32-0.161,0.678-0.062,1.013l1.2,4.151
				c0.146,0.507,0.552,0.899,1.062,1.034c2.454,0.644,3.755,1.312,4.059,3.175c0.044,0.277,0.064,0.552,0.064,0.84
				c0,2.081,0.115,3.615,0.207,4.848c0.173,2.318,0.26,3.481-0.569,5.694c-0.135,0.362-0.126,0.762,0.026,1.117
				c2.077,4.852,2.744,9.29,1.761,11.272c-2.243-0.254-3.512-0.954-3.519-0.954l0,0c0,0,0,0-0.001,0l-1.618-1.08
				c-0.674-0.452-1.585-0.282-2.057,0.379c-0.05,0.069-0.093,0.141-0.128,0.214l-35.521-2.758c-0.316-0.022-0.631,0.052-0.901,0.218
				c-9.649,5.93-13.415,13.583-11.183,22.749c0.067,0.281,0.217,0.537,0.428,0.736l3.222,3.041c0.439,0.414,1.084,0.524,1.638,0.281
				c8.021-3.535,21.092-7.667,31.531-7.667c3.857,0,7.045,0.565,9.477,1.681c0.727,0.332,1.583,0.04,1.954-0.667
				c1.761-3.359,3.854-4.556,5.228-4.556c1.109,0,1.821,0.741,1.896,1.949c-0.164,0.415-0.64,1.391-1.099,2.334
				c-2.767,5.698-8.522,17.556-6.892,25.528c0.32,1.555,0.388,5.296-1.645,8.326c-1.432,2.131-3.649,3.492-6.602,4.049
				c-0.627,0.119-1.517-0.319-2.089,0.179c-1.169,1.017-1.187-0.034-1.89-0.108v3.012c1.688,0.156,3.208,0.119,4.535-0.131
				c3.771-0.711,6.642-2.504,8.533-5.327c2.581-3.849,2.529-8.476,2.094-10.603c-1.431-6.976,4.232-18.635,6.65-23.612
				c0.888-1.826,1.251-2.587,1.367-3.1c0.025-0.107,0.037-0.22,0.037-0.332C358.794,186.454,356.731,184.281,353.891,184.281z"/>
			<path fill="#040000" d="M315.62,222.332c-2.246-1.146-4.659-2.444-7.294-3.954l-0.193-0.111
				c-4.254-2.433-9.025-3.771-13.433-3.771c-2.367,0-4.618,0.378-6.69,1.125c-0.032,0.011-0.063,0.021-0.095,0.037
				c-5.979,2.625-12.751,7.022-19.077,12.392c-0.398,0.338-0.592,0.86-0.511,1.376c0.082,0.518,0.426,0.954,0.906,1.152
				l17.546,7.248c4.621,8.084,3.511,18.076,2.435,27.75c-0.378,3.398-0.736,6.611-0.83,9.666c-0.05,1.632,0.124,3.713,0.326,6.123
				c0.597,7.137,1.407,16.812-3.175,21.8c-4.573-0.595-11.312,5.142-17.224,10.195c-1.009,0.864-1.981,1.698-2.895,2.454
				c-3.284-7.893-14.792-34.199-23.922-38.466c-0.043-0.389-0.201-0.757-0.467-1.071c-0.708-0.84-2.118-1.215-4.572-1.215
				c-5.846,0-17.951,2.334-26.947,7.521l-0.047,3.055c0.368,0.079,0.751,0.013,1.075-0.18c8.46-5.044,20.468-7.396,25.92-7.396
				c0.97,0,1.577,0.069,1.94,0.141c-0.08,0.746,0.407,1.439,1.144,1.617c2.04,0.486,6.718,3.737,15.138,20.033
				c4.912,9.506,8.687,18.861,8.723,18.954c0.177,0.438,0.548,0.77,1.003,0.892c0.128,0.031,0.259,0.051,0.389,0.051
				c0.331,0,0.657-0.11,0.924-0.318c1.368-1.068,2.911-2.391,4.545-3.789c4.695-4.018,11.126-9.521,14.562-9.521
				c0.261,0,0.495,0.035,0.692,0.104c0.521,0.185,1.104,0.062,1.514-0.313c6.258-5.788,5.339-16.773,4.668-24.793
				c-0.194-2.318-0.362-4.32-0.316-5.78c0.09-2.935,0.441-6.087,0.812-9.427c1.097-9.854,2.34-21.022-3.093-30.049
				c-0.166-0.273-0.416-0.488-0.712-0.611l-15.706-6.488c7.339-5.918,13.32-8.982,16.39-10.333
				c5.099-1.817,11.803-0.851,17.566,2.447l0.191,0.108c3.101,1.776,6.023,3.345,8.786,4.719L315.62,222.332L315.62,222.332z"/>
		</g>
	</g>
</g>
<g>
	<g>
		<g>
			<path fill="#040000" d="M897.27,161.09c0,3.646-1.298,6.746-3.9,9.293c-2.611,2.547-5.708,3.821-9.295,3.821
				c-2.436,0-4.65-0.58-6.647-1.738c-1.999-1.157-3.575-2.732-4.729-4.735c-1.161-1.993-1.739-4.208-1.739-6.641
				c0-3.592,1.272-6.688,3.826-9.291c2.548-2.605,5.644-3.909,9.293-3.909c3.586,0,6.683,1.304,9.295,3.909
				C895.969,154.403,897.27,157.498,897.27,161.09z"/>
		</g>
	</g>
	<path fill="#040000" d="M574.367,231.419c2.371-1.593,4.755,0.536,4.755,2.647v11.373c0,2.116-1.609,4.491-3.577,5.272
		c0,0-2.786,1.106-7.488,2.302c-4.699,1.194-9.198,1.786-13.494,1.786c-18.572,0-27.852-9.069-27.852-27.208v-25.22
		c0-2.118-1.734-3.851-3.851-3.851h-3.977c-2.115,0-3.849-1.015-3.849-2.257c0-1.241,1.214-3.491,2.697-5.003l29.189-29.738
		c1.485-1.508,3.357-2.746,4.167-2.746c0.805,0,1.466,1.731,1.466,3.851v14.138c0,2.119,1.735,3.852,3.85,3.852h16.935
		c2.117,0,3.85,1.73,3.85,3.849v10.206c0,2.115-1.731,3.85-3.85,3.85h-16.935c-2.113,0-3.85,1.731-3.85,3.851v15.646
		c0,2.116,0.062,5.577,0.13,7.693c0,0,0.035,1.068,0.374,2.738c0.333,1.672,1.277,3.074,2.826,4.193
		c1.553,1.125,3.903,1.682,7.057,1.682C566.557,234.326,570.802,233.562,574.367,231.419z"/>
	<path fill="#040000" d="M871.189,252.91v-68.438c0-2.118,1.73-3.849,3.848-3.849h18.156c2.112,0,3.843,1.73,3.843,3.849v69.419
		c0,18.143-9.281,27.209-27.852,27.209c-4.296,0-8.8-0.593-13.499-1.789c-4.696-1.193-7.482-2.3-7.482-2.3
		c-1.968-0.786-3.58-3.155-3.58-5.271v-11.369c0-2.119,2.381-4.246,4.759-2.654c3.564,2.145,7.806,2.906,11.425,2.906
		c3.15,0,5.421-0.682,7.058-1.682C870.313,257.445,871.189,254.613,871.189,252.91z"/>
	<path fill="#040000" d="M481.166,179.336c-4.681,0-9.096,0.822-13.246,2.472c-4.152,1.646-9.746,6.691-9.746,6.691
		c-1.57,1.418-2.855,0.847-2.855-1.27V158.12c0-2.117-1.733-3.851-3.849-3.851h-18.081c-2.115,0-3.848,1.733-3.848,3.851v91.549
		c0,2.114,1.732,3.847,3.848,3.847h18.081c2.115,0,3.849-1.732,3.849-3.847v-34.396c0.08-2.713,1.261-6.24,2.776-8.257
		c1.396-1.698,2.829-3.222,4.314-4.519c2.479-2.17,5.346-3.256,8.592-3.256c4.151,0,6.969,1.457,8.448,4.369
		c1.479,2.908,2.219,6.108,2.219,9.594c0,0.857-0.014,1.422-0.033,1.681c-0.026,0.267-0.026,0.267-0.026,0.267
		c-0.005,0.309-0.01,2.289-0.01,4.407v30.109c0,2.114,1.731,3.847,3.85,3.847h18.081c2.115,0,3.848-1.732,3.848-3.847v-40.904
		C507.374,189.146,498.637,179.336,481.166,179.336z"/>
	<path fill="#040000" d="M718.286,192.976c-1.888-4.415-4.795-7.793-8.735-10.132c-3.934-2.339-8.817-3.508-14.642-3.508
		c-5.826,0-10.966,1.192-15.432,3.579c-4.466,2.39-8.775,5.92-12.926,10.601c-1.049-2.53-2.455-4.753-4.223-6.661
		c-1.768-1.907-3.738-3.414-5.908-4.512c-2.175-1.097-4.382-1.872-6.624-2.328c-2.244-0.45-4.607-0.678-7.087-0.678
		c-5.255,0-9.882,0.93-13.892,2.792c-4.007,1.862-8.969,6.362-8.969,6.362c-1.565,1.424-2.848,0.857-2.848-1.258v-2.756
		c0-2.119-1.731-3.85-3.849-3.85h-18.082c-2.114,0-3.846,1.73-3.846,3.85v65.195c0,2.113,1.73,3.848,3.846,3.848h18.082
		c2.116,0,3.849-1.732,3.849-3.848V215.57c0-2.746,1.398-6.793,3.29-9.101c1.184-1.5,2.225-2.685,3.087-3.505
		c1.002-0.958,2.304-1.816,3.903-2.579c1.6-0.761,3.355-1.146,5.262-1.146c4.012,0,6.801,1.336,8.377,4.009
		c1.573,2.675,2.02,7.55,2.02,7.55c0.188,2.107,0.348,5.566,0.348,7.682v31.188c0,2.114,1.731,3.847,3.85,3.847h18.082
		c2.116,0,3.847-1.732,3.847-3.847v-34.101c0-2.832,1.476-7.047,3.452-9.312l-0.065-0.011c1.161-1.396,2.327-2.646,3.489-3.75
		c2.292-2.17,5.225-3.256,8.806-3.256c3.675,0,6.363,1.278,8.056,3.828c1.694,2.557,2.181,7.729,2.181,7.729
		c0.202,2.11,0.36,5.567,0.36,7.683v31.188c0,2.113,1.735,3.847,3.852,3.847h18.083c2.112,0,3.845-1.731,3.845-3.847V209.05
		C721.113,202.749,720.175,197.395,718.286,192.976z"/>
	<path fill="#040000" d="M800.461,210.123c1.323-0.215,5.102-0.858,8.296-0.858c4.725,0,8.487,0.659,11.274,1.968
		c2.796,1.315,4.765,2.975,5.91,4.979c1.146,2.005,1.718,4.125,1.718,6.371c0,2.721-0.979,5.36-2.938,7.915
		c-1.957,2.554-5.368,3.828-10.235,3.828c-4.106,0-8.94-1.166-14.503-3.506c-5.56-2.342-9.667-4.906-9.667-4.906
		c-1.789-1.123-3.259-0.311-3.259,1.809v17.562c4.68,3.201,9.812,5.587,15.398,7.16c5.586,1.574,11.429,2.358,17.54,2.358
		c7.635,0,14.116-1.489,19.44-4.478c5.323-2.98,9.312-6.952,11.958-11.92c2.653-4.963,3.975-10.289,3.975-15.969
		c0-5.492-1.346-10.563-4.041-15.218c-2.698-4.649-6.576-8.388-11.639-11.204c-5.059-2.815-10.934-4.226-17.614-4.226
		c-1.049,0-1.756,0.018-2.108,0.036c-0.362,0.024-0.962,0.071-1.793,0.144c-0.836,0.071-0.836,0.071-0.836,0.071
		c-0.857,0.098-1.563-1.554-1.563-3.673v-9.342c0-2.116,1.736-3.849,3.852-3.849h27.818c2.115,0,3.848-1.731,3.848-3.852v-13.208
		c0-2.117-1.731-3.851-3.848-3.851h-49.807c-2.114,0-3.851,1.733-3.851,3.851v49.981c0,1.686,1.373,2.891,3.055,2.801
		C797.639,210.859,799.04,210.352,800.461,210.123z"/>
	<path fill="#040000" d="M733.197,225.678c0,18.139,9.28,27.208,27.853,27.208c3.031,0,7.394-0.978,9.783-2.138
		c2.37-1.15,3.848-3.078,3.848-5.198v-10.271c0-2.117-1.731-3.852-3.847-3.852h-1.402c-3.152,0-5.503,0.426-7.056-0.699
		c-1.55-1.119-2.493-2.521-2.827-4.193c-0.337-1.672-0.373-2.739-0.373-2.739c-0.07-2.115-0.131-5.575-0.131-7.694l-0.001-58.029
		c0-2.118-1.729-3.849-3.843-3.849h-18.155c-2.116,0-3.849,1.73-3.849,3.849V225.678z"/>
</g>
</svg>
