<?xml version="1.0" encoding="utf-8"?>
<!-- Generator: Adobe Illustrator 16.2.1, SVG Export Plug-In . SVG Version: 6.00 Build 0)  -->
<!DOCTYPE svg PUBLIC "-//W3C//DTD SVG 1.1//EN" "http://www.w3.org/Graphics/SVG/1.1/DTD/svg11.dtd">
<svg version="1.1" id="レイヤー_1" xmlns="http://www.w3.org/2000/svg" xmlns:xlink="http://www.w3.org/1999/xlink" x="0px"
	 y="0px" width="784.816px" height="123.441px" viewBox="0 0 784.816 123.441" enable-background="new 0 0 784.816 123.441"
	 xml:space="preserve">
<g>
	<path fill="#FFFFFF" d="M336.457,94.791c-4.069-1.75-8.271-0.318-12.401-0.395c-1.559-0.027-3.129-0.834-4.697-0.129
		c-0.713,0.117-1.246,0.982-2.104,0.512c-1.66-0.943-3.421-0.977-5.228-0.572c-1.294,0.738-2.787-0.115-4.098,0.504
		c-1.424-1.752-2.625,0.617-4.268,0.182c-3.129-0.834-6.475-3.963-5.475-6.852c0.53-1.525-0.435-2.031-0.513-3.025
		c-0.377-0.965,1.489-1.6,0.393-2.672c0.275-0.904,0.553-1.809,0.824-2.713c-0.152-0.682-0.768-1.311-0.236-2.07
		c0.606-0.74,0.82-1.484,0.17-2.346c-0.938-1.232-0.789-2.912-0.336-3.965c1.333-3.092,0.01-5.664-0.951-8.371
		c-0.472-0.616-0.019-1.233-0.002-1.849c-0.065-2.824-0.078-5.655-3.343-6.97c-1.545-0.623-3.135,0.658-4.645-0.207
		c-0.733,0.842-1.845,0.731-2.771,1.095c-3.082,2.585-2.059,6.328-2.153,9.478c-0.063,2.113-0.573,4.363,0.053,6.609
		c0.397,1.43,1.152,1.283,2.084,1.359c0.913,0.553,1.268-0.82,2.083-0.604c0.195,0.086,0.385,0.191,0.585,0.256
		c3.892,1.268,4.605,3.346,4.343,7.662c-0.198,3.277-0.561,6.588-0.454,9.906c0.063,1.953-0.09,4.615-2.263,4.76
		c-1.423,0.092-3.397,0.6-4.309,0.17c-2.42-1.135-4.652,0.352-7.067-0.383c-3.589-1.096-7.51,1.049-11.203-0.062
		c-3.329-1-6.183,2.082-9.52,0.678c-2.109-0.887-4.614-0.848-6.742-0.83c-1.41,0.012-3.389-0.139-4.389,0.27
		c-1.902,0.773-2.734-0.16-3.947-0.82c-0.168-0.102-0.243-0.219-0.227-0.361c0.018-0.148,0.051-0.227,0.097-0.227
		c-1.101-2.439,1.304-5.352-1.023-7.625c1.774-0.68,1.427-2.021,1.024-3.361c-0.286-0.951,0.397-2.258-1.217-2.752
		c-0.633-0.195-0.592-1.002-0.067-1.66c0.531-0.67,1.224-1.473,1.242-2.23c0.036-1.619,0.307-2.941,2.218-2.549
		c1.34,0.273,1.871-1.539,3.65-0.652c2.105,1.051,1.754-2.229,1.752-2.588c-0.015-2.555-0.568-5.107-0.952-7.657
		c-2.007-1.625-0.938-3.201,0.072-4.778c0.208-0.396,0.342-0.841,0.731-1.118c1.812-2.05-0.902-1.827-1.369-2.732
		c-1.204-0.901-2.815,0.681-3.946-0.65c-0.83-0.613-1.254-1.11-1.569-2.414c-1.239-5.11,0.966-10.474-1.318-15.333
		c-0.479-1.021,0.198-0.682,0.384-0.906c2.253-2.754,5.641-2.526,8.609-2.846c3.718-0.398,7.474,1.615,11.309-0.073
		c1.732-0.763,3.657,0.151,5.5,0.189c2.686,0.051,5.371,0.132,8.056,0.202c0.492-0.328,0.982-0.37,1.473,0.003
		c1.598,1.258,3.45,0.482,5.185,0.652c0.758-0.321,1.095,0.088,1.287,0.744c0.049,0.867,0.1,1.732,0.15,2.598
		c0.354,0.478,0.507,1.32,1.421,0.782c2.761-1.94,6.116-3.065,9.136-3.809c2.285-0.561,4.483-0.04,5.559-3.342
		c1.242,2.53,2.929,1.928,4.811,1.86c4.742-0.171,9.564-0.241,14.038,1.881c1.209,0.504,2.637,0.636,3.338,1.99
		c1.528,1.465,2.98,3.024,4.61,4.37c1.289,1.064,2.736,1.961,4.007-0.278c0.209-0.368,0.908-1.333,1.868-0.834
		c0.699-0.525,1.266-1.235,2.131-1.53c3.242-3.284,8.095-2.86,11.783-5.122c0.469-0.319,0.944-0.284,1.426-0.028
		c1.367-1.005,2.742-1.382,4.464-0.671c0.729,0.3,1.784,0.937,2.682,0.049c0.919-0.238,1.842-0.082,2.763-0.026
		c0.324,0.036,0.704,0.199,0.963,0.083c3.093-1.362,5.178,0.723,7.441,2.148c1.988,1.251,3.831,2.829,5.966,3.722
		c1.348,0.564,0.533,1.366,0.855,1.983c0.762,0.574,1.391,1.26,1.84,2.107c1.076,1.95,2.151,3.903,3.227,5.854
		c0.012,0.73-0.12,1.494,0.445,2.11c0.468,0.929-0.112,1.752-0.261,2.617c-0.073,1.145,0.471,2.016,1.235,2.79
		c1.467,1.316-0.054,2.961,0.482,4.379c-1.654,0.421-1.312,2.7-1.268,2.943c0.598,3.284-0.131,6.622,0.449,9.831
		c0.294,1.627,2.661,0.143,3.624,1.359c1.769-1.621,1.895,0.619,2.741,1.164c0.385,0.549,1.778,0.076,1.408,1.391
		c-0.051,5.512-0.19,11.025-0.107,16.535c0.032,2.219-1.023,2.258-2.812,2.498c-6.064,0.811-12.128-0.227-18.22,0.262
		c-2.607,0.209-5.602,0.504-8.529-0.18c-2.329-0.543-5.051,0.584-7.697,0.285c-3.565-0.4-4.45-1.25-4.361-4.902
		c0.107-4.252,0.028-8.549,0.004-12.744c-0.02-3.625,1.165-7.641-0.556-11.164c-0.636-1.303,1.343-2.297-0.063-3.334
		c-0.939-0.81-0.696-1.673-0.119-2.553c0.52-1.757-0.339-2.751-1.866-3.375c-0.629-0.521-0.824-1.311-1.218-1.98
		c-3.124-1.557-5.98-0.01-8.886,0.802c-0.794,0.224-0.753,1.152-0.782,1.68c-0.24,4.586-0.911,9.185-0.31,13.763
		c0.211,1.619,2.596,0.84,3.414,2.109c2.294-1.846,2.998,1.838,4.908,1.453c0.1-0.02,0.521,1.006,0.5,1.02
		c-2.186,1.227-0.351,2.949-0.616,4.34c-0.827,4.338,0.214,8.697-0.476,13c-0.225,1.406-1.699,1.098-2.554,1.648
		C337.407,94.585,337.168,95.212,336.457,94.791z"/>
	<path fill="#FFFFFF" d="M177.572,95.257c-1.242-1.389-3.054-0.57-4.5-1.164c-1.294-0.17-2.601,1.553-3.892-0.02
		c-1.309-0.479-2.079,0.324-2.825,1.186c-0.148,0.266-0.245,0.586-0.667,0.49c-0.505-0.115-0.66-0.441-0.587-0.92
		c-1.271-1.52-2.667,0.627-3.927-0.117c-2.821-1.668-6.091,0.213-8.979-1.186c-0.757-0.365-1.773-0.057-1.796,1.207
		c-0.124,0.295-0.294,0.326-0.509,0.088c-2.408-0.076-4.77-2.758-7.228-0.135c-0.202-0.105-0.275-0.225-0.223-0.354
		c0.054-0.135,0.11-0.203,0.172-0.203c0-2.387-0.994-4.801-0.895-6.98c0.148-3.227-0.551-6.586,0.655-9.754
		c0.075-0.193,0.205-0.531,0.132-0.596c-3.189-2.746-0.029-5.887-0.508-8.844c-0.384-2.365-1.959-4.605-0.791-7.275
		c0.639-1.46-0.464-3.132-0.195-4.881c0.158-1.023-1.387-2.622-3.16-2.537c-2.176,0.103-4.484-0.063-6.473,0.634
		c-1.886,0.66-4.162,1.783-2.295,4.819c0.964,1.569-0.314,3.456-0.417,5.22c-0.095,1.635-0.042,3.305-0.356,4.996
		c-0.519,2.799,1.952,3.58,4.266,4c1.635-1.043,2.585-0.297,3.316,1.213c1.21,2.496,0.826,5.006,0.162,7.533
		c-0.039,0.166-0.041,0.33-0.005,0.498c0.515,0.715,0.512,1.434,0.008,2.156c0,1.043-0.002,2.088-0.002,3.131
		c0.6,1.906,2.561,3.996-0.724,5.383c-1.426,2.006-4.517,2.18-6.653,1.332c-1.167-0.463-2.995,0.17-4.532-0.062
		c-1.13-0.203-2.222,0.754-3.362,0.098c-2.708-0.762-5.231,0.75-7.886,0.643c-0.731,0.328-1.148-0.07-1.493-0.641
		c-1.275-0.025-2.55-0.045-3.827-0.066c-0.886,0.811-1.785,0.4-2.685,0.027c-4.555,0.014-9.111,0.146-13.641-0.512
		c-0.968,0.502-1.906,0.625-2.767-0.221c-2.483-3.475-1.235-7.426-1.423-11.191c-0.407-0.473-0.404-0.973-0.105-1.496
		c-0.796-1.92-0.599-3.764,0.137-5.701c0.938-2.475,3.317-3.213,5.107-2.883c3.463,0.639,3.42-2.107,3.164-3.396
		c-0.674-3.41-0.035-6.848-0.739-10.235c-0.295-1.426-0.636-3.198,0.622-4.576c0.411-0.449,0.604-1.124,0.246-1.507
		c-2.441-2.592-0.222-5.36-0.378-8.026c-0.164-2.81-0.112-5.634-0.422-8.424c-0.103-0.921-0.062-1.546,0.303-2.403
		c0.954-2.244-0.242-5.646-2.001-6.297c-0.651,0.527-1.323,0.547-2.018,0.088c-3.5-0.521-4.211-2.906-3.977-5.929
		c-0.507-0.689-0.507-1.352,0.114-1.977c0.531-0.911-0.816-0.767-0.784-1.396c-0.446-0.376-0.604-0.836-0.405-1.399
		c0.347-0.638,0.694-1.278,1.041-1.915c-0.526-0.595-1.16-1.133-1.109-2.042c0.862-0.638,2.25-0.606,1.372-2.62
		c-0.785-1.8,0.149-3.472,2.546-4.234c4.882-1.552,9.641-0.604,14.484-0.063c1.825,0.205,4.026,0.726,5.232-1.562l-0.018-0.001
		c3.275,1.146,6.633,0.948,9.996,0.595c0.604-0.284,1.216-0.268,1.832-0.031c0.978,0.112,1.896,0.073,2.897-0.185
		c2.237-0.571,3.912,0.143,4.299,2.707c0.724,1.594,0.577,3.37,1.067,5.01c1.738,2.704,1.253,5.592,0.704,8.479
		c0.011,0.646,0.076,1.289,0.137,1.931c-0.689,2.393,0.421,4.876-0.356,7.266c0.117,1.244-0.338,2.566,0.51,3.702
		c0.115,0.057,0.222,0.125,0.336,0.176c0.596,0.093,1.023-0.262,1.481-0.541c0.644-0.474,1.387-0.381,2.113-0.375
		c0.753,0.01,1.45,0.348,2.201,0.368c4.301-1.402,8.606-2.784,13.146-3.215c1.526-1.152,3.272-0.724,4.926-0.955
		c3.898-0.548,6.396,1.967,9.564,2.854c0.377,1.878,1.604,2.893,3.382,3.357c4.532,1.01,8.584,7.33,7.525,11.729
		c-0.184,0.885-0.068,1.714,0.487,2.457c1.834,4.686,1.545,9.658,1.83,14.53c0.185,3.154-0.456,6.002,3.762,7.6
		c3.414,1.295,2.915,5.244,2.698,8.457c0.139,0.439,0.299,0.871,0.354,1.334c0.541,2.396-0.923,4.65-0.492,7.041
		c-0.062,0.785-0.319,1.512-0.646,2.219c-0.44,0.438-0.714,0.984-1.006,1.52c-0.383,0.885-1.099,1.422-1.913,1.861l0.036,0.031
		c-0.31,0.238-0.665,0.395-0.996,0.592C178.83,95.197,178.265,95.458,177.572,95.257z"/>
	<path fill="#FFFFFF" d="M646.681,31.218c1.726,0.94,3.356,1.252,4.571-0.768c0.218-0.365,0.435-0.38,0.744-0.202
		c2.337,1.327,5.146-0.663,7.551,1.113c0.437,0.319,1.733,0.982,2.903,0.439c2.829-1.313,4.551-0.393,4.878,2.802
		c1.762,0.2,2.337,0.807,2.354,2.921c0.033,3.788-1.009,7.582-0.018,11.38c0.463,1.77-0.229,3.604-1.635,4.362
		c-3.096,1.674-2.335,4.104-1.879,6.592c-0.222,1.06,0.584,1.684,1.066,2.442c0.937,1.215,1.427,2.668,2.175,3.954
		c0.185,0.047,0.351,0.131,0.525,0.135c1.682-2.295,0.927-5.325,2.537-7.629c0.598-0.857,0.908-1.949,1.621-2.771
		c0.158-0.354,0.211-0.725,0.099-1.103c-4.438-3.194-5.275-7.631-4.35-12.635c0.342-1.845,0.063-3.654-0.062-5.48
		c0.545-1.347,0.553-2.898,1.547-4.076c1.972,0.855,3.027-2.315,5.071-1.149c1.006-2.143,2.192-0.552,3.201-0.063
		c0.741,0.362,1.717,0.804,2.152,0.354c1.822-1.902,3.859-0.864,5.79-0.611c4.15,0.537,8.295,0.069,12.438,0.037
		c4.658-0.032,6.643,2.778,5.597,7.142c-0.745,3.103-0.947,6.585-0.333,9.687c0.473,2.381,0.073,3.717-1.599,5.049
		c-0.683,0.656-1.404,0.271-2.118,0.071c-2.532-0.174-3.367,1.744-4.004,3.553c-2.19,6.192-6.082,11.579-8.404,17.649
		c-1.558,4.074-3.614,7.891-5.45,11.793c-0.922,1.965-2.05,3.668-1.963,5.902c-0.423,0.475-0.729,1.055-1.264,1.43
		c-2.486,4.4-5.291,8.66-6.031,13.824c-0.127,0.74-0.661,1.049-1.313,1.232c-2.461,3.188-3.689,6.938-4.913,10.697
		c-0.476,1.465-2.32,0.82-3.072,1.896c-1.017,0.561-1.791-0.162-2.639-0.502c-2.165,1.352-4.575,0.105-6.895,0.611
		c-1.255,0.273-2.43,0.502-3.533,1.145c-0.748-0.129-1.504-0.391-2.231,0.09c-1.828-2.855-4.655-1.275-6.885-1.195
		c-2.927,0.104-3.631-0.684-3.998-3.529c-0.354-2.746-0.198-5.535-0.676-8.303c-0.239-1.391-0.952-3.844,0.772-5.396
		c1.199-1.082-1.912-2.389,0.224-3.545c0.664-0.361,0.59-1.5,1.74-0.195c0.576,0.65,3.1,1.598,3.877-0.945
		c0.178-0.58,0.518-0.334,0.976-0.166c2.51,0.93,3.788,0.09,4.208-2.623c0.551-3.545-1.803-5.932-3.142-8.816
		c-1.262-2.723-3.272-5.143-3.804-8.203c-0.338-1.947-3.279-2.695-2.414-5.207c-0.702-0.846-2.11-1.355-1.387-2.889
		c-2.5-2.678-4.077-5.979-5.943-9.066c-0.793-1.311-0.865-3.056-1.263-4.603c-1.198-0.873-1.386-2.539-2.648-3.361
		c-1.279-0.96-2.609-1.858-3.821-2.895c-1.048-0.897-1.923-1.995-1.859-3.502c0.096-2.278,0.248-4.554,0.376-6.828
		c-0.137-0.729-0.474-1.405-0.57-2.145c0.039-0.477,0.292-0.828,0.646-1.122c1.677-1.918-0.804-1.738-1.291-2.564
		c0.611-0.558,0.419-1.64,1.311-2.016c1.382-1.037,2.173-3.335,4.596-2.175c0.628-0.383,1.286-0.609,2.034-0.439
		c1.93,0.14,3.858,0.28,5.79,0.422c0.624-0.482,1.341-0.598,2.104-0.538c2.246-0.366,4.335,1.583,6.631,0.445
		C645.825,30.969,646.267,30.896,646.681,31.218z"/>
	<path fill="#FFFFFF" d="M430.447,6.089c2.062,0.269,2.531,2.569,2.224,3.381c-1.167,3.072,1.362,6.121-0.28,9.066
		c-0.201,0.363,0.068,0.836,0.531,1.043c0.203,0.064,0.29,0.161,0.257,0.283c-0.035,0.139-0.078,0.209-0.135,0.209
		c0.034,0.656,0.066,1.312,0.101,1.969c0.241,0.7,0.009,1.499,0.445,2.16c-1.309,1.392-2.39,2.838-0.889,4.744
		c0.885,1.126-0.909,1.92-0.337,2.99c0.378,0.462,0.405,0.935,0.047,1.42c-0.052,1.762-0.104,3.521-0.158,5.281
		c0.689,0.737,1.135,1.55,0.787,2.602c-0.045,0.749,0.703,1.378,0.297,2.191c-1.817,3.647-0.444,7.537-0.882,11.211
		c-0.52,4.387,0.981,8.686-0.21,13.045c-0.43,1.58-1.911,4.617,2.405,4.32c0.545-0.037,2.429,2.365,2.707,4.439
		c0.51,3.785-0.502,7.705,1.189,11.398c0.475,1.037-3.263,6-4.521,6.002c-1.468,0.004-2.125,1.611-3.551,1.436
		c-0.589-0.199-0.979-0.66-1.431-1.043c-1.98,0.334-3.955,0.311-5.928-0.062c-0.902,0.469-1.319-0.525-2.019-0.67
		c-1.586,1.242-3.767,1.641-5.275,1.074c-2.816-1.053-5.851,1.354-8.446-0.916c-0.479-0.42-1.126,0.18-1.586,0.73
		c-0.875,1.049-2.021,1.146-3.236,0.582c-0.584,0.227-0.934-0.326-1.421-0.422c-2.244-0.07-4.398-0.613-6.745-0.402
		c-2.264,0.203-2.244-3.062-2.271-4.148c-0.104-4.486-0.624-8.992-0.382-13.441c0.085-1.533,0.038-5.037,4.032-4.328
		c2.232,0.395,3.845-2.223,3.211-4.477c-0.723-2.568-0.599-5.098-0.413-7.747c0.326-4.684,0.307-9.413-0.473-14.087
		c-0.086-0.661-0.729-1.321-0.018-1.99c1.134-3.612,0.244-7.326,0.378-10.981c0.029-0.742,0.107-1.535,0.132-2.316
		c0.07-2.228-0.083-4.406-3.317-3.712c-0.991,0.212-1.983-0.139-2.272-0.882c-0.761-1.947-2.084-3.727-1.15-6.182
		c0.737-1.936,1.469-4.102-0.208-6.222c-0.903-1.144,0.6-7.304,1.835-7.757c1.153-0.424,2.535-0.241,3.818-0.324
		c0.671,0.016,1.329,0.397,2.019,0.091c0.723-0.253,1.778-0.943,2.112-0.688c2.497,1.92,4.938,0.207,7.296-0.112
		c1.602-0.216,3.054-0.84,4.682-0.103c1.045,0.473,1.369-0.343,1.907-1.135c0.707-1.046,0.895,0.156,1.214,0.582
		c0.353,0.363,0.906,0.292,1.286,0.602c3.758,1.054,7.472,1.007,11.127-0.457C429.783,4.615,429.645,5.761,430.447,6.089z"/>
	<path fill="#FFFFFF" d="M215.355,10.739c1.686-1.331,3.918-0.873,5.794-1.796c1.126-0.554,2.683-0.179,2.766,1.739
		c-0.382,0.712,0.21,1.45-0.063,2.164c0.218,5.122,0.619,10.244,0.593,15.363c-0.015,3.064,0.678,4.406,3.906,3.178
		c0.763-0.289,1.77,0.247,2.422-0.611c0.775-0.885,1.579-0.799,2.4-0.072c3.624,0.625,2.816,3.93,3.178,6.064
		c0.422,2.486,1.558,5.241-0.263,7.854c-0.327,0.473-0.629,1.926,0.413,2.681c0.179,0.076,0.266,0.184,0.261,0.322
		c-0.005,0.153-0.033,0.23-0.077,0.23c-1.38,3.907-1.38,3.907-5.315,5.259c-0.443,0.419-0.869,0.417-1.274-0.056
		c-1.834,0.059-3.548,0.598-5.248,1.242c-0.968,0.364-1.224,0.797-0.366,1.546c0.764,0.668-0.068,1.337-0.002,2.005
		c-0.168,2.442-0.145,4.917-0.565,7.318c-0.312,1.783,0.487,2.326,1.876,2.686l0.222-0.148l-0.204,0.174
		c-0.322,1.764,1.484,3.607,3.212,2.844c1.672-0.742,3.335-0.305,4.978-0.643c2.071-0.43,2.087,1.996,1.896,3.234
		c-0.193,1.271,0.254,2.051,0.75,2.973c0.19,0.148,0.256,0.297,0.193,0.447c-0.062,0.15-0.125,0.225-0.188,0.225
		c-0.019,3.648,0.137,7.309-0.119,10.939c-0.15,2.096-2.4,2.744-3.743,4.029c-2.153,2.055-5.363,0.457-7.476,2.398
		c-0.709,0.805-1.615,1.139-2.671,1.105c-1.604-0.287-3.007-1.203-4.822,0.197c-1.424,1.1-3.406-0.154-5.093-0.668
		c-1.55,0.654-3.139,0.896-4.791,0.441c-0.924,0.27-1.304-1.955-2.476-0.539c-0.139,0.031-0.278,0.064-0.417,0.098
		c-0.743,0.189-1.4-0.211-2.103-0.305c-1.119,0.07-1.964-0.484-2.728-1.209l0.021,0.004c-0.938-0.662-1.482-1.83-2.715-2.113
		c-0.419-0.16-0.857-0.279-1.222-0.555c-1.328-2.381-3.791-3.848-5.003-6.35c-1.203-2.488-1.609-5.096-2.111-7.793
		c-1.21-6.506-0.522-13.031-0.896-19.533c-0.068-1.194-0.723-1.619-1.762-2.021c-1.436-0.557-3.03-0.521-4.391-1.301
		c-0.272-0.217-0.471-0.485-0.606-0.804c0.39-7.096-1.01-14.25,0.665-21.306c0.904-1.108,2.11-1.684,3.477-1.964
		c3.474,0.381,2.439-2.474,2.993-4.188c0.049-0.479,0.229-0.896,0.589-1.224c0.145-0.059,0.29-0.117,0.435-0.175
		c1.023,0.782,1.822,0.067,2.02-0.694c0.689-2.661,2.318-3.314,4.95-3.814c2.507-0.478,5.497-1.219,6.986-3.993
		c0.811-1.189,1.963-1.211,3.201-0.936c2.086-1.054,4.715-0.751,6.489-2.591C213.913,11.509,214.578,11.038,215.355,10.739z"/>
	<path fill="#FFFFFF" d="M56.573,80.111c-2.546-1.309-5.124-2.557-7.615-3.961c-0.774-0.434-1.315-0.752-1.964,0.033
		c-1.522-0.41-2.91-1.102-4.191-2.014c-0.07-0.314-0.134-0.904-0.209-0.904c-3.666-0.072-6.521-2.16-9.629-3.697
		c-4.544-2.248-9.684-3.123-13.994-5.943c-0.602,0.059-1.138-0.133-1.657-0.408c-0.392-0.205-0.718-0.479-0.931-0.871
		c-4.364-0.099-7.517-3.311-11.475-4.464c-2.151-0.626-1.569-2.08-1.477-3.861c0.189-3.59-0.307-7.229-0.705-10.827
		c-0.085-0.761,0.201-1.224,0.384-1.812c0.37-0.908,0.905-1.549,2.021-1.244c3.593-0.332,6.431-2.702,9.801-3.631
		c3.848-1.062,6.558-4.625,10.522-5.149c5.512-0.731,9.847-4.747,15.428-5.132c0.626-0.044,1.483-0.007,1.834-0.962
		c0.64-1.738,1.273-3.344,3.764-1.763c0.323,0.207,2.668-1.532,4.232-2.065c0.543-0.805,1.277-1.378,2.149-1.789
		c1.006-0.748,2.1,0.056,3.411-0.427c4.726-1.734,9.036-4.391,13.836-5.927c1.25-0.399,2.311-0.033,3.412-0.007
		c1.366,0.031,2.41,1.398,1.967,2.588c-1.178,3.161,0.25,6.292-0.132,9.478c-0.164,1.349-1.401,2.515-0.798,3.944
		c0.195,0.171,0.246,0.322,0.156,0.454c-0.087,0.121-0.166,0.182-0.245,0.182c-2.111,2.366-5.121,3.032-7.872,4.214
		c-4.257,1.827-8.533,3.638-12.648,5.751c-1.106,0.57-2.055,0.755-3.173,0.755c-0.561,0.714-1.343,0.568-2.094,0.544
		c-1.13,0.657-2.257,1.313-3.385,1.969c-0.406,0.455-0.867,0.453-1.362,0.168c-3.83,1.633-7.48,3.729-11.626,4.554
		c-1.084,0.215-0.869,1.155-1.009,1.836c-0.216,1.037,0.907,1.286,1.38,1.337c3.62,0.393,7.049,1.794,10.083,3.386
		c2.381,1.25,5.103,1.152,7.229,2.726c1.265,0.344,2.662,0.466,3.242,1.95c4.627,2.022,9.52,3.421,13.96,5.88
		c0.75,0.053,1.449,0.258,2.078,0.678c1.287,0.494,2.569,0.986,3.857,1.482c0.471,0.391,1.109,0.586,1.38,1.207
		c0.729,2.805,0.139,5.684,0.46,8.512c-0.316,0.68,0.149,1.508-0.407,2.143c-0.051,0.973-0.01,1.861,0.349,2.855
		c0.868,2.41-0.312,3.723-3.077,3.611c-2.322-0.096-4.364-0.998-6.434-2.086c-2.373-1.246-4.315-3.619-7.407-3.256
		C57.514,80.312,57.041,80.287,56.573,80.111z"/>
	<path fill="#FFFFFF" d="M712.138,20.686c-0.24-0.845-0.477-1.688-0.711-2.532c-0.319-0.481-0.326-0.923,0.163-1.301
		c1.659-0.244,0.365-2.354,1.594-2.673c1.542-0.399,3.012-2.556,4.817-0.12c0.883,1.194,2.461,1.548,4.012,0.86
		c0.521,0.395,0.899,1.082,1.731,0.866c1.349,0.182,2.133,1.252,3.125,1.995c0.629,0.317,1.374,0.395,1.891,0.936
		c2.373,0.719,4.742,1.438,7.112,2.156l-0.038-0.038c2.632,1.49,5.176,3.048,8.275,3.633c2.444,0.46,4.82,1.479,6.925,2.943
		c0.948,1.097,1.854-0.641,2.796-0.041c1.379,3.285,4.61,3.652,7.419,4.555c1,0.321,2.16,0.197,3.1,0.855
		c0.748,0.295,1.295,0.938,2.058,1.21c0.521,0.342,1.715-1.598,1.669,0.458c-0.01,0.539-0.101,0.713,0.517,0.771
		c0.987,0.091,9.435,3.987,10.322,4.672c0.688-0.517,1.362-0.474,2.021,0.058c1.174,1.061,3.025,1.609,2.818,3.72
		c0.595,2.095,0.378,4.179-0.075,6.26c1.74,3.54,0.324,6.399-2.904,8.531c-3.549,2.347-7.62,3.75-11.346,5.208
		c-4.211,1.65-8.439,3.395-12.64,5.148c-0.639,0.266-1.014-0.229-1.499-0.404c-0.563,0.656-1.187,1.201-2.127,1.156
		c-1.479,1.98-4.514,1.367-5.886,3.525c-0.779,0.695-1.347,1.877-2.729,1.209c-3.419-0.293-5.984,1.574-8.582,3.373
		c-0.712,0.617-1.354,0.143-2.004-0.127c-1.009,0.342-2.005,0.697-2.135,1.98c-0.121,0.695-0.521,1.107-1.226,1.217
		c-1.265-1.246-2.363-0.604-3.721,0.039c-3.214,1.521-6.316,3.422-9.866,4.055c-1.196,0.213-1.457,1.172-2.213,1.762
		c-1.918-1.971-2.285-4.646-3.367-6.973c0.041-0.477-0.11-0.951,0.014-1.426c0.144-0.441,0.42-0.873,0.105-1.354
		c0.021-1.299,1.164-2.383,0.134-3.959c-0.906-1.389,3.215-8.008,4.686-7.598c2.111,0.59,3.461-0.961,5.24-1.045
		c0.384-0.02,0.743-0.41,1.112-0.629c0.769-0.537,1.329-1.314,2.125-1.819c2.662,0.336,4.63-1.694,7.085-2.069
		c0.546-0.548,1.364-0.653,1.919-1.185c0.656-0.579,1.368-0.57,2.12-0.211c1.655-0.425,3.132-0.987,4.507-2.23
		c3.286-2.978,8.067-2.648,11.788-4.854c0.98-0.584,2.549-0.711,2.584-1.954c0.043-1.534-1.74-1.141-2.615-1.7
		c-1.577-1.005-3.526-0.931-5.013-2.471c-1.359-1.411-3.77-1.481-5.872-1.442c-1.88,0.374-1.88-1.624-2.92-2.313
		c-1.333-1.459-2.911,0.159-4.318-0.346c-0.567-1.189-1.52-1.92-2.755-2.314c-1.08-0.069-2.16-0.138-3.241-0.208
		c-0.137-0.036-0.277-0.073-0.417-0.109c-0.632-0.341-1.219-0.792-1.983-0.819c-0.59-0.102-1.108-0.364-1.597-0.699
		c-1.069-0.546-2.018-1.245-2.756-2.202c-2.193-0.624-4.091-2.132-6.484-2.156c-0.804-0.21-1.549-0.539-2.151-1.137
		c-0.782-2.629-2.469-5.185-0.629-8.019C712.704,22.477,711.029,21.563,712.138,20.686z"/>
	<path fill="#FFFFFF" d="M128.728,30.004c-0.005-2.429-0.184-4.871,0.55-7.244c0.066-0.197,0.093-0.397,0.075-0.604
		c-0.002,0-0.123-0.282-0.124-0.283c-0.15-0.148-0.284-0.305-0.407-0.475c0.384-2.888,1.15-5.808-0.701-8.514
		c0.583-1.545-0.071-3.598,1.877-4.582c0.271-1.229,0.679-2.355,2.042-2.78c-0.816,1.457,1.257,1.848,1.132,3.008
		c-0.536,4.938,1.779,9.968-0.465,14.849c0.017,0.146,0.032,0.293,0.047,0.439c0.095,1.033-0.096,2.061-0.068,3.093
		c0.005,0.147,0.01,0.296,0.017,0.442c2.556,1.134,5.076,0.929,7.41-0.491c1.199-0.729,2.211-0.651,3.331-0.052
		c0.073,1.084-1.013,0.696-1.445,1.14c-0.233,0.24-0.463,0.485-0.698,0.727c-0.651,0.251-1.348,0.366-1.983,0.661
		c-1.5,0.662-3.264,1.055-3.303,3.217c-0.146,0.771-0.977,0.825-1.382,1.322c-0.65,0.215-1.299,0.429-1.951,0.644
		c-1.406-0.212-2.483-0.799-2.608-2.396C129.996,31.167,129.429,30.55,128.728,30.004z"/>
	<path fill="#FFFFFF" d="M164.324,32.044c-1.377,1.564-2.967,0.543-4.102-0.07c-3.229-1.752-6.357-2.718-9.881-0.909
		c-0.429,0.222-0.456-0.527-0.507-0.919c0.015-0.485,0.033-0.97,0.048-1.455l0.034-0.034c1.9,0.301,3.655-3.306,5.688-0.224
		c0.027,0.043,0.546-0.179,0.79-0.346c3.173-2.154,4.265-1.931,6.346,1.524c0.572,0.948,1.327,0.478,2.02,0.586
		c0.673,0.104,1.499,0.336,1.433,1.053C166.091,32.349,164.988,31.836,164.324,32.044z"/>
	<path fill="#FFFFFF" d="M128.032,6.952c-2.091-2.29-4.957-0.347-7.284-1.336c-0.418-1.315,0.771-1.082,1.368-1.418
		c0.918-0.943,0.194-2.872,1.983-3.289c0.186-0.229,0.421-0.31,0.707-0.242c0.382,0.166,0.772,0.273,1.193,0.239
		c0.273-0.01,0.548-0.017,0.821-0.02c0.877-0.249,2.544-0.914,2.125,0.546c-0.546,1.9,0.541,3.687-0.263,5.429
		C128.503,7.171,128.29,7.213,128.032,6.952z"/>
	<path fill="#FFFFFF" d="M200.208,93.447c1.087-0.08,2.186-1.035,3.256,0.039c0.272,1.092,1.198,1.109,2.051,1.248l-0.061,0.129
		c0.223,0.381,0.448,0.762,0.671,1.145c-0.123,0.709,0.355,1.41,0.012,2.119c-1.026,0.281-2.04,0.656-3.087,0.826
		c-3.19,0.52-4.077-0.541-3.144-3.605C200.093,94.738,200.112,94.082,200.208,93.447z"/>
	<path fill="#FFFFFF" d="M181.741,92.087c0.006-0.623,0.015-1.246,0.022-1.867c0.71-1.605,1.989-0.916,3.131-0.779
		c0.699,0.203,1.367,0.492,2.048,0.75c0.393,1.283,0.437,2.514-0.327,3.721c-0.401,0.633-0.884,0.926-1.598,0.807
		c-0.625-0.105-0.787-0.428-0.749-1.123c0.101-1.76-1.048-0.896-1.829-0.758C181.922,92.851,181.845,92.455,181.741,92.087z"/>
	<path fill="#FFFFFF" d="M560.677,29.975c-1.708,0.671-3.136,2.457-5.3,1.362c-1.312-2.373,0.782-2.218,2.018-2.852
		C559.231,27.541,560.24,28.027,560.677,29.975z"/>
	<path fill="#FFFFFF" d="M136.054,81.677c-0.072-1.715-0.168-3.432-0.214-5.146c-0.059-2.15-1.025-3.441-3.265-3.598
		c1.313-1.631,2.165-2.006,3.513,0.285c1.55,2.627,0.866,5.271,1.028,7.922C137.126,81.296,136.423,81.498,136.054,81.677z"/>
	<path fill="#FFFFFF" d="M146.633,26.87c-0.932-2.122-0.895-1.829,0.609-2.027c3.596-0.475,3.021,1.682,2.676,3.812l-0.034,0.034
		c-0.937-0.021-1.862-0.08-2.638-0.704C146.866,27.709,146.755,27.287,146.633,26.87z"/>
	<path fill="#FFFFFF" d="M251.064,57.157c0.093,0.407,0.385,0.916,0.24,1.201c-0.423,0.831-2.46,1.523,0.138,2.362
		c0.526,0.17-0.727,0.611-1.07,1.014c-1.748-0.81-4.209-1.294-1.827-3.994C249.307,57.204,249.987,56.327,251.064,57.157z"/>
	<path fill="#FFFFFF" d="M537.669,67.292c0.02,0.564-0.234,0.963-0.743,1.199c-1.051-0.25-1.254,0.947-2.021,1.186
		c-0.848,0.576-1.343,1.883-2.741,1.326c-0.958-0.426-1.569-1.395-0.563-1.891C533.479,68.185,535.292,66.666,537.669,67.292z"/>
	<path fill="#FFFFFF" d="M547.566,34.656c-0.49,0.689-0.894,1.612-1.969,0.735c-0.771,0.456-1.547,0.938-2.234-0.104
		c-0.405-0.617-0.396-1.272,0.146-1.769c0.633-0.578,1.352-1.212,2.3-0.715c0.559,0.295,1.021,0.766,1.53,1.16
		c0.248,0.09,0.365,0.222,0.351,0.397C547.672,34.559,547.632,34.656,547.566,34.656z"/>
	<path fill="#FFFFFF" d="M135.331,92.845c1.345-1.646,0.55-3.582,0.724-5.383c2.846,1.777,2.31,3.82,0.462,5.965
		c-0.129,0.293-0.311,0.314-0.535,0.104C135.767,93.302,135.55,93.074,135.331,92.845z"/>
	<path fill="#FFFFFF" d="M449.512,86.863c1.838,0.688,3.719,1.312,4.684,3.258C451.72,90.349,450.26,89.117,449.512,86.863z"/>
	<path fill="#FFFFFF" d="M624.91,79.535c-0.313-1.141,0.027-2.219,0.301-3.305c0.002,0-0.025,0.059-0.025,0.059
		c0.748-0.275,1.245-1.545,2.306-0.578c1.602,1.877-0.644,1.891-1.294,2.676c0.321,0.502,0.308,0.979-0.197,1.334
		C625.609,79.994,625.232,79.839,624.91,79.535z"/>
	<path fill="#FFFFFF" d="M222.637,95.431c0.467-1.395,1.469-1.49,2.671-1.105c0.177,0.832,0.367,1.662-0.001,2.49
		c-0.233,0.576-0.195,1.426-1.11,1.377c-0.334-0.016-0.396-0.422-0.21-0.75C223.536,96.771,223.087,96.103,222.637,95.431z"/>
	<path fill="#FFFFFF" d="M206.838,14.688c-1.069,0.311-2.135,0.624-3.201,0.936c-0.391-0.857-2.089-1.082-1.23-2.544
		C203.663,14.221,205.923,12.604,206.838,14.688z"/>
	<path fill="#FFFFFF" d="M381.15,58.356c-2.483-1.202-0.208-2.93-0.482-4.379C383.885,55.101,381.263,56.868,381.15,58.356z"/>
	<path fill="#FFFFFF" d="M128.032,6.952c0.219-0.031,0.435-0.061,0.65-0.091c0.437,0.479,0.875,0.96,1.314,1.438
		c-0.625,1.527-1.251,3.054-1.877,4.583C128.089,10.907,128.062,8.929,128.032,6.952z"/>
	<path fill="#FFFFFF" d="M169.181,94.074c1.296,0.418,2.602-0.93,3.892,0.02c-1.005,1.254-2.693,1.213-3.912,2.062
		c-0.26,0.203-0.525,0.225-0.801,0.031C167.605,95.082,168.939,94.789,169.181,94.074z"/>
	<path fill="#FFFFFF" d="M42.803,74.169c1.608,0.232,3.499-0.123,4.191,2.014C44.862,77.037,43.578,76.132,42.803,74.169z"/>
	<path fill="#FFFFFF" d="M132.706,23.376c0.541-0.297,1.084-0.593,1.9-1.04c-0.197,1.988-0.694,3.621-1.905,5.013
		c-0.738-1.319-1.193-2.64-0.003-3.961L132.706,23.376z"/>
	<path fill="#FFFFFF" d="M557.626,54.587c-1.147,0.955-2.315,0.801-3.497,0.07C555.23,51.326,556.425,52.778,557.626,54.587z"/>
	<path fill="#FFFFFF" d="M629.438,54.484c2.352-0.036,2.038,2.027,2.647,3.362c-0.593-0.073-1.189-0.15-1.781-0.224
		c-0.573-0.303-0.547-0.727-0.239-1.206C629.854,55.773,629.646,55.13,629.438,54.484z"/>
	<path fill="#FFFFFF" d="M379.433,51.188c-0.89-0.819,0.255-1.738-0.127-2.581c0.219-0.36,0.482-0.397,0.79-0.109
		c0.577,1.53,1.522,0.018,2.261,0.212C382.311,50.702,380.585,50.598,379.433,51.188z"/>
	<path fill="#FFFFFF" d="M207.931,95.402c1.539-0.773,3.141-0.873,4.792-0.441C211.281,96.832,209.665,96.755,207.931,95.402z"/>
	<path fill="#FFFFFF" d="M323.226,34.635c-1.461-0.073-2.44-0.963-3.337-1.991C321.243,32.906,323.472,31.697,323.226,34.635z"/>
	<path fill="#FFFFFF" d="M735.968,58.335c-0.658,0.29-1.32,0.579-1.981,0.869c-0.609,0.176-0.786-0.104-0.697-0.663
		c0.068-0.654-0.473-1.642,0.622-1.775C734.952,56.636,735.597,57.395,735.968,58.335z"/>
	<path fill="#FFFFFF" d="M624.224,33.411c0.168,1.062-0.158,1.81-1.309,2.018c0.355-1.067-1.527-2.043-0.277-3.003
		C623.308,31.912,623.994,32.573,624.224,33.411z"/>
	<path fill="#FFFFFF" d="M726.695,18.025c-1.053-0.624-2.103-1.25-3.155-1.875c-0.205-0.114-0.308-0.26-0.305-0.436
		c0.003-0.194,0.034-0.29,0.083-0.29c1.36,0.239,3.114-0.227,3.419,1.905c0.178,0.166,0.231,0.326,0.16,0.476
		C726.827,17.952,726.76,18.025,726.695,18.025z"/>
	<path fill="#FFFFFF" d="M608.265,35.324c-0.248-0.601-0.494-1.202-0.741-1.802c1.857-0.77,2.564,0.145,2.726,1.862
		C609.571,35.875,608.913,35.742,608.265,35.324z"/>
	<path fill="#FFFFFF" d="M51.926,79.539c0.438,1.711-0.102,2.406-1.121,2.756c-0.23,0.08-0.799-0.119-0.818-0.25
		C49.772,80.664,51.115,80.556,51.926,79.539z"/>
	<path fill="#FFFFFF" d="M543.52,37.244c-1.119,1.116-2.239,2.232-3.356,3.349C540.098,38.287,540.816,36.773,543.52,37.244z"/>
	<path fill="#FFFFFF" d="M501.084,5.003c-1.156,0.041-2.528,1.096-3.301-0.694c0.341-0.539,0.68-1.08,1.456-0.663
		c0.656,0.295,1.241-0.68,1.911-0.104C501.129,4.027,501.104,4.515,501.084,5.003z"/>
	<path fill="#FFFFFF" d="M783.676,49.93c0.023-2.086,0.048-4.174,0.075-6.26C785.569,45.777,784.729,47.854,783.676,49.93z"/>
	<path fill="#FFFFFF" d="M525.433,68.417c-1.043-1.643-0.243-2.137,1.338-2.148c0.278,0.258,0.557,0.518,0.834,0.779
		c0.422,0.855-0.352,1.326-0.631,1.957C526.459,68.808,525.945,68.613,525.433,68.417z"/>
	<path fill="#FFFFFF" d="M703.627,27.331c0.556,0.771,1.325,1.42,1.438,2.605c-1.153,0.605-1.906-0.671-2.891-0.654
		C701.952,28.105,703.171,28.003,703.627,27.331z"/>
	<path fill="#FFFFFF" d="M233.175,30.703c-0.799,0.025-1.601,0.047-2.401,0.071c0.051-1.217,0.745-2.035,1.688-2.693
		c0.703,0.166,0.413,0.919,0.765,1.29C233.209,29.814,233.19,30.26,233.175,30.703z"/>
	<path fill="#FFFFFF" d="M602.475,28.271c0.497,0.163,1.077,0.303,1.028,0.965c-0.034,0.49-0.492,0.67-0.933,0.614
		c-0.558-0.07-1.024-0.375-1.012-0.991C601.571,28.33,602.013,28.232,602.475,28.271z"/>
	<path fill="#FFFFFF" d="M85.858,12.739c1.872-0.137,1.328,1.041,1.109,2.042C85.829,14.519,83.872,14.701,85.858,12.739z"/>
	<path fill="#FFFFFF" d="M724.793,36.06c0.417,0.209,0.831,0.417,1.249,0.626c0.358,0.285,0.461,0.66,0.371,1.097
		c-0.186,0.422-0.612,0.521-0.968,0.709c-1.189,0.52-1.495-0.528-2.044-1.149C723.46,36.471,724.211,36.359,724.793,36.06z"/>
	<path fill="#FFFFFF" d="M342.561,54.392c1.236,0.148,2.568,0.239,1.216,1.98c-0.935,0.51-1.423,0.042-1.783-0.782
		C341.716,54.952,341.847,54.543,342.561,54.392z"/>
	<path fill="#FFFFFF" d="M724.793,36.06c-0.463,0.426-0.927,0.854-1.392,1.281c-0.775-0.816-2.001-1.289-2.042-2.67
		C722.505,35.134,723.647,35.597,724.793,36.06z"/>
	<path fill="#FFFFFF" d="M88.488,93.443c0.923,0.074,1.842,0.146,2.768,0.221c-0.37,0.496,0.236,1.713-0.353,1.549
		C90.022,94.966,88.217,95.421,88.488,93.443z"/>
	<path fill="#FFFFFF" d="M731.355,38.709c1.81-0.291,2.865,0.318,2.755,2.314C732.422,41.17,732.437,39.291,731.355,38.709z"/>
	<path fill="#FFFFFF" d="M53.234,59.122c-1.081-0.649-2.161-1.3-3.243-1.95C51.488,57.131,53.33,56.515,53.234,59.122z"/>
	<path fill="#FFFFFF" d="M701.511,53.21c0.697-0.278,1.399-0.437,2.118-0.071c0.799,0.429,0.777,1.146,0.088,1.402
		C702.632,54.942,702.011,54.058,701.511,53.21z"/>
	<path fill="#FFFFFF" d="M532.166,71.001c0.809-0.66,1.558-1.443,2.741-1.326C534.62,71.417,533.84,72.128,532.166,71.001z"/>
	<path fill="#FFFFFF" d="M284.775,32.675c-0.428-0.248-0.858-0.497-1.287-0.745c0.334-0.7,0.461-1.996,1.53-1.419
		C285.829,30.947,285.428,31.997,284.775,32.675z"/>
	<path fill="#FFFFFF" d="M490.344,2.793c1.623-0.474,2.215,0.275,3.085,1.296C491.859,4.428,491.228,3.758,490.344,2.793z"/>
	<path fill="#FFFFFF" d="M488.125,1.372c0.51,0.043,0.742,0.387,0.822,0.83c0.085,0.471-0.081,0.895-0.581,0.98
		c-0.537,0.095-0.774-0.288-0.779-0.772C487.585,1.988,487.6,1.538,488.125,1.372z"/>
	<path fill="#FFFFFF" d="M137.942,95.398c0.334,0.807,1.39,1.514,0.405,2.502c-0.153,0.154-0.686,0.188-0.829,0.051
		c-0.748-0.705-0.26-1.566-0.189-2.375C137.458,95.255,137.662,95.197,137.942,95.398z"/>
	<path fill="#FFFFFF" d="M711.59,16.853c-0.053,0.432-0.107,0.867-0.163,1.299c-2.135,0.046-1.985-1.255-1.783-2.71
		C710.898,15.319,710.64,16.843,711.59,16.853z"/>
	<path fill="#FFFFFF" d="M502.413,94.195c1.313,0.457,2.816-0.355,4.059,0.605C504.859,96.322,503.512,96.095,502.413,94.195z"/>
	<path fill="#FFFFFF" d="M547.566,34.656c-0.075-0.231-0.15-0.461-0.227-0.692c1.177-1.912,3.048-1.272,4.74-1.297
		c-0.471,0.222-0.943,0.441-1.416,0.661c-0.542,0.631-1.292,0.641-2.037,0.673C548.275,34.22,547.92,34.438,547.566,34.656z"/>
	<path fill="#FFFFFF" d="M298.069,82.345c2.682,1.305-0.196,1.791-0.394,2.672C295.646,83.808,298.167,83.269,298.069,82.345z"/>
	<path fill="#FFFFFF" d="M277.645,30.021c-0.446-0.43-1.867-0.454-1.055-1.37c0.463-0.525,1.868-0.555,2.259,0.788
		C278.521,29.787,278.305,30.365,277.645,30.021z"/>
	<path fill="#FFFFFF" d="M48.68,41.198c0.556-0.726,1.39-0.389,2.094-0.545c0.039,0.553,0.902,1.283-0.008,1.603
		C49.936,42.551,49.245,41.825,48.68,41.198z"/>
	<path fill="#FFFFFF" d="M738.43,41.367c0.975,0.771,1.946,1.542,2.921,2.314C738.934,44.728,738.701,43.024,738.43,41.367z"/>
	<path fill="#FFFFFF" d="M744.545,74.304c0.909-0.4,1.818-0.803,2.728-1.207C746.774,74.427,746.583,76.457,744.545,74.304z"/>
	<path fill="#FFFFFF" d="M296.396,73.078c0.44,1.779-0.278,2.268-1.388,2.729C295.279,74.798,295.31,73.878,296.396,73.078z"/>
	<path fill="#FFFFFF" d="M735.87,20.871c0.215-0.656-0.007-1.665,1.111-1.606c0.277,0.015,0.802,0.612,0.746,0.812
		c-0.273,0.984-1.238,0.532-1.898,0.758C735.832,20.834,735.87,20.871,735.87,20.871z"/>
	<path fill="#FFFFFF" d="M398.073,43.934c0.073,0.662,1.217,1.317,0.018,1.99c-0.551-0.414-1.604-0.453-1.38-1.457
		C396.839,43.889,397.558,43.979,398.073,43.934z"/>
	<path fill="#FFFFFF" d="M435.079,27.411c-0.173,0.505-0.224,1.321-0.551,1.457c-0.751,0.308-0.763-0.502-0.895-0.989
		c-0.355-1.293,0.709-1.064,1.372-1.257c0.171,0.161,0.236,0.331,0.202,0.514S435.13,27.411,435.079,27.411z"/>
	<path fill="#FFFFFF" d="M286.78,54.949c0.697-0.938,1.716-1.062,2.772-1.096C289.616,56.721,287.913,55.112,286.78,54.949z"/>
	<path fill="#FFFFFF" d="M52.861,19.647c0.088,1.562-1.265,1.394-2.15,1.789C50.516,19.743,51.464,19.426,52.861,19.647z"/>
	<path fill="#FFFFFF" d="M245.859,52.457c1.34,0.07,2.795-0.559,3.947,0.65c-0.722-0.005-1.396-0.219-2.137,0.298
		C246.712,54.07,245.8,54.04,245.859,52.457z"/>
	<path fill="#FFFFFF" d="M307.93,94.712c1.255-1.086,2.702-0.58,4.099-0.504c-0.256,0.365,1.361,1.77-0.395,1.107
		C310.358,94.839,309.17,94.851,307.93,94.712z"/>
	<path fill="#FFFFFF" d="M114.525,0.524c-0.148,0.626-0.512,0.856-0.966,0.729c-0.236-0.064-0.576-0.418-0.56-0.615
		c0.041-0.489,0.487-0.703,0.933-0.62C114.17,0.063,114.359,0.373,114.525,0.524z"/>
	<path fill="#FFFFFF" d="M624.206,37.994c0,0.419,0.001,0.838,0.003,1.256c0.416,0.835-0.178,1.312-0.646,1.837
		C623.139,39.922,621.056,38.414,624.206,37.994z"/>
	<path fill="#FFFFFF" d="M378.235,97.312c-0.853,0-1.271,0.098-1.618-0.02c-0.623-0.211-0.685-0.756-0.404-1.266
		c0.076-0.139,0.585-0.219,0.729-0.109C377.324,96.207,377.612,96.617,378.235,97.312z"/>
	<path fill="#FFFFFF" d="M358.96,30.562c-0.913,0.928-1.839,0.397-2.763,0.026C357.116,30.379,358.02,28.255,358.96,30.562z"/>
	<path fill="#FFFFFF" d="M16.381,62.345c0.438,0.055,0.875,0.107,1.315,0.164c0.355,0.658,0.509,1.297-0.188,1.85
		c-0.738-0.395-1.869,0.375-2.308-0.486C14.721,62.935,16.291,63.117,16.381,62.345z"/>
	<path fill="#FFFFFF" d="M761.235,70.902c-0.247,0.131-0.583,0.398-0.955,0.477c-0.342,0.072-0.71-0.248-0.531-0.572
		c0.183-0.326,0.6-0.6,0.972-0.713C761.064,69.988,761.291,70.292,761.235,70.902z"/>
	<path fill="#FFFFFF" d="M526.974,69.005c0.211-0.652,0.421-1.307,0.631-1.957c0.825,0.127,1.764-0.057,2.375,0.922
		C528.937,68.294,527.79,68.21,526.974,69.005z"/>
	<path fill="#FFFFFF" d="M453.074,35.383c-0.098,1.428-1.206,1.26-2.145,1.361C450.384,34.303,451.778,34.922,453.074,35.383z"/>
	<path fill="#FFFFFF" d="M87.118,19.491c-0.039,0.658-0.075,1.318-0.114,1.977c-1.43,0.717-1.258-0.422-1.348-1.191
		C85.491,18.837,86.597,19.689,87.118,19.491z"/>
	<path fill="#FFFFFF" d="M109.493,4.26c-0.134-0.557-0.88-1.056-0.332-1.659c0.31-0.342,0.814-0.074,1.029,0.296
		c0.455,0.783-0.122,1.092-0.717,1.36L109.493,4.26z"/>
	<path fill="#FFFFFF" d="M345.642,59.747c0.039,0.851,0.078,1.702,0.119,2.553C344.177,61.52,343.608,60.695,345.642,59.747z"/>
	<path fill="#FFFFFF" d="M639.29,71.515c0.135,1.121,1.706,1.551,1.387,2.889C638.844,74.099,637.959,73.339,639.29,71.515z"/>
	<path fill="#FFFFFF" d="M617.614,57.833c-0.017-0.686-0.029-1.373-0.043-2.062c0.643,0.235,1.796-0.43,1.893,0.561
		C619.555,57.287,618.229,57.297,617.614,57.833z"/>
	<path fill="#FFFFFF" d="M85.927,16.697c0.646,0.318,0.534,0.855,0.405,1.4c-0.688,0.169-1.589,0.572-1.77-0.458
		C84.434,16.904,85.359,16.874,85.927,16.697z"/>
	<path fill="#FFFFFF" d="M120.785,94.212c1.139,0.58,2.184-2.082,3.36-0.098C123.042,94.72,121.943,95.539,120.785,94.212z"/>
	<path fill="#FFFFFF" d="M223.984,97.443c0.633,0.197,0.901-0.373,1.32-0.627c0.224,0.715,0.587,1.551-0.526,1.762
		C223.97,98.734,223.564,98.3,223.984,97.443z"/>
	<path fill="#FFFFFF" d="M673.081,108.593c0.268-0.592,0.59-1.127,1.313-1.23c0.409,0.293,1.147,0.666,0.867,1.102
		C674.722,109.289,673.842,108.941,673.081,108.593z"/>
	<path fill="#FFFFFF" d="M239.85,88.345c0.156,0.082,0.546,0.156,0.658,0.375c0.183,0.357-0.137,0.629-0.479,0.619
		c-0.281-0.01-0.697-0.135-0.808-0.34C239.036,88.652,239.35,88.439,239.85,88.345z"/>
	<path fill="#FFFFFF" d="M511.761,95.412c0.189-0.1,0.382-0.111,0.58-0.035c0.231,0.676,0.64,1.375-0.145,1.955
		c-0.136,0.102-0.478,0.135-0.573,0.043C510.897,96.685,511.592,96.06,511.761,95.412z"/>
	<path fill="#FFFFFF" d="M662.457,120.687c0.955-0.234,1.884-0.322,2.639,0.502C663.595,124.289,663.218,121.48,662.457,120.687z"/>
	<path fill="#FFFFFF" d="M349.051,31.211c-0.476,0.01-0.951,0.02-1.426,0.028c0.166-0.843-0.714-2.347,0.719-2.356
		C349.513,28.876,347.861,30.675,349.051,31.211z"/>
	<path fill="#FFFFFF" d="M104.896,94.177c0.887-0.754,1.786-0.279,2.685-0.027C106.706,96.306,105.811,96.119,104.896,94.177z"/>
	<path fill="#FFFFFF" d="M149.889,94.82c0.153-0.123,0.321-0.152,0.509-0.088c0.46,0.504,0.826,1.051,0.5,1.758
		c-0.057,0.121-0.364,0.127-0.556,0.188C150.19,96.056,150.039,95.439,149.889,94.82z"/>
	<path fill="#FFFFFF" d="M343.329,80.277c-0.376-0.689-0.729-1.354-0.049-1.982c0.111-0.102,0.704,0.061,0.794,0.238
		C344.472,79.335,344.021,79.849,343.329,80.277z"/>
	<path fill="#FFFFFF" d="M236.685,47.854c-0.146-0.155-0.208-0.339-0.184-0.553c0.456-0.473,0.91-0.997,1.648-0.824
		c0.15,0.035,0.363,0.575,0.279,0.715C238.039,47.827,237.327,47.783,236.685,47.854z"/>
	<path fill="#FFFFFF" d="M84.18,22.276c0.144,0.218,0.471,0.534,0.562,0.907c0.088,0.36-0.323,0.643-0.613,0.468
		c-0.327-0.197-0.622-0.588-0.738-0.955C83.283,22.35,83.585,22.133,84.18,22.276z"/>
	<path fill="#FFFFFF" d="M645.753,95.289c-0.498,0.633-0.611,0.777-0.724,0.92c-0.31-0.285-0.705-0.521-0.901-0.871
		c-0.184-0.322,0.035-0.658,0.463-0.541C645.02,94.916,645.416,95.142,645.753,95.289z"/>
	<path fill="#FFFFFF" d="M234.866,67.453c-1.196,0.295-1.874,0.506-2.702,0.09C232.885,66.333,233.677,66.904,234.866,67.453z"/>
	<path fill="#FFFFFF" d="M247.926,69.89c-0.396,0.287-0.601,0.551-0.846,0.588c-0.474,0.074-0.802-0.223-0.734-0.703
		c0.03-0.23,0.413-0.629,0.51-0.594C247.194,69.3,247.479,69.576,247.926,69.89z"/>
	<path fill="#FFFFFF" d="M620.642,70.154c-0.404,0.207-0.668,0.461-0.88,0.422c-0.256-0.047-0.47-0.342-0.701-0.529
		c0.235-0.166,0.467-0.463,0.699-0.463C619.998,69.582,620.236,69.875,620.642,70.154z"/>
	<path fill="#FFFFFF" d="M168.359,96.185c0.268-0.01,0.533-0.02,0.801-0.029c0.435,0.471,0.394,0.955-0.088,1.328
		c-0.194,0.148-0.67,0.23-0.802,0.107C167.774,97.14,168.264,96.658,168.359,96.185z"/>
	<path fill="#FFFFFF" d="M584.85,91.966c0.341,0.531,0.683,1.064,1.023,1.594c-0.314,0.76-0.955,0.988-1.523,0.502
		C583.292,93.164,584.436,92.617,584.85,91.966z"/>
	<path fill="#FFFFFF" d="M286.764,96.57c-0.324,0.361-0.488,0.693-0.738,0.775c-0.181,0.059-0.473-0.209-0.713-0.332
		c0.174-0.232,0.306-0.57,0.536-0.668C286.045,96.263,286.358,96.458,286.764,96.57z"/>
	<path fill="#FFFFFF" d="M707.915,70.677c0.383-0.285,0.609-0.59,0.868-0.617c0.521-0.051,0.826,0.268,0.633,0.807
		c-0.111,0.297-0.373,0.537-0.569,0.801C708.563,71.369,708.28,71.066,707.915,70.677z"/>
	<path fill="#FFFFFF" d="M405.019,99.455c-0.672-0.416-0.913-0.564-1.154-0.715c0.219-0.158,0.434-0.438,0.655-0.439
		c0.243-0.004,0.626,0.193,0.703,0.395C405.302,98.908,405.089,99.23,405.019,99.455z"/>
	<path fill="#FFFFFF" d="M636.609,112.07c-0.299,1.043-0.885,1.525-1.483,1.283c-1.077-0.439-0.042-0.676,0.24-0.877
		C635.604,112.302,635.946,112.275,636.609,112.07z"/>
	<path fill="#FFFFFF" d="M137.436,82.912c0.463,0.363,1.553,0.166,1.387,1.008c-0.173,0.861-0.926,0.678-1.523,0.23
		C136.935,83.691,137,83.283,137.436,82.912z"/>
	<path fill="#FFFFFF" d="M388.105,75.046c-0.361-0.574-1.336-0.529-1.409-1.391c0.726,0.178,1.67-1.076,2.19,0.316
		C389.141,74.646,388.717,74.941,388.105,75.046z"/>
	<path fill="#FFFFFF" d="M712.082,78.191c-0.219,0.479-0.437,0.959-0.652,1.438c-0.242-0.764-2.446-0.178-1.304-1.893
		C710.793,77.82,711.49,77.775,712.082,78.191z"/>
	<path fill="#FFFFFF" d="M298.659,77.562c0.042,0.693,1.387,1.238,0.237,2.068C297.733,79.066,296.82,78.472,298.659,77.562z"/>
	<path fill="#FFFFFF" d="M215.355,10.739c-0.439,0.807-1.136,1.23-2.028,1.357C213.259,10.531,213.771,9.83,215.355,10.739z"/>
	<path fill="#FFFFFF" d="M335.843,36.361c-0.461,0.855-1.141,1.411-2.132,1.53C333.962,36.742,334.231,35.616,335.843,36.361z"/>
	<path fill="#FFFFFF" d="M90.98,27.396c0.656-0.39,1.331-0.373,2.018-0.088c-0.068,0.724-0.404,1.221-1.18,1.217
		C91.088,28.521,91.07,27.913,90.98,27.396z"/>
	<path fill="#FFFFFF" d="M438.381,56.931c1.56,0.288,2.48,0.813,0.86,2.293C438.609,58.59,438.374,57.804,438.381,56.931z"/>
	<path fill="#FFFFFF" d="M251.064,57.157c-0.839,0.195-1.679,0.39-2.518,0.585c0.002-1.842,1.786-1.223,2.63-1.902
		C251.14,56.278,251.103,56.717,251.064,57.157z"/>
	<path fill="#FFFFFF" d="M286.347,36.055c-0.242,0.609,0.104,1.891-0.914,1.64c-1.237-0.309-0.409-1.576-0.507-2.422
		C285.398,35.535,285.873,35.794,286.347,36.055z"/>
	<path fill="#FFFFFF" d="M230.095,53.059c0.425,0.018,0.851,0.036,1.275,0.056c0.38,0.325,0.757,0.656,1.136,0.985
		c-0.247,0.148-0.478,0.375-0.743,0.434C230.561,54.799,230.368,53.87,230.095,53.059z"/>
	<path fill="#FFFFFF" d="M739.345,53.828c-0.092,0.157-0.287,0.508-0.486,0.858c-0.212-0.229-0.629-0.487-0.6-0.675
		c0.062-0.38,0.284-0.878,0.592-1.033C739.238,52.778,739.323,53.234,739.345,53.828z"/>
	<path fill="#FFFFFF" d="M712.138,20.686c-0.108,0.89,0.788,1.794-0.039,2.676C711.275,22.458,710.145,21.551,712.138,20.686z"/>
	<path fill="#FFFFFF" d="M122.116,4.198c-0.456,0.474-0.914,0.946-1.368,1.418c-0.426-0.253-0.852-0.509-1.276-0.765
		C120.135,3.75,121.049,3.664,122.116,4.198z"/>
	<path fill="#FFFFFF" d="M766.406,33.988c-0.956,0.059-2.105,0.443-2.058-1.208C765.594,32.229,765.874,33.328,766.406,33.988z"/>
	<path fill="#FFFFFF" d="M134.631,33.874c-0.409-1.351,0.616-1.199,1.382-1.321c0.225,0.269,0.453,0.537,0.676,0.805
		C136.164,34.174,135.384,33.966,134.631,33.874z"/>
	<path fill="#FFFFFF" d="M170.405,34.627c-0.662,0.553-1.323,0.553-1.985,0C169.082,33.592,169.743,33.592,170.405,34.627z"/>
	<path fill="#FFFFFF" d="M334.95,33.179c0.63-0.66,1.602-0.706,1.77-0.305c0.526,1.268-0.59,0.462-0.967,0.563
		C335.545,33.493,335.271,33.291,334.95,33.179z"/>
	<path fill="#FFFFFF" d="M297.539,61.031c1.064,0.614,0.23,1.231,0.002,1.849c-0.275,0-0.75,0.088-0.795-0.014
		C296.362,62.005,297.032,61.544,297.539,61.031z"/>
	<path fill="#FFFFFF" d="M724.846,61.8c-0.162,1.247-0.699,2.051-2.125,1.819C722.984,62.49,723.703,61.899,724.846,61.8z"/>
	<path fill="#FFFFFF" d="M720.088,14.1c-0.137-0.154-0.469-0.358-0.476-0.575c-0.02-0.52,0.424-0.683,0.87-0.731
		c0.536-0.061,0.804,0.236,0.745,0.741C721.162,14.141,720.638,14.035,720.088,14.1z"/>
	<path fill="#FFFFFF" d="M139.315,29.336c0.492-0.728,1.033-1.313,1.983-0.662C140.945,29.814,140.172,29.699,139.315,29.336z"/>
	<path fill="#FFFFFF" d="M433.039,41.237c-0.752-0.721-1.04-1.578-0.786-2.602C433.207,39.294,434.703,39.786,433.039,41.237z"/>
	<path fill="#FFFFFF" d="M124.763,0.898c-0.222,0.003-0.443,0.006-0.664,0.01c0.896-1.342,1.809-0.411,2.72-0.021
		c-0.238,0.246-0.478,0.492-0.716,0.738C125.34,1.967,125.121,1.304,124.763,0.898z"/>
	<path fill="#FFFFFF" d="M753.829,27.368c-0.93,0.134-1.825,2.771-2.797,0.041C751.966,27.272,752.889,26.72,753.829,27.368z"/>
	<path fill="#FFFFFF" d="M376.023,40.606c-1.028-0.341-1.448-1.211-1.84-2.107C375.594,38.507,376.405,39.035,376.023,40.606z"/>
	<path fill="#FFFFFF" d="M318.539,29.686c-0.272,0.194-0.665,0.477-1.058,0.76c-0.115-0.238-0.388-0.604-0.317-0.688
		c0.251-0.304,0.588-0.579,0.946-0.733C318.461,28.873,318.683,29.075,318.539,29.686z"/>
	<path fill="#FFFFFF" d="M186.942,90.191c-0.641,0.576-1.277,1.172-1.981,0.078c0.086-0.787,0.134-1.611,1.287-1.457
		c0.231,0.238,0.462,0.479,0.694,0.719C186.942,89.75,186.942,89.97,186.942,90.191z"/>
	<path fill="#FFFFFF" d="M714.142,32.795c-0.12,0.484-0.302,1.397-0.346,1.391c-0.999-0.146-0.719-1.051-0.924-1.687
		C713.379,32.243,713.824,32.248,714.142,32.795z"/>
	<path fill="#FFFFFF" d="M344.223,89.486c0.181,0.256,0.41,0.51,0.38,0.549c-0.162,0.201-0.395,0.348-0.6,0.512
		c-0.109-0.148-0.346-0.357-0.309-0.436C343.801,89.882,344.021,89.708,344.223,89.486z"/>
	<path fill="#FFFFFF" d="M137.942,95.398c-0.207,0.047-0.412,0.105-0.613,0.176c-0.727-0.498-1.199-1.164-1.348-2.045
		c0.163-0.117,0.343-0.148,0.535-0.104C136.992,94.085,137.468,94.74,137.942,95.398z"/>
	<path fill="#FFFFFF" d="M238.787,90.683c-0.507,0.146-0.774,0.287-1.035,0.275c-0.168-0.01-0.419-0.219-0.464-0.387
		c-0.124-0.439,0.222-0.592,0.549-0.518C238.104,90.113,238.326,90.365,238.787,90.683z"/>
	<path fill="#FFFFFF" d="M446.982,37.978c-0.175-0.427-0.165-0.902,0.366-0.904c0.825-0.002,0.786,0.76,0.914,1.331
		C447.507,39.244,447.328,38.365,446.982,37.978z"/>
	<path fill="#FFFFFF" d="M389.304,18.096c-0.212,0.19-0.407,0.438-0.471,0.409c-0.245-0.115-0.45-0.319-0.668-0.49
		c0.135-0.121,0.306-0.367,0.396-0.339C388.814,17.749,389.038,17.937,389.304,18.096z"/>
	<path fill="#FFFFFF" d="M181.741,92.087c0.232,0.25,0.467,0.498,0.698,0.748c-0.266,1.154-1.107,1.377-2.128,1.312
		C180.787,93.46,181.265,92.773,181.741,92.087z"/>
	<path fill="#FFFFFF" d="M547.625,91.39c0.614,0.238,1.228,0.48,1.842,0.721c-0.428,0.41-1.006,1.24-1.257,1.15
		C547.406,92.976,547.998,91.986,547.625,91.39z"/>
	<path fill="#FFFFFF" d="M608.265,35.324c0.66,0.02,1.323,0.039,1.983,0.061c0.039,0.609,0.08,1.221,0.117,1.832
		C609.506,36.764,608.694,36.257,608.265,35.324z"/>
	<path fill="#FFFFFF" d="M194.218,92.835c-1.364-0.596-1.259-1.561-0.66-2.645C194.769,90.824,194.794,91.755,194.218,92.835z"/>
	<path fill="#FFFFFF" d="M228.648,18.929c-0.143-0.136-0.354-0.336-0.566-0.534c0.145-0.146,0.3-0.419,0.435-0.409
		c0.277,0.021,0.694,0.123,0.781,0.314C229.449,18.644,229.17,18.88,228.648,18.929z"/>
	<path fill="#FFFFFF" d="M621.487,36.737c-0.134,0.178-0.246,0.432-0.337,0.424c-0.305-0.026-0.702-0.056-0.877-0.248
		c-0.269-0.306-0.059-0.64,0.336-0.603C620.901,36.337,621.173,36.578,621.487,36.737z"/>
	<path fill="#FFFFFF" d="M355.068,28.783c-0.106-0.253-0.241-0.489-0.287-0.741c-0.01-0.056,0.41-0.271,0.443-0.235
		c0.174,0.191,0.291,0.438,0.429,0.664C355.488,28.557,355.327,28.645,355.068,28.783z"/>
	<path fill="#FFFFFF" d="M529.423,28.706c-0.196-0.225-0.41-0.4-0.518-0.625c-0.034-0.078,0.202-0.284,0.316-0.431
		c0.203,0.168,0.43,0.316,0.591,0.519C529.844,28.205,529.609,28.454,529.423,28.706z"/>
	<path fill="#FFFFFF" d="M703.627,27.331c-0.062,0.967-0.827,1.408-1.455,1.951C701.616,27.855,702.521,27.517,703.627,27.331z"/>
	<path fill="#FFFFFF" d="M274.688,28.871c-0.204,0.07-0.489,0.278-0.717,0.227c-0.374-0.083-0.815-0.31-0.679-0.795
		c0.036-0.124,0.565-0.157,0.865-0.143C274.484,28.174,274.778,28.315,274.688,28.871z"/>
	<path fill="#FFFFFF" d="M666.87,123.087c-0.151,0.123-0.297,0.238-0.438,0.354c-0.11-0.146-0.31-0.289-0.315-0.443
		c-0.023-0.354,0.176-0.605,0.557-0.436C666.794,122.619,666.807,122.908,666.87,123.087z"/>
	<path fill="#FFFFFF" d="M468.135,31.23c-0.924,0.058-1.657-0.261-2.133-1.085C467.506,28.941,467.868,29.997,468.135,31.23z"/>
	<path fill="#FFFFFF" d="M304.84,27.343c-0.229,0.1-0.498,0.242-0.785,0.33c-0.38,0.111-0.706-0.069-0.634-0.444
		c0.036-0.195,0.449-0.397,0.719-0.445C304.438,26.733,304.806,26.797,304.84,27.343z"/>
	<path fill="#FFFFFF" d="M462.181,31.855c-0.472,0.037-0.943,0.078-1.415,0.115c-0.29-0.526-0.577-1.056-0.927-1.698
		C461.092,30.313,461.657,31.055,462.181,31.855z"/>
	<path fill="#FFFFFF" d="M206.137,98.125c-0.317-0.703-0.802-1.406-0.012-2.117C206.72,96.71,207.251,97.414,206.137,98.125z"/>
	<path fill="#FFFFFF" d="M525.533,32.095c-1.108-0.535-1.35-1.233-0.412-2.159C526.53,30.413,525.913,31.274,525.533,32.095z"/>
	<path fill="#FFFFFF" d="M611.092,95.388c0.122-0.102,0.266-0.156,0.427-0.162c-0.073,0.6-0.044,1.262-0.736,1.545
		c-0.115,0.047-0.443-0.107-0.471-0.221C610.158,95.912,610.696,95.689,611.092,95.388z"/>
	<path fill="#FFFFFF" d="M551.526,96.13c-0.142,0.133-0.283,0.369-0.426,0.369c-0.142-0.002-0.281-0.238-0.422-0.375
		c0.142-0.131,0.284-0.365,0.426-0.365S551.386,95.996,551.526,96.13z"/>
	<path fill="#FFFFFF" d="M638.747,30.68c-0.556,0.75-1.34,0.602-2.104,0.538C637.043,29.855,637.75,29.702,638.747,30.68z"/>
	<path fill="#FFFFFF" d="M390.373,26.819c-0.192-0.18-0.452-0.329-0.434-0.424c0.061-0.302,0.145-0.717,0.361-0.843
		c0.424-0.244,0.565,0.157,0.502,0.477C390.746,26.31,390.522,26.559,390.373,26.819z"/>
	<path fill="#FFFFFF" d="M433.588,24.2c-2.123-0.315-1.094-1.279-0.444-2.16C434.134,22.587,434.019,23.361,433.588,24.2z"/>
	<path fill="#FFFFFF" d="M227.021,22.677c0.202,0.471,0.375,0.729,0.402,1.001c0.017,0.158-0.171,0.434-0.327,0.492
		c-0.4,0.151-0.609-0.104-0.541-0.478C226.605,23.41,226.794,23.156,227.021,22.677z"/>
	<path fill="#FFFFFF" d="M605.794,94.689c0.419-0.164,0.838-0.33,1.255-0.496c-0.295,0.564,0.743,1.701-0.647,1.746
		C605.693,95.964,605.714,95.255,605.794,94.689z"/>
	<path fill="#FFFFFF" d="M517.61,94.65c0.312-0.668,0.847-0.572,1.401-0.414c0.137,0.484,0.438,1.092-0.279,1.285
		C518.138,95.683,517.884,95.078,517.61,94.65z"/>
	<path fill="#FFFFFF" d="M456.16,33.745c-0.443,0.058-0.882,0.114-1.324,0.17c-0.134-0.475-0.448-1.118,0.208-1.297
		C455.84,32.399,455.957,33.189,456.16,33.745z"/>
	<path fill="#FFFFFF" d="M178.954,94.195c0.463-0.006,0.929-0.012,1.394-0.018c-0.792,0.525,0.052,2.494-1.822,2.061
		C178.316,95.484,178.519,94.816,178.954,94.195z"/>
	<path fill="#FFFFFF" d="M142.612,94.128c0.131,0.176,0.146,0.363,0.049,0.557c0.038,0.396,0.416,0.881-0.138,1.125
		c-0.162,0.07-0.625-0.225-0.757-0.459C141.257,94.443,141.938,94.271,142.612,94.128z"/>
	<path fill="#FFFFFF" d="M111.408,94.216c0.498,0.213,0.995,0.426,1.492,0.641c-0.358,0.658-0.819,1.43-1.634,0.984
		C110.468,95.408,111.299,94.767,111.408,94.216z"/>
	<path fill="#FFFFFF" d="M726.695,18.025c0.013-0.231,0.03-0.464,0.042-0.695c0.864,0.188,2.062-0.117,2.021,1.385
		C728.004,18.695,727.283,18.559,726.695,18.025z"/>
	<path fill="#FFFFFF" d="M441.115,76.367c0.158,0.641,0.313,1.279,0.471,1.92c-1.745,0.18-1.538-0.889-1.277-1.994
		C440.601,76.085,440.869,76.111,441.115,76.367z"/>
	<path fill="#FFFFFF" d="M380.096,48.497c-0.262,0.036-0.524,0.071-0.79,0.109c-2.315-0.657-0.054-1.431-0.056-2.146
		C379.53,47.142,379.814,47.817,380.096,48.497z"/>
	<path fill="#FFFFFF" d="M241.647,50.727c-0.382,0.195-0.616,0.314-0.85,0.434c-0.117-0.261-0.273-0.519-0.327-0.794
		c-0.015-0.07,0.35-0.327,0.437-0.285C241.144,50.2,241.322,50.429,241.647,50.727z"/>
	<path fill="#FFFFFF" d="M236.647,76.958c-0.002-0.223-0.004-0.447-0.005-0.67c0.385-0.285,0.733-0.857,1.266-0.309
		c0.172,0.174,0.275,0.656,0.162,0.82C237.698,77.322,237.136,76.97,236.647,76.958z"/>
	<path fill="#FFFFFF" d="M627.491,75.71c-0.77,0.191-1.537,0.385-2.306,0.578c0.079-1.232,1.073-1.436,1.959-1.537
		C627.601,74.695,627.682,75.265,627.491,75.71z"/>
	<path fill="#FFFFFF" d="M566.954,52.798c-0.184,0.071-0.454,0.266-0.724,0.261c-0.483-0.01-0.797-0.328-0.536-0.8
		c0.1-0.178,0.553-0.25,0.826-0.222C566.825,52.072,567.11,52.279,566.954,52.798z"/>
	<path fill="#FFFFFF" d="M630.064,56.417c0.078,0.402,0.16,0.806,0.239,1.206c-0.571-0.027-1.45,0.353-1.582-0.405
		C628.566,56.336,629.57,56.643,630.064,56.417z"/>
	<path fill="#FFFFFF" d="M288.845,71.792c-0.51,0.834-1.062,1.525-2.082,0.605C287.453,72.187,287.763,70.66,288.845,71.792z"/>
	<path fill="#FFFFFF" d="M31.14,71.632c0.242,0.188,0.556,0.326,0.707,0.564c0.22,0.348,0.037,0.65-0.373,0.543
		c-0.268-0.068-0.492-0.355-0.684-0.588C30.758,72.113,30.986,71.855,31.14,71.632z"/>
	<path fill="#FFFFFF" d="M293.932,60.574c-0.141-0.29-0.31-0.534-0.36-0.802c-0.021-0.107,0.217-0.269,0.336-0.404
		c0.159,0.243,0.356,0.468,0.454,0.732C294.391,60.177,294.134,60.361,293.932,60.574z"/>
	<path fill="#FFFFFF" d="M92.335,2.212c0.213,0.203,0.442,0.376,0.598,0.598c0.034,0.052-0.188,0.278-0.292,0.426
		c-0.222-0.165-0.458-0.314-0.646-0.512C91.968,2.695,92.18,2.443,92.335,2.212z"/>
	<path fill="#FFFFFF" d="M753.159,69.568c0.707-0.385,1.418-0.77,2.127-1.154C755.214,69.972,754.697,70.712,753.159,69.568z"/>
	<path fill="#FFFFFF" d="M74.508,68.369c-0.67-0.162-1.135-0.561-1.381-1.205C73.752,67.378,75.58,66.212,74.508,68.369z"/>
	<path fill="#FFFFFF" d="M226.012,65.021c0.457-0.502,1.092-1.137,1.591-0.395c0.404,0.598-0.434,0.82-0.95,0.984
		C226.341,65.521,226.128,65.324,226.012,65.021z"/>
	<path fill="#FFFFFF" d="M714.799,64.83c-0.362,0.211-0.626,0.48-0.906,0.502c-0.489,0.037-0.782-0.354-0.74-0.799
		c0.019-0.191,0.441-0.51,0.633-0.477C714.056,64.095,714.282,64.412,714.799,64.83z"/>
	<path fill="#FFFFFF" d="M99.22,1.396c-0.003-0.008,0.188,0.25,0.243,0.536c0.021,0.107-0.289,0.404-0.419,0.39
		c-0.275-0.031-0.688-0.153-0.765-0.347C98.143,1.627,98.426,1.4,99.22,1.396z"/>
	<path fill="#FFFFFF" d="M20.852,66.744c0.174,0.363,0.359,0.705,0.492,1.064c0.015,0.039-0.251,0.186-0.389,0.283
		c-0.22-0.33-0.441-0.66-0.661-0.986C20.436,67.009,20.577,66.919,20.852,66.744z"/>
	<path fill="#FFFFFF" d="M292.789,67.05c-0.51-0.902-1.318-1.904,0.653-1.994C293.696,65.876,294.4,66.843,292.789,67.05z"/>
	<path fill="#FFFFFF" d="M226.012,65.021c0.214,0.197,0.426,0.395,0.641,0.59c0.1,0.898,0.263,1.82-0.848,2.268l-0.018-0.023
		C225.863,66.91,225.938,65.964,226.012,65.021z"/>
	<path fill="#FFFFFF" d="M697.529,65.732c-0.194-0.076-0.463-0.102-0.561-0.248c-0.222-0.32-0.124-0.625,0.311-0.615
		c0.165,0.004,0.392,0.211,0.465,0.381C697.791,65.359,697.61,65.566,697.529,65.732z"/>
	<path fill="#FFFFFF" d="M399.304,5.646c-0.721,0.981-1.394,0.988-2.02-0.091C398.016,4.273,398.644,5.327,399.304,5.646z"/>
	<path fill="#FFFFFF" d="M5.13,40.137c-0.675,0.414-1.35,0.83-2.021,1.244C3.375,40.302,3.582,39.128,5.13,40.137z"/>
	<path fill="#FFFFFF" d="M624.91,79.535c0.748-0.027,1.197-0.383,1.287-1.148c0.984,1.277,0.422,1.984-0.888,2.42
		C625.174,80.382,625.042,79.958,624.91,79.535z"/>
	<path fill="#FFFFFF" d="M430.447,6.089c-1.065-0.1-1.565-0.689-1.521-1.751C430.249,4.211,430.33,5.164,430.447,6.089z"/>
	<path fill="#FFFFFF" d="M132.797,4.342c0.185,0.437,0.382,0.702,0.382,0.966c0,0.219-0.266,0.636-0.357,0.621
		c-0.275-0.047-0.522-0.261-0.782-0.407C132.196,5.275,132.355,5.029,132.797,4.342z"/>
	<path fill="#FFFFFF" d="M390.448,81.435c0.164,0.246,0.345,0.451,0.427,0.693c0.025,0.07-0.245,0.236-0.38,0.359
		c-0.18-0.197-0.375-0.385-0.515-0.605C389.962,81.851,390.227,81.642,390.448,81.435z"/>
	<path fill="#FFFFFF" d="M137.436,82.912c-0.046,0.412-0.093,0.824-0.137,1.238c-0.414,0.059-0.827,0.119-1.24,0.178
		c-0.004-0.719-0.007-1.436-0.009-2.156C136.581,82.285,137.199,82.24,137.436,82.912z"/>
	<path fill="#FFFFFF" d="M711.882,85.027c0.583-0.002,0.814,0.18,0.769,0.566c-0.065,0.527-0.512,0.574-0.922,0.645
		c-0.358,0.061-0.714-0.027-0.538-0.447C711.334,85.451,711.71,85.208,711.882,85.027z"/>
	<path fill="#FFFFFF" d="M74.562,79.023c0.117-0.717-0.241-1.525,0.405-2.143C73.525,77.347,78.567,79.042,74.562,79.023z"/>
	<path fill="#FFFFFF" d="M534.104,46.455c-0.178-0.349-0.31-0.603-0.439-0.858c0.281-0.114,0.562-0.314,0.849-0.321
		c0.321-0.008,0.691,0.192,0.437,0.603C534.806,46.109,534.466,46.217,534.104,46.455z"/>
	<path fill="#FFFFFF" d="M446.982,37.978c0.427,0.142,0.854,0.285,1.28,0.427c0.02,0.241,0.039,0.484,0.061,0.728
		c-0.498,0.498-0.995,0.995-1.492,1.492C445.765,39.676,446.963,38.862,446.982,37.978z"/>
	<path fill="#FFFFFF" d="M535.609,87.439c0.275,0.119,0.448,0.193,0.621,0.268c-0.124,0.238-0.22,0.5-0.39,0.697
		c-0.039,0.047-0.485-0.141-0.479-0.184C535.401,87.96,535.512,87.712,535.609,87.439z"/>
	<path fill="#FFFFFF" d="M723.32,15.427c0.074,0.242,0.146,0.482,0.222,0.725c-1.974,1.406-1.323-0.443-1.529-1.231
		C722.639,14.601,722.938,15.122,723.32,15.427z"/>
	<path fill="#FFFFFF" d="M573.763,27.191c-0.236,0.19-0.437,0.452-0.694,0.542c-0.35,0.119-0.598-0.132-0.43-0.459
		c0.11-0.214,0.451-0.338,0.714-0.426C573.434,26.819,573.599,27.048,573.763,27.191z"/>
	<path fill="#FFFFFF" d="M365.652,27.628c-0.178,0.05-0.365,0.153-0.524,0.124c-0.075-0.015-0.186-0.382-0.136-0.424
		c0.124-0.111,0.339-0.187,0.499-0.16C365.566,27.183,365.599,27.462,365.652,27.628z"/>
	<path fill="#FFFFFF" d="M223.852,12.845c-0.94-0.748-0.628-1.462,0.063-2.164C224.245,11.414,224.52,12.143,223.852,12.845z"/>
	<path fill="#FFFFFF" d="M309.964,28.157c-0.153-0.224-0.365-0.494-0.349-0.509c0.234-0.206,0.499-0.378,0.756-0.557
		c0.097,0.145,0.302,0.38,0.268,0.42C310.448,27.752,310.2,27.942,309.964,28.157z"/>
	<path fill="#FFFFFF" d="M233.225,29.371c-0.254-0.43-0.51-0.861-0.764-1.29c0.358-0.148,0.975-0.487,1.034-0.409
		C233.957,28.279,233.399,28.808,233.225,29.371z"/>
	<path fill="#FFFFFF" d="M146.633,26.87c0.204,0.371,0.409,0.744,0.613,1.116c-0.353,0.203-0.983,0.619-1.016,0.577
		C145.706,27.875,146.382,27.419,146.633,26.87z"/>
	<path fill="#FFFFFF" d="M118.804,1.061c-0.333,0.94-0.442,2.259-1.976,1.166C117.446,1.769,117.456,0.283,118.804,1.061z"/>
	<path fill="#FFFFFF" d="M118.804,1.061c-0.66,0.39-1.315,0.776-1.976,1.166C117.166,1.294,117.309,0.036,118.804,1.061z"/>
	<path fill="#FFFFFF" d="M433.044,20.071c-0.129-0.143-0.171-0.307-0.122-0.492c0.314-0.27,0.541-1.174,1.031-0.447
		C434.263,19.59,433.505,19.885,433.044,20.071z"/>
	<path fill="#FFFFFF" d="M417.797,4.795c-0.73,0.441-1.581,1.146-1.286-0.602C417.424,3.362,417.783,3.706,417.797,4.795z"/>
	<path fill="#FFFFFF" d="M483.849,18.003c0.005,0.278,0.008,0.556,0.011,0.831c-0.661,0.112-1.319,0.227-2.067,0.355
		C482.085,17.798,483.102,18.173,483.849,18.003z"/>
	<path fill="#FFFFFF" d="M433.651,4.574c-0.11,0.24-0.181,0.389-0.251,0.538c-0.173-0.093-0.402-0.148-0.498-0.292
		c-0.085-0.123-0.017-0.35-0.017-0.531C433.139,4.384,433.391,4.477,433.651,4.574z"/>
	<path fill="#FFFFFF" d="M742.072,20.752c0.168,0.222,0.339,0.45,0.514,0.675c-0.144,0.077-0.355,0.253-0.411,0.214
		c-0.225-0.163-0.397-0.395-0.591-0.602C741.727,20.954,741.87,20.869,742.072,20.752z"/>
	<path fill="#FFFFFF" d="M501.152,3.54c-0.631,0.171-1.242,0.697-1.912,0.104C499.873,3.543,500.404,1.577,501.152,3.54z"/>
	<path fill="#FFFFFF" d="M507.071,3.061c-0.063-0.174-0.15-0.344-0.177-0.523c-0.008-0.059,0.187-0.212,0.204-0.202
		c0.146,0.104,0.275,0.233,0.409,0.354C507.362,2.812,507.218,2.937,507.071,3.061z"/>
	<path fill="#FFFFFF" d="M42.113,23.437c-0.104-0.245-0.256-0.431-0.214-0.54c0.065-0.163,0.248-0.327,0.418-0.383
		c0.084-0.027,0.247,0.183,0.376,0.285C42.511,22.999,42.327,23.2,42.113,23.437z"/>
	<path fill="#FFFFFF" d="M485.633,3.233c-0.146-0.176-0.356-0.39-0.339-0.414c0.19-0.229,0.417-0.425,0.634-0.631
		c0.104,0.127,0.317,0.326,0.293,0.365C486.057,2.798,485.84,3.005,485.633,3.233z"/>
	<path fill="#FFFFFF" d="M413.395,2.497c-0.151,0.089-0.3,0.188-0.457,0.259c-0.015,0.007-0.168-0.178-0.146-0.224
		c0.075-0.157,0.195-0.293,0.302-0.437C413.193,2.229,413.294,2.363,413.395,2.497z"/>
	<path fill="#FFFFFF" d="M435.079,27.411c-0.024-0.265-0.047-0.528-0.073-0.791c0.224-0.332,0.639-0.821,0.888-0.438
		C436.371,26.922,435.588,27.142,435.079,27.411z"/>
	<path fill="#FFFFFF" d="M141.997,27.945c0.482-0.381,0.963-0.761,1.445-1.141c0.197,0.246,0.611,0.612,0.554,0.714
		C143.516,28.376,142.688,27.877,141.997,27.945z"/>
	<path fill="#FFFFFF" d="M511.724,5.607c-0.229,0.183-0.455,0.367-0.687,0.548c0.689-0.745-1.543-1.257-0.241-1.832
		C511.598,3.972,511.726,4.932,511.724,5.607z"/>
	<path fill="#FFFFFF" d="M707.838,37.685c-0.247,0.171-0.473,0.324-0.694,0.479c-0.066-0.149-0.221-0.332-0.179-0.438
		c0.063-0.162,0.244-0.332,0.414-0.386C707.464,37.31,707.63,37.52,707.838,37.685z"/>
	<path fill="#FFFFFF" d="M725.443,38.489c0.195-0.219,0.392-0.438,0.592-0.656c1.009-0.631,1.517,0.118,2.064,0.756l0.015-0.088
		C727.222,39.639,726.335,38.504,725.443,38.489z"/>
	<path fill="#FFFFFF" d="M780.934,39.948c-0.675-0.019-1.35-0.036-2.021-0.058c0.258-0.393-0.117-1.27,0.721-1.187
		C780.283,38.77,780.8,39.22,780.934,39.948z"/>
	<path fill="#FFFFFF" d="M60.082,82.132c0.075,0.166,0.151,0.334,0.227,0.498c-0.161,0.033-0.321,0.088-0.482,0.086
		c-0.047,0-0.155-0.209-0.129-0.24C59.804,82.343,59.948,82.242,60.082,82.132z"/>
	<path fill="#FFFFFF" d="M86.96,80.757c0.034,0.5,0.07,0.996,0.105,1.496c-0.524-0.098-1.402,0.52-1.478-0.455
		C85.532,81.089,86.3,80.855,86.96,80.757z"/>
	<path fill="#FFFFFF" d="M57.953,80.814c0.431,0.363,0.811,0.848,0.289,1.299c-0.614,0.525-0.898-0.023-1.077-0.568
		C57.1,80.951,57.377,80.722,57.953,80.814z"/>
	<path fill="#FFFFFF" d="M730.597,80.746c0.218-0.598,0.603-1.025,1.226-1.217C732.225,80.75,731.817,81.158,730.597,80.746z"/>
	<path fill="#FFFFFF" d="M57.953,80.814c-0.262,0.242-0.526,0.488-0.788,0.73c-0.199-0.477-0.395-0.957-0.594-1.434
		c0.494-0.752,0.967-0.682,1.42,0.037C57.979,80.373,57.965,80.593,57.953,80.814z"/>
	<path fill="#FFFFFF" d="M623.563,41.085c0.216-0.612,0.431-1.224,0.646-1.836c0.539,0.692,0.52,1.362-0.078,2.011
		C623.934,41.232,623.743,41.174,623.563,41.085z"/>
	<path fill="#FFFFFF" d="M618.388,43.258c-0.103,0.145-0.181,0.371-0.317,0.417c-0.3,0.1-0.592,0.002-0.52-0.388
		c0.027-0.142,0.259-0.322,0.413-0.341C618.09,42.934,618.239,43.141,618.388,43.258z"/>
	<path fill="#FFFFFF" d="M43.932,43.333c0.452-0.056,0.908-0.111,1.361-0.168c0.159,0.526,0.218,1.282-0.266,1.396
		C44.255,44.742,44.035,43.991,43.932,43.333z"/>
	<path fill="#FFFFFF" d="M733.958,77.548c0.728-0.906,1.323,0.268,2.003,0.127C735.223,78.736,734.563,78.564,733.958,77.548z"/>
	<path fill="#FFFFFF" d="M712.082,78.191c-0.682-0.023-1.444,0.299-1.956-0.455c0.477-0.297,0.947-0.592,1.425-0.887
		C712.216,77.105,712.178,77.634,712.082,78.191z"/>
	<path fill="#FFFFFF" d="M740.301,76.728c0.396-0.527,0.86-0.916,1.542-0.898c0.052,0,0.188,0.41,0.12,0.529
		C741.562,77.027,741.002,77.164,740.301,76.728z"/>
	<path fill="#FFFFFF" d="M441.115,76.367c-0.269-0.023-0.537-0.049-0.807-0.074c0.248-0.457,0.494-0.91,0.74-1.367
		c0.355,0.344,0.934,0.648,1.004,1.043C442.129,76.388,441.518,76.398,441.115,76.367z"/>
	<path fill="#FFFFFF" d="M0.34,55.11c0.399,0.514,0.501,0.641,0.602,0.771c-0.154,0.116-0.298,0.299-0.468,0.324
		C0.322,56.229-0.007,56.046,0,56.021C0.078,55.731,0.202,55.454,0.34,55.11z"/>
	<path fill="#FFFFFF" d="M130.996,56.972c0.067-0.26,0.113-0.447,0.16-0.633c0.258,0.17,0.549,0.309,0.751,0.529
		c0.073,0.08-0.066,0.355-0.107,0.542C131.527,57.262,131.254,57.113,130.996,56.972z"/>
	<path fill="#FFFFFF" d="M224.479,57.852c-1.167-0.67-0.107-1.338,0.002-2.005C225.189,56.514,225.124,57.184,224.479,57.852z"/>
	<path fill="#FFFFFF" d="M709.733,72.701c-0.29,0.178-0.515,0.314-0.738,0.453c-0.08-0.283-0.205-0.568-0.198-0.85
		c0.003-0.086-0.305-0.744,0.303-0.434C709.348,71.998,709.473,72.347,709.733,72.701z"/>
	<path fill="#FFFFFF" d="M733.29,58.539c0.234,0.222,0.466,0.443,0.701,0.663c-0.688,0.176-1.376,0.351-2.061,0.526
		C731.975,58.866,732.306,58.33,733.29,58.539z"/>
	<path fill="#FFFFFF" d="M544.815,60.382c-0.47,0.436-0.942,0.872-1.414,1.309C543.716,61.086,543.026,59.392,544.815,60.382z"/>
	<path fill="#FFFFFF" d="M70.602,62.554c-0.107-0.141-0.236-0.272-0.31-0.428c-0.021-0.044,0.129-0.243,0.166-0.234
		c0.166,0.04,0.317,0.133,0.476,0.207C70.824,62.25,70.712,62.404,70.602,62.554z"/>
	<path fill="#FFFFFF" d="M17.507,64.359c0.063-0.617,0.126-1.232,0.188-1.85c0.424,0.371,0.85,0.742,1.273,1.115
		C18.481,63.869,17.994,64.117,17.507,64.359z"/>
	<path fill="#FFFFFF" d="M69.271,65.681c-0.692-0.225-1.385-0.449-2.078-0.676C68.44,63.529,68.677,65.16,69.271,65.681z"/>
	<path fill="#FFFFFF" d="M344.486,65.767c-0.142-0.041-0.314-0.066-0.461-0.146c-0.046-0.021-0.047-0.258-0.02-0.27
		c0.151-0.061,0.317-0.082,0.48-0.113C344.486,65.416,344.486,65.591,344.486,65.767z"/>
	<path fill="#FFFFFF" d="M292.789,67.05c0.217-0.664,0.435-1.33,0.653-1.994C293.85,65.927,294.909,67.009,292.789,67.05z"/>
	<path fill="#FFFFFF" d="M529.055,65.072c-0.133,0.139-0.271,0.273-0.409,0.406c-0.104-0.152-0.221-0.299-0.298-0.467
		c-0.015-0.029,0.168-0.207,0.22-0.193C528.739,64.871,528.892,64.98,529.055,65.072z"/>
	<path fill="#FFFFFF" d="M589.219,30.601c-0.546-0.019-1.09-0.038-1.635-0.056c0.636-0.45,0.694-1.457,1.596-1.647
		C589.192,29.463,589.206,30.031,589.219,30.601z"/>
	<path fill="#FFFFFF" d="M649.798,122.531c0.702-1.047,1.41-1.979,2.231-0.09C651.304,122.919,650.548,122.644,649.798,122.531z"/>
	<path fill="#FFFFFF" d="M74.467,29.932c-0.024-0.22,0.005-0.432,0.09-0.637c0.46,0.365,1.276,0.536,0.834,1.409
		c-0.081,0.163-0.339,0.238-0.513,0.351C74.74,30.68,74.604,30.307,74.467,29.932z"/>
	<path fill="#FFFFFF" d="M277.645,30.021c0.402-0.192,0.802-0.386,1.204-0.582c-0.179,0.613-0.36,1.226-0.543,1.839
		c-0.49,0-0.982-0.004-1.473-0.004C277.104,30.856,277.372,30.438,277.645,30.021z"/>
	<path fill="#FFFFFF" d="M646.681,31.218c-0.436-0.032-0.869-0.061-1.303-0.093c0.424-0.422,0.64-1.125,1.425-1.053
		C646.762,30.455,646.721,30.835,646.681,31.218z"/>
	<path fill="#FFFFFF" d="M424.488,97.554c-0.097,0.168-0.15,0.424-0.292,0.486c-0.352,0.152-0.592-0.023-0.517-0.41
		c0.032-0.16,0.236-0.354,0.396-0.396C424.177,97.208,424.345,97.433,424.488,97.554z"/>
	<path fill="#FFFFFF" d="M672.199,29.722c0.556-0.034,0.512,0.312,0.526,0.594c0.017,0.262,0.293,0.658-0.244,0.678
		c-0.122,0.006-0.346-0.275-0.37-0.446C672.075,30.276,672.165,29.987,672.199,29.722z"/>
	<path fill="#FFFFFF" d="M99.129,96.898c0.125,0.232,0.3,0.473,0.266,0.51c-0.143,0.148-0.343,0.293-0.536,0.32
		c-0.129,0.018-0.285-0.168-0.429-0.264C98.657,97.279,98.884,97.095,99.129,96.898z"/>
	<path fill="#FFFFFF" d="M630.854,30.798c-0.525,0.852-1.33,0.415-2.036,0.439C629.372,30.514,629.974,30.014,630.854,30.798z"/>
	<path fill="#FFFFFF" d="M255.843,96.458c-0.149,0.119-0.326,0.342-0.427,0.311c-0.158-0.047-0.348-0.25-0.378-0.414
		c-0.078-0.416,0.192-0.539,0.524-0.383C255.703,96.039,255.753,96.292,255.843,96.458z"/>
	<path fill="#FFFFFF" d="M465.42,30.638c-0.232,1.157-1.147,1.224-2.06,1.294C463.765,31.049,464.459,30.63,465.42,30.638z"/>
	<path fill="#FFFFFF" d="M587.031,96.054c-0.101,0.139-0.196,0.275-0.296,0.412c-0.107-0.154-0.279-0.295-0.313-0.465
		c-0.057-0.277-0.054-0.637,0.395-0.477C586.938,95.57,586.963,95.869,587.031,96.054z"/>
	<path fill="#FFFFFF" d="M709.029,32.056c0.059,0.184,0.195,0.385,0.146,0.515c-0.052,0.131-0.283,0.19-0.437,0.282
		c-0.062-0.166-0.205-0.365-0.159-0.492C708.629,32.225,708.865,32.158,709.029,32.056z"/>
	<path fill="#FFFFFF" d="M165.101,94.828c0.417,0.146,0.836,0.289,1.255,0.432c-0.221,0.484-0.448,1.107-1.096,0.871
		C164.567,95.88,164.784,95.312,165.101,94.828z"/>
	<path fill="#FFFFFF" d="M714.142,32.795c-0.425-0.099-0.846-0.198-1.27-0.296c-0.044-0.373-0.095-0.748-0.144-1.121
		c1.003-0.162,1.676,0.298,2.148,1.137C714.634,32.609,714.385,32.702,714.142,32.795z"/>
	<path fill="#FFFFFF" d="M432.41,33.354c-0.017-0.473-0.033-0.945-0.048-1.42c0.672,0.106,1.298,0.334,1.106,1.167
		C433.332,33.695,432.789,33.359,432.41,33.354z"/>
	<path fill="#FFFFFF" d="M429.043,94.238c0.924-0.264,1.488-0.035,1.431,1.043C429.321,95.859,429.277,94.919,429.043,94.238z"/>
	<path fill="#FFFFFF" d="M336.457,94.791c0.434-0.195,0.867-0.389,1.301-0.584c-0.088,0.521-0.021,1.363-0.297,1.496
		C336.773,96.035,336.744,95.181,336.457,94.791z"/>
	<path fill="#FFFFFF" d="M317.255,94.781c0.701-0.17,1.401-0.34,2.104-0.512C318.798,95.017,318.485,96.794,317.255,94.781z"/>
	<path fill="#FFFFFF" d="M490.609,32.672c0.012,0.532,0.084,1.148-0.664,1.207c-0.799,0.062-0.701-0.609-0.765-1.113
		C489.635,32.402,490.119,32.476,490.609,32.672z"/>
	<path fill="#FFFFFF" d="M178.954,94.195c-0.027,0.703,0.122,1.447-0.429,2.043c-0.317-0.328-0.634-0.656-0.953-0.982
		C177.879,94.705,178.248,94.228,178.954,94.195z"/>
	<path fill="#FFFFFF" d="M401.13,94.554c0.926-1.377,0.96,0.242,1.421,0.422C401.778,95.837,401.381,95.445,401.13,94.554z"/>
	<path fill="#FFFFFF" d="M529.966,33.933c0.132,0.129,0.256,0.251,0.383,0.375c-0.171,0.126-0.327,0.31-0.518,0.352
		c-0.092,0.021-0.243-0.225-0.368-0.35C529.635,34.181,529.805,34.052,529.966,33.933z"/>
	<path fill="#FFFFFF" d="M421.097,93.505c1.065-0.961,1.508-0.039,2.02,0.67C421.942,95.46,421.718,93.884,421.097,93.505z"/>
	<path fill="#FFFFFF" d="M680.426,93.539c-0.012-0.857-0.012-1.707,1.265-1.43C681.54,92.828,681.566,93.697,680.426,93.539z"/>
	<path fill="#FFFFFF" d="M243.746,92.81c0.104,0.182,0.148,0.377,0.13,0.588c-0.464,0.346-1.021,0.578-1.083-0.244
		C242.75,92.599,243.349,92.738,243.746,92.81z"/>
	<path fill="#FFFFFF" d="M128.728,30.004c1.624-0.429,2.52,0.332,2.829,1.843c0.201,0.979,0.507,1.883,1.123,2.671
		c-0.848,0.509-1.321,1.656-2.555,1.503c-0.675,0.14-0.94-0.109-0.755-0.792C128.22,33.602,128.312,31.822,128.728,30.004z"/>
	<path fill="#FFFFFF" d="M186.248,88.81c-0.429,0.486-0.858,0.971-1.287,1.457c-1.056-0.646-2.12-0.736-3.197-0.049
		c-0.268-1.1,0.504-1.234,1.274-1.365C184.117,89.572,185.142,86.226,186.248,88.81z"/>
	<path fill="#FFFFFF" d="M132.053,21.399c-0.3,1.729-1.886,0.834-2.777,1.358c-0.663-0.281-0.565-0.821-0.454-1.362
		c0.42-0.241,0.841-0.483,1.261-0.724C130.954,20.332,131.432,21.061,132.053,21.399z"/>
	<path fill="#FFFFFF" d="M173.769,47.096c0.996,0.739,3.539,1.118,0.639,2.759C173.647,49.061,173.814,48.056,173.769,47.096z"/>
	<path fill="#FFFFFF" d="M182.352,80.208c0.482,0.076,1.11-0.887,1.317-0.154c0.197,0.707-0.629,1.246-1.33,1.576
		C182.344,81.154,182.349,80.681,182.352,80.208z"/>
	<path fill="#FFFFFF" d="M129.37,35.23c0.249,0.264,0.502,0.526,0.755,0.792c-0.509,0.495-1.077,1.44-1.751,0.493
		C127.9,35.845,128.846,35.535,129.37,35.23z"/>
	<path fill="#FFFFFF" d="M533.187,89.376c-0.774-3.164-0.506-6.516-0.163-9.787c0.254-2.461-0.212-4.928-1.778-6.658
		c-1.312-1.453-3.58-1.523-5.812-0.828c0-1.496,0-2.594,0-3.688c0.302-0.807,1.337-1.156,1.338-2.148
		c-2.55-2.074-1.609-5.111-1.774-7.65c-0.38-5.895,0.318-11.815,0.103-17.748c-0.104-2.889-1.116-5.934,0.437-8.776
		c-0.335-0.683-0.052-1.481-0.412-2.159c-1.207-5.43,0.183-10.871,0.204-16.302c0.007-1.564-1.744-2.785-0.546-4.32
		c1.199-1.536,0.146-2.053-1.086-2.794c-3.872-2.321-7.923-1.378-11.968-0.911c-0.305,0.089-0.531,0.271-0.685,0.547
		c-3.409,0.385-6.502-1.957-9.957-1.151c-0.862-1.364-2.215-0.384-3.3-0.694c-2.982,1.869-6.125,2.211-9.438,1.005
		c-0.644-0.232-5.078,2.49-4.827,2.979c1.652,3.209-1.021,6.526,0.327,9.711c-0.359,0.282-0.356,0.559,0.012,0.829
		c-0.833,2.003,2.107,4.337-0.561,6.228c-0.334,0.236,0.396,0.666,0.505,0.985c0.767,2.266,2.855,2.21,4.229,1.674
		c2.345-0.916,2.396,0.106,2.814,1.878c0.278,1.176,0.232,2.074-0.236,3.071c-0.453,0.411-0.938,0.275-1.43,0.097
		c-4.167-1.208-8.386-2.181-12.752-2.046c-2.764,0.087-5.653-1.604-8.292,0.511c-0.632-0.519-1.284-1.001-2.135-1.086
		c-0.193,0.163-0.388,0.328-0.581,0.491c-0.535,0.675-1.364,0.876-2.062,1.294c-0.394-0.028-0.786-0.051-1.179-0.077
		c-0.494-0.229-0.975-0.295-1.414,0.116c-1.249,1.338-2.616,2.364-4.607,1.774c-0.48-0.246-0.924-0.197-1.325,0.17
		c-0.658,0.403-0.495,1.794-1.762,1.465c-0.756,0.391-1.796,0.329-2.143,1.36c-0.916,0.746-0.989,2.412-2.607,2.39
		c-1.12-0.124-1.584,0.403-1.493,1.492c-1.088,1.942-4.177,3.014-2.654,6.092c-2.419,1.292-2.508,3.823-3.095,6.028
		c-0.461,1.737-0.968,3.322-2.699,4.187c0.504,0.683,0.753,1.462,0.86,2.293c0.114,0.734,0.311,1.467,0.326,2.205
		c0.082,3.482-0.826,7.041,0.867,10.396c0.489,0.969,1.646,1.824,0.614,3.1c-0.021,0.582-0.295,1.094-0.448,1.637
		c-0.078,0.805,0.271,1.369,0.986,1.729c1.672,1.574,3.882,2.883,4.852,4.812c0.807,1.607,3.129,1.703,3.073,3.76
		c1.276,1.494,2.91,2.477,4.684,3.258c2.303,0.203,3.606,2.186,5.435,3.072c3.404,1.65,7.217,1.68,10.973,1.035
		c3.177-0.186,6.355-0.373,9.532,0.012c2.269,0.75,4.242-0.732,6.395-0.848c0.636-1.484,2.084-1.531,3.353-1.902
		c0.512-0.373,1.109-0.945,1.672-0.383c0.777,0.773-0.523,1.518-0.249,2.354c3.093,0.529,6.176,1.566,9.328,0.445
		c0.733-0.262,1.233-0.088,1.781,0.291c1.202,1.203,2.622,0.953,4.058,0.605c1.822-0.295,3.838-2.277,5.291,0.611
		c0.214,0.326,0.408,0.299,0.582-0.035c1.577-1.527,3.577-0.018,5.268-0.727c0.552,0.154,1.029,0.051,1.401-0.414
		c0.673-0.596,1.375-0.436,2.084-0.082c2.783,1.391,5.794,0.658,8.489,0.184C531.445,94.009,534.022,92.796,533.187,89.376z
		 M491.175,63.132c0.021,2.309-0.105,4.588-1.234,6.682c-0.031,1.092-0.467,1.945-1.461,2.463c-2.12,0.686-4.197,1.668-6.372,1.984
		c-2.568,0.371-4.762-0.621-6.007-3.18c-2.596-5.326-3.135-10.719-0.694-16.249c1.088-2.466,6.296-4.092,9.193-3.517
		c4.174,0.824,5.444,3.821,6.728,7.2c0.461,1.217-1.854,2.232,0.04,3.232l0,0l0,0C491.983,62.304,491.369,62.689,491.175,63.132z"/>
	<path fill="#FFFFFF" d="M675.698,56.497c-0.704-0.146-1.328-0.533-1.031-1.282c0.493-1.25,1.197,0.013,1.812-0.015
		C676.218,55.634,675.957,56.063,675.698,56.497z"/>
	<path fill="#FFFFFF" d="M625.705,79.001c-0.322-0.896,0.15-1.934-0.494-2.773c-0.301-0.062-0.868-0.146-0.865-0.186
		c0.299-3.521-2.018-4.223-4.733-4.242c-1.846-0.014-2.367-0.975-2.109-2.477c0.652-3.832-0.809-7.672,0.107-11.491
		c0.416-0.695,0.533-1.387-0.042-2.062c-0.602-4.246,0.646-8.929-2.917-12.486c-0.148-0.148-0.365-0.404-0.324-0.544
		c1.031-3.54-2.414-3.851-3.962-5.523c-0.716-0.612-0.794-1.546-1.177-2.33c-0.412-0.629-0.984-1.065-1.667-1.362
		c-3.163-0.805-6.723-0.119-9.553-1.971c-2.873-1.88-5.816-0.89-8.752-0.953c-0.532-0.36-1.08-0.324-1.634-0.055
		c-2.015-0.023-3.976-2.127-6.055-0.158c-0.109,0.103-0.484,0.089-0.622-0.019c-1.527-1.172-2.96-0.778-4.819-0.566
		c-4.384,0.5-8.934-0.835-13.227,1.313c-0.917,0.459-1.414-0.816-2.187-1.143c-2.22-1.312-3.738,0.103-5.3,1.362
		c-0.884,0.971-1.503,2.605-3.297,1.333c-0.521,0.096-1.016,0.285-1.518,0.45c-0.583,0.423-1.26,0.347-1.921,0.35
		c-0.528,0.168-0.892,0.604-1.369,0.857c-0.517,0.422-1.374,0.307-1.675,1.067c-0.137,1.24-0.619,2.093-2.076,1.852
		c-2.264-0.031-2.439,2.03-3.355,3.349c-0.82,1.635-1.766,3.221-2.415,4.915c-0.514,1.332,0.452,3.275,1.272,3.147
		c3.903-0.611,7.5,0.749,11.141,1.422c3.769,0.696,7.649-0.707,11.312,0.96c0.888,0.406,1.409-0.575,2.104-1.075
		c2.295-1.652,4.586-3.173,7.483-4.03c4.348-1.282,7.162,0.083,10.563,2.678c2.527,1.925,0.878,4.69,2.731,6.456
		c0.405,0.387-0.558,1.515-1.952,1.128c-3.796-1.056-7.966-0.764-11.135-3.439c-1.008,0.971,1.247,1.675-0.164,2.267
		c-0.724,0.301-1.813,0.402-1.959-0.975c-0.049-0.49-0.312-0.821-0.873-0.52c-3.403,1.825-7.129,0.391-10.646,1.059
		c-1.157,0.438-2.355-1.238-3.498,0.07c0.07,0.57,0.026,1.343-0.508,1.423c-3.406,0.51-6.094,2.42-8.807,4.304
		c-0.796,0.086-0.867,0.957-1.415,1.309c-1.197,2.596-3.432,4.133-5.731,5.602c-0.733,0.098-0.473,0.812-0.743,1.199
		c0.27,0.705,1.282,0.932,0.727,2.188c-1.973,4.475,0.075,9.131,1.433,12.918c1.091,3.035,4.549,6.422,8.54,7.793
		c0.349,0.916,1.285,0.332,1.841,0.719c1.126,0.672,2.614,2.176,3.321,1.869c3.467-1.49,6.791,2.977,10.112,0.039
		c2.468,3.129,5.083-0.166,7.571,0.193c3.595,0.516,6.793-0.416,10.032-1.795c1.291-0.551,2.753-1.834,4.345-0.449
		c0.002,0.752-0.271,1.674,1.023,1.594c2.728,0.342,5.281,1.629,8.189,1.094c3.883-0.715,7.822-0.664,11.729,0.035
		c0.693,0.525,0.865-0.26,1.255-0.496c1.2,0.904,3.304-1.264,4.044,1.193c0.127,0.125,0.256,0.248,0.383,0.373
		c0.015-0.178,0.03-0.354,0.042-0.533c2.227-2.379,5.083-1.277,7.388-0.729c2.459,0.582,3.694-0.959,5.391-1.688
		c1.343-0.574,0.546-1.939,0.751-2.893c0.667-3.082-1.134-6.15,0.26-9.113C625.702,80.261,625.786,79.65,625.705,79.001z
		 M583.761,76.337c-0.975,1.26-2.111,2.191-3.851,1.916c-1.045-0.309-1.935,0.051-2.768,0.646c-5.937-1.068-6.952-2.285-7.46-5.699
		c-0.481-3.229,2.78-8.234,5.573-7.76c2.308,0.391,4.912,0.459,6.952,1.439c3.402,1.635,1.545,4.738,1.082,7.336
		C583.896,74.826,583.48,75.658,583.761,76.337z"/>
	<path fill="#FFFFFF" d="M577.143,78.9c0.484-2.086,1.608-1.439,2.768-0.646C579.053,78.746,578.121,78.925,577.143,78.9z"/>
	<path fill="#FFFFFF" d="M548.629,34.003c0.432-0.97,1.291-0.653,2.039-0.673C550.485,35.058,549.728,35.044,548.629,34.003z"/>
	<path fill="#FFFFFF" d="M583.761,76.337c-0.724-0.58-0.663-1.336-0.469-2.121C585.239,74.525,584.109,75.519,583.761,76.337z"/>
	<path fill="#FFFFFF" d="M183.05,32.173c-0.263-1.656,1.463-2.229,1.908-3.501c2.2-0.398,1.92,0.73,1.279,2.076
		C184.951,30.729,184.057,31.578,183.05,32.173z"/>
	<path fill="#FFFFFF" d="M189.638,25.258c-0.31,0.438-0.566,1.043-1.243,0.75c-0.208-0.091-0.375-0.544-0.363-0.824
		c0.046-1.091,0.863-1.087,1.66-1.071C189.674,24.495,189.657,24.877,189.638,25.258z"/>
	<path fill="#FFFFFF" d="M205.515,94.734c-0.682,0.279-1.312,1.023-2.109,0.492c-0.794-0.527-0.1-1.158,0.059-1.74
		C204.146,93.902,204.83,94.318,205.515,94.734z"/>
	<path fill="#FFFFFF" d="M198.151,90.4c-0.295,0.375-0.441,1.115-1.014,0.941c-0.651-0.199-0.417-0.781-0.119-1.234
		C197.396,90.203,197.773,90.3,198.151,90.4z"/>
	<path fill="#FFFFFF" d="M728.1,38.589c-0.688-0.251-1.377-0.505-2.064-0.756c0-0.384,0.003-0.767,0.007-1.149
		C727.39,36.599,728.189,37.112,728.1,38.589z"/>
	<path fill="#FFFFFF" d="M186.837,80.05c-1.262-1.076-1.311-1.898-0.608-3.057C187.159,77.833,187.078,78.726,186.837,80.05z"/>
	<path fill="#FFFFFF" d="M182.453,52.891c-1.273,2.463-1.77,0.305-2.524-0.319c0.941-0.502,1.576,0.775,2.513,0.334
		C182.439,52.903,182.453,52.891,182.453,52.891z"/>
	<path fill="#FFFFFF" d="M180.268,33.263c2.015,0.326,1.445,1.584,1.887,3.041C180.648,35.354,180.908,34.084,180.268,33.263z"/>
	<path fill="#FFFFFF" d="M194.218,92.835c-0.221-0.883-0.44-1.766-0.66-2.645C195.451,90.312,195.503,90.523,194.218,92.835z"/>
	<path fill="#FFFFFF" d="M184.337,28.785c-0.492-0.067-0.814-0.346-0.673-0.831c0.059-0.207,0.451-0.443,0.699-0.448
		c0.513-0.012,0.683,0.359,0.659,0.856C185,28.876,184.596,28.695,184.337,28.785z"/>
	<path fill="#FFFFFF" d="M178.343,32.641c1.318-1.749,1.447,0.071,1.985,0.661C179.666,33.082,179.005,32.862,178.343,32.641z"/>
	<path fill="#FFFFFF" d="M181.013,45.96c-0.429,0.192-0.672,0.396-0.91,0.386c-0.34-0.013-0.512-0.295-0.325-0.624
		c0.084-0.151,0.342-0.347,0.459-0.312C180.468,45.476,180.652,45.69,181.013,45.96z"/>
	<path fill="#FFFFFF" d="M132.698,23.388c0.001,1.319,0.001,2.642,0.003,3.961C131.075,26.03,131.063,24.709,132.698,23.388z"/>
	<path fill="#FFFFFF" d="M153.248,26.87c-0.933-2.122-0.895-1.829,0.609-2.027c3.597-0.475,3.021,1.682,2.676,3.812l-0.034,0.034
		c-0.938-0.021-1.862-0.08-2.639-0.704C153.48,27.709,153.368,27.287,153.248,26.87z"/>
	<path fill="#FFFFFF" d="M139.312,23.388c0.002,1.319,0.002,2.642,0.003,3.961C137.689,26.03,137.678,24.709,139.312,23.388z"/>
	<path fill="#FFFFFF" d="M131.112,10.95c0.461,0.02,0.823,0.113,0.651,0.532c-0.101,0.25-0.42,0.506-0.69,0.579
		c-0.354,0.094-0.648-0.188-0.525-0.55C130.632,11.265,130.954,11.097,131.112,10.95z"/>
	<path fill="#FFFFFF" d="M132.053,21.399c-0.657-0.241-1.313-0.486-1.971-0.728C130.98,19.479,130.98,19.479,132.053,21.399z"/>
	<path fill="#FFFFFF" d="M124.763,0.898c0.447,0.241,0.894,0.483,1.34,0.727c0.114,0.395,0.323,1.08-0.091,1.094
		C124.85,2.749,125.05,1.608,124.763,0.898z"/>
</g>
</svg>
