<?xml version="1.0" encoding="utf-8"?>
<!-- Generator: Adobe Illustrator 16.2.1, SVG Export Plug-In . SVG Version: 6.00 Build 0)  -->
<!DOCTYPE svg PUBLIC "-//W3C//DTD SVG 1.1//EN" "http://www.w3.org/Graphics/SVG/1.1/DTD/svg11.dtd">
<svg version="1.1" id="レイヤー_1" xmlns="http://www.w3.org/2000/svg" xmlns:xlink="http://www.w3.org/1999/xlink" x="0px"
	 y="0px" width="390.919px" height="37.935px" viewBox="0 0 390.919 37.935" enable-background="new 0 0 390.919 37.935"
	 xml:space="preserve">
<g>
	<path fill="#FFFFFF" d="M18.545,12.656c0.32,0.802,0.641,1.643,0.962,2.444c0.88,2.242,2.883,4.765,2.883,7.169
		c0,1.162-0.48,3.567-1.962,3.567c-0.682,0-1.201-0.481-1.643-0.962c-1.562-1.765-3.443-3.165-5.207-4.688
		c-0.2-0.198-0.8-0.641-0.721-0.8c0.041-0.039,0.08-0.039,0.16-0.039c0.161,0,0.441,0.039,0.761,0.161
		c1.082,0.36,2.483,0.96,3.045,0.96c0.28,0,0.359-0.16,0.359-0.399c0-0.48-2.003-5.407-2.362-6.408
		c-2.122,0.479-4.246,0.881-6.408,0.881c-2.363,0-6.688-0.843-8.091-2.885C0.12,11.377,0,11.256,0,11.097
		c0-0.041,0-0.082,0.081-0.163c0.039-0.038,0.119-0.08,0.199-0.08c0.241,0,0.681,0.161,0.882,0.2
		c0.881,0.162,1.762,0.162,2.604,0.162c3.284,0,6.688-0.723,9.811-1.563c-0.6-2.203-1.16-5.607-2.362-7.489
		c-0.08-0.16-0.24-0.36-0.24-0.562c0-0.28,0.321-0.32,0.521-0.32c0.241,0,0.48,0.04,0.761,0.12c1.282,0.28,3.324,1.283,4.006,2.443
		c0.641,1.082,0.72,3.324,1.082,4.646c1.721-0.598,3.204-1.641,4.886-2.362c0.239-0.08,1.08-0.08,1.321-0.08
		c1.081,0,3.284,0.521,3.284,1.923C26.835,10.093,20.307,12.096,18.545,12.656z M13.018,37.21c-0.119,0.399-0.28,0.761-0.48,0.722
		c-0.28,0-0.319-0.441-0.399-0.722c-0.36-1.16-1.121-2.281-1.962-3.323c-2.124-2.645-7.65-6.49-7.65-10.096
		c0-2.082,1.922-3.926,4.005-3.926c0.04,0,0.12,0,0.2,0c0.2,0,0.36,0,0.4,0.119c0.039,0.2-0.241,0.401-0.439,0.602
		c-0.2,0.241-0.48,0.6-0.48,1.08c0,2.002,4.525,6.167,5.728,8.17c1.081,1.884,1.322,3.567,1.322,5.607c0,0.161,0,0.36,0,0.561
		S13.177,36.769,13.018,37.21z"/>
	<path fill="#FFFFFF" d="M78.709,32.766c-1.762,1.402-6.128,3.964-8.65,4.444c-0.12,0-0.441,0.119-0.681,0.119
		c-0.08,0-0.121-0.037-0.16-0.08c0,0,0-0.039,0-0.08c0-0.2,0.44-0.48,0.6-0.601c4.646-3.163,9.214-7.89,9.214-13.938
		c0-3.444-1.121-6.41-4.969-6.61c-0.28,4.006-2.844,7.69-5.727,10.295c0.36,0.441,0.682,0.722,1.162,0.759
		c0.44,0,0.921-0.317,1.283-0.52c0.2-0.08,0.359-0.28,0.521-0.28c0.039,0,0.039,0,0.079,0.037c0.039,0.041,0.039,0.041,0.039,0.083
		c0,0.08-0.079,0.201-0.118,0.44c-0.442,1.401-2.606,3.165-4.368,3.284c-0.041,0-0.08,0-0.08,0c-0.881,0-1.562-0.521-2.043-1.242
		c-2.202,1.242-4.727,2.203-7.249,2.203c-1.281,0-2.242-0.561-2.242-1.921c0-3.804,4.728-8.572,7.771-10.614
		c0.08-1.882,0.24-3.765,0.479-5.646c-0.641,0.119-1.281,0.198-1.922,0.198c-1.962,0-4.365-0.722-5.968-1.921
		c-0.159-0.161-0.601-0.48-0.881-0.802c-0.119-0.117-0.36-0.44-0.32-0.521c0.04-0.079,0.119-0.12,0.28-0.12
		c0.119,0,0.24,0,0.399,0.041c0.962,0.159,1.964,0.239,2.965,0.239c2.123,0,4.165-0.401,6.168-0.962
		c0.6-2.762,1.603-5.566,1.603-8.371c0-0.08,0-0.16,0-0.199c0-0.2,0-0.4,0.159-0.441c0.041,0,0.08-0.039,0.121-0.039
		c0.2,0,0.48,0.16,0.761,0.36c1.282,0.841,2.522,3.726,2.522,4.927c0,0.64-0.12,1.241-0.239,1.843
		c1.481-0.761,3.804-2.246,5.488-2.246c1.16,0,3.484,0.521,3.484,2.046c0,2.322-8.49,4.525-10.534,5.044
		c-0.4,1.484-0.641,3.086-0.841,4.565c1.882-0.8,3.845-1.36,5.848-1.602c0.079-0.2,0.28-0.761,0.359-1.201
		c0.121-0.602,0.162-1.004,0.321-1.004c0.2,0,0.401,0.602,0.48,0.882c0.121,0.441,0.201,1.002,0.201,1.203c0.119,0,0.28,0,0.4,0
		c4.806,0,10.052,2.162,10.052,7.85C84.477,26.915,81.874,30.201,78.709,32.766z M63.089,20.708
		c-1.361,1.322-3.484,3.885-3.484,5.848c0,0.2,0.041,0.32,0.241,0.32c1.001,0,2.883-0.961,3.724-1.484
		C63.248,23.871,63.089,22.27,63.089,20.708z M66.693,17.985c-0.039,0.398-0.039,0.8-0.039,1.16c0,1.241,0.16,2.483,0.36,3.726
		c2.083-1.844,4.125-4.247,5.246-6.77C70.339,16.383,68.414,17.062,66.693,17.985z"/>
	<path fill="#FFFFFF" d="M120.12,36.649c-0.882,0-1.763-0.48-2.244-1.602c-0.88-1.884-2.883-4.929-5.686-6.77
		c-0.241-0.163-0.401-0.36-0.401-0.481c0-0.12,0.121-0.2,0.401-0.2c0.08,0,0.159,0,0.28,0c4.564,0.561,8.45,2.965,9.65,5.047
		c0.362,0.599,0.481,1.121,0.481,1.642C122.603,35.689,121.362,36.649,120.12,36.649z"/>
	<path fill="#FFFFFF" d="M175.711,33.326c-2.522,0-5.166-2.806-5.166-5.009c0-0.08,0-0.16,0-0.24c0-0.12,0-0.242,0.08-0.28h0.041
		c0.119,0,0.198,0.28,0.319,0.401c0.602,0.641,1.002,1.201,2.563,1.201c2.563,0,4.886-3.245,4.886-5.567
		c0-2.164-0.68-3.567-3.004-3.567c-2.844,0-6.207,1.723-8.529,3.287c0.119,2.12,0.399,4.283,0.399,6.408
		c0,1.481-0.641,4.525-2.603,4.525c-2.283,0-1.483-3.523-4.847-5.287c-0.602,0.481-1.281,0.962-2.122,0.962
		c-1.483,0-3.005-1.643-3.005-3.124c0-0.2,0.041-0.321,0.28-0.321c0.321,0,0.642,0.121,0.961,0.121c0.882,0,6.089-3.165,7.252-3.765
		c0-1.162-0.04-2.325-0.04-3.486c0-1.16,0.04-2.323,0.04-3.443c-0.842,0.16-1.683,0.28-2.523,0.28c-2.202,0-4.285-0.681-5.689-2.444
		c-0.08-0.119-0.239-0.28-0.239-0.48c0-0.199,0.239-0.239,0.4-0.239c0.68,0,1.361,0.319,2.122,0.319
		c2.083,0,4.126-0.962,6.088-1.563c0.119-2.082,0.24-4.208,0.24-6.29c0-1.001-0.36-1.883-0.6-2.522c0-0.041,0-0.08,0-0.08
		c0-0.2,0.198-0.28,0.359-0.28c0.36,0,0.921,0.317,1.242,0.48c1.562,0.921,3.163,2.681,3.163,4.605c0,0.841-0.16,1.723-0.239,2.524
		c0.72-0.282,2.604-1.323,3.283-1.323c1.162,0,3.404,0.562,3.404,2.045c0,1.842-5.767,3.484-7.248,3.965
		c-0.121,1.44-0.201,2.885-0.201,4.327c0,0.6,0,1.241,0.039,1.882c2.484-1.082,5.608-2.162,8.331-2.162
		c4.045,0,7.169,2.363,7.169,6.608C182.319,29.399,179.517,33.326,175.711,33.326z M163.295,26.315
		c-0.923,0.76-1.843,1.563-2.805,2.324c0.28,0.08,2.644,0.841,2.684,0.841c0.16-0.239,0.16-0.681,0.16-1.041c0-0.16,0-0.28,0-0.401
		C163.334,27.438,163.334,26.878,163.295,26.315z M181.157,19.346c-0.239,0.08-0.52,0.241-0.759,0.241
		c-0.082,0-0.162-0.039-0.162-0.119c0-0.12,2.924-4.687,2.924-7.69c0-1.24-0.439-1.604-1.121-2.121
		c-0.159-0.121-0.6-0.201-0.6-0.762s1.521-0.72,1.921-0.72c1.924,0,4.526,1.481,4.526,3.644
		C187.888,14.581,183.483,18.104,181.157,19.346z"/>
	<path fill="#FFFFFF" d="M224.451,27.797c-0.039,0-0.039,0-0.08,0c-0.08,0-0.161,0-0.243,0c-0.72,0-0.92,0.201-1.121,0.401
		c-2.883,2.842-6.008,4.926-10.612,6.367c-0.2,0.081-0.36,0.081-0.521,0.081c-0.28,0-0.439-0.12-0.439-0.28
		c0-0.163,0.12-0.363,0.36-0.562c3.444-2.645,5.968-5.728,7.489-9.01c0.119-0.321,0.2-0.481,0.401-0.481
		c0.119,0,0.241,0.038,0.441,0.118c1.521,0.562,2.883,1.161,4.564,1.923c0.441,0.2,0.68,0.521,0.68,0.802
		C225.372,27.517,225.053,27.797,224.451,27.797z M246.921,15.78c-1.721,0.922-2.363,1.604-2.724,4.365
		c-0.039,0.241-0.159,0.521-0.48,0.521c-0.08,0-0.2-0.039-0.319-0.08c-5.648-2.483-9.613-5.568-12.016-12.858
		c-0.841,0.28-1.041,0.481-1.522,1.402c-1.401,2.844-3.203,5.488-5.688,7.812c0.562,0.039,1.083,0.039,1.522,0.039h3.926
		c0.282,0,0.6-0.08,0.763-0.319c0.478-0.643,1.159-1.683,1.801-2.443c0.199-0.243,0.399-0.243,0.722,0
		c0.799,0.641,2.283,1.842,3.444,3.004c0.118,0.118,0.2,0.241,0.2,0.4c0,0.199-0.2,0.36-0.562,0.36h-10.293
		c-1.002,0-2.003,0.039-2.844,0.119c-2.764,2.244-6.129,3.766-10.775,5.088c-0.037,0-0.08,0.039-0.159,0.039
		c-0.241,0-0.36-0.201-0.36-0.44c0-0.12,0.037-0.28,0.2-0.361c7.488-4.206,11.776-9.133,13.858-15.541h-4.688
		c-0.36,0.521-0.68,1.042-1.041,1.564c1.643,0.44,3.087,0.96,3.324,2.523c0.041,0.12,0.041,0.28,0.041,0.4
		c0,1.16-0.962,1.842-1.884,1.842c-0.561,0-1.081-0.318-1.322-0.921c-0.359-0.921,0-1.882-0.761-3.083
		c-0.841,1.121-1.802,2.162-2.963,3.203c1.642,0.721,3.004,1.562,3.085,2.924c0,0.039,0,0.119,0,0.16
		c0,1.321-0.881,2.043-1.763,2.043c-0.643,0-1.283-0.398-1.603-1.201c-0.119-0.319-0.161-0.601-0.161-0.881
		c0-0.319,0.039-0.6,0.039-0.96c0-0.401-0.08-0.882-0.319-1.442c-1.08,0.882-2.283,1.723-3.685,2.483
		c-0.08,0.039-0.161,0.039-0.2,0.039c-0.16,0-0.241-0.12-0.241-0.241c0-0.122,0.039-0.2,0.119-0.321
		c3.646-5.286,5.449-9.49,5.969-13.016c0.08-0.48,0-0.643,0.199-0.643c0.081,0,0.161,0.04,0.28,0.04
		c1.562,0.28,3.565,0.8,5.526,1.161c0.4,0.08,0.642,0.36,0.642,0.6c0,0.241-0.198,0.442-0.561,0.521
		c-0.722,0.159-1.08,0.241-1.202,0.48c-0.28,0.561-0.601,1.079-0.881,1.642h3.486c0.239,0,0.48,0,0.678-0.241
		c0.401-0.44,1.043-1.122,1.605-1.683c0.117-0.12,0.28-0.2,0.439-0.2c0.16,0,0.321,0.08,0.521,0.2
		c0.882,0.601,1.643,1.161,2.483,1.803c-0.2-0.761-0.399-1.564-0.561-2.403c0-0.08-0.039-0.119-0.039-0.16
		c0-0.243,0.161-0.321,0.319-0.321c0.28,0,0.682,0.243,0.761,0.481c1.483,4.005,3.445,6.648,5.768,8.41
		c0.882-2.2,1.483-4.282,1.842-5.604h-1.32c-1.002,0-2.403,0.08-3.205,0.318c-0.319,0.079-0.601-0.038-0.762-0.36
		c-0.161-0.321-0.319-0.761-0.441-1.201c-0.037-0.121-0.037-0.2-0.037-0.28c0-0.083,0.037-0.121,0.159-0.121
		c0.08,0,0.16,0,0.319,0.04c1.203,0.361,3.124,0.52,3.967,0.52h0.52c0.24,0,0.561-0.041,0.76-0.241
		c0.52-0.521,1.162-1.321,1.764-2.001c0.12-0.121,0.241-0.201,0.359-0.201c0.162,0,0.362,0.119,0.481,0.201
		c1.202,0.841,2.325,1.762,3.485,2.723c0.521,0.401,0.76,0.841,0.76,1.201c0,0.561-0.561,0.962-1.762,0.962
		c-0.761,0-1.041,0.28-1.602,0.841c-0.962,0.922-2.324,2.203-4.407,3.846c2.363,1.522,5.768,2.203,9.091,2.604
		c0.242,0.039,0.363,0.161,0.363,0.319C247.359,15.413,247.201,15.622,246.921,15.78z M242.755,23.273h-10.532
		c0,3.441,0.041,5.526,0.08,8.65c0,0.04,0,0.083,0,0.12c0,2.764-1.321,3.965-5.287,4.607c-0.32,0.039-0.521,0.081-0.72,0.081
		c-0.401,0-0.443-0.2-0.521-0.724c-0.36-2.644-0.319-3.083-3.926-4.445c-0.2-0.08-0.319-0.28-0.319-0.48c0-0.16,0.119-0.32,0.4-0.32
		c1.159,0.082,3.084,0.241,4.283,0.241c0.802,0,0.844-0.28,0.882-1c0.04-1.923,0.079-3.287,0.079-4.89c0-0.561,0-1.16,0-1.841
		h-5.206c-1.562,0-3.204,0.08-4.005,0.317c-0.319,0.08-0.6-0.037-0.761-0.36c-0.159-0.319-0.319-0.761-0.439-1.2
		c-0.041-0.121-0.041-0.201-0.041-0.281c0-0.081,0.041-0.12,0.161-0.12c0.08,0,0.161,0,0.319,0.039
		c1.203,0.362,3.285,0.52,4.766,0.52h13.5c0.399,0,0.6-0.079,0.841-0.359c0.68-0.723,1.521-1.764,2.201-2.563
		c0.121-0.162,0.241-0.241,0.36-0.241c0.161,0,0.28,0.079,0.48,0.241c1.003,0.841,2.404,2.003,3.767,3.083
		c0.199,0.163,0.319,0.361,0.319,0.521C243.437,23.11,243.236,23.273,242.755,23.273z M242.154,33.925
		c-0.841,0-1.684-0.44-2.202-1.442c-1.162-2.2-2.683-4.484-5.769-6.128c-0.399-0.2-0.561-0.439-0.561-0.561
		c0-0.159,0.161-0.28,0.521-0.28c0.079,0,0.198,0,0.28,0c4.404,0.481,8.249,1.643,9.531,3.806c0.442,0.761,0.643,1.481,0.643,2.12
		C244.599,32.963,243.396,33.925,242.154,33.925z"/>
	<path fill="#FFFFFF" d="M279.74,37.01c-0.08,0-0.28,0.039-0.48,0.039c-0.239,0-0.479-0.039-0.479-0.16c0-0.2,0.6-0.441,0.76-0.521
		c1.965-0.922,3.487-1.884,4.728-3.686c1.843-2.683,1.922-6.128,1.922-9.252c0-0.401,0-0.761,0-1.121c0-0.082,0-0.121,0-0.243
		c0-2.082-0.04-11.533-1.842-11.533c-3.007,0-3.044,8.491-3.044,10.772c0,0.041,0,0.12,0,0.163c0,0.878-0.802,1.762-1.723,1.762
		c-2.404,0-2.685-5.087-2.685-6.77c0-3.847,0.962-7.49,1.765-11.217c0.119-0.479,0.641-2.804,1.122-4.125
		c0.239-0.561,0.4-0.962,0.561-0.962c0.239,0,0.48,0.36,0.681,0.882c0.521,1.321,0.841,3.806,0.841,4.485c0,0.04,0,0.083,0,0.12
		c-0.161,1.401-0.32,2.644-0.32,4.445c0,0.201,0,0.362,0,0.561c1.484-0.52,2.325-1.602,4.085-1.602c1.764,0,3.163,1.203,3.767,2.807
		c1.282,3.402,1.321,7.969,1.321,11.614C290.716,31.161,287.791,35.97,279.74,37.01z"/>
	<path fill="#FFFFFF" d="M331.927,12.698c-2.082,5.729-3.726,12.337-4.365,18.385c-0.08,0.841-0.16,3.646-1.361,3.646
		c-0.119,0-0.241-0.04-0.361-0.08c-2.002-0.761-2.883-2.445-2.883-4.528c0-2.883,3.521-13.417,4.605-16.94
		c-2.243,0-5.127-0.48-6.649-2.363c-0.08-0.12-0.36-0.48-0.36-0.681v-0.041c0.039-0.08,0.121-0.117,0.2-0.117
		c0.121,0,0.28,0.08,0.36,0.08c0.762,0,1.522,0.28,2.283,0.28c1.762,0,3.605-0.401,5.327-0.802c0.601-1.842,1.562-4.605,1.883-6.408
		c0.119-0.602,0.08-0.841,0.36-0.882h0.04c0.24,0,0.561,0.28,0.721,0.442c1.121,1.16,1.723,3.085,1.723,4.728
		c0,0.117,0,0.28,0,0.397c1.002-0.479,2.043-0.799,3.163-0.799c1.162,0,3.284,0.561,3.284,2.083
		C339.899,11.176,333.569,12.418,331.927,12.698z M351.434,29.119c-1.44,2.563-3.804,4.325-6.77,4.325
		c-2.844,0-5.045-0.762-6.97-2.883c-0.921-1.004-1.882-2.246-2.402-3.567c-0.119-0.318-0.2-0.599-0.2-0.762
		c0-0.159,0.039-0.239,0.119-0.28c0.041,0,0.041,0,0.081,0c0.241,0,0.641,0.362,0.801,0.481c1.08,0.723,2.323,1.204,3.604,1.564
		c1.684,0.439,3.485,0.64,5.247,0.64c2.204,0,4.646-0.4,6.408-1.882c0.163-0.16,0.562-0.761,0.843-0.761h0.039
		c0.12,0.039,0.161,0.239,0.161,0.439c0,0.321-0.081,0.643-0.121,0.762C352.113,27.877,351.674,28.638,351.434,29.119z
		 M348.349,17.985c0,0.961-0.601,1.36-1.602,1.36c-0.721,0-1.401-0.16-2.122-0.16c-1.202,0-2.201,0.16-3.365,0.481
		c-0.4,0.119-0.922,0.28-1.521,0.479c-0.119,0.039-0.241,0.082-0.319,0.082c-0.039,0-0.08,0-0.121-0.082
		c-0.039-0.118,0.2-0.28,0.401-0.441c0.761-0.68,2.401-1.882,2.362-2.201c-0.039-0.723-2.082-1.081-3.646-1.081
		c-0.08,0-0.161,0-0.241,0c-0.642,0-1.202,0.039-1.843,0.119c-0.28,0.039-0.52,0.082-0.68,0.082c-0.081,0-0.161,0-0.161-0.082
		c0-0.241,0.28-0.48,0.641-0.761c0.841-0.641,2.401-1.361,2.844-1.522c0.881-0.28,1.843-0.399,2.805-0.399
		c2.362,0,6.209,1.283,6.568,3.886C348.349,17.823,348.349,17.905,348.349,17.985z M347.829,10.536c-0.041,0-0.041,0-0.083,0
		c-0.598-0.082-0.921-0.602-1.359-1.205c-0.841-1.078-1.602-2.042-2.605-3.044c-0.36-0.397-0.721-0.641-1.121-0.958
		c-0.16-0.163-0.28-0.282-0.28-0.321c0-0.12,0.159-0.159,0.241-0.159c2.043,0,6.166,1.762,6.166,4.165
		C348.789,9.574,348.509,10.536,347.829,10.536z M351.994,8.37c-0.28,0-0.922-0.44-1.36-1.079c-0.921-1.284-2.203-2.684-2.644-3.124
		c-0.12-0.12-0.681-0.602-1.082-0.922c-0.2-0.199-0.317-0.319-0.317-0.36c0-0.082,0.159-0.161,0.239-0.161
		c2.083,0,6.211,1.763,6.211,4.285C353.036,7.649,352.715,8.37,351.994,8.37z"/>
	<path fill="#FFFFFF" d="M385.073,36.729c-3.204,0-5.847-2.604-5.847-5.768c0-3.243,2.682-5.849,5.888-5.849
		c3.241,0,5.805,2.605,5.805,5.849C390.921,34.125,388.318,36.729,385.073,36.729z M385.073,26.878
		c-2.203,0-4.085,1.842-4.085,4.084c0,2.202,1.882,4.004,4.085,4.004c2.242,0,4.086-1.802,4.086-4.004
		C389.159,28.718,387.315,26.878,385.073,26.878z"/>
</g>
</svg>
