<?xml version="1.0" encoding="utf-8"?>
<!-- Generator: Adobe Illustrator 18.1.1, SVG Export Plug-In . SVG Version: 6.00 Build 0)  -->
<!DOCTYPE svg PUBLIC "-//W3C//DTD SVG 1.1//EN" "http://www.w3.org/Graphics/SVG/1.1/DTD/svg11.dtd">
<svg version="1.1" id="レイヤー_1" xmlns="http://www.w3.org/2000/svg" xmlns:xlink="http://www.w3.org/1999/xlink" x="0px"
	 y="0px" width="37.5" height="55.2" viewBox="0 0 37.5 55.2" enable-background="new 0 0 37.5 55.2" xml:space="preserve">
<g>
	<g>
		<g>
			<path fill="#540023" d="M18.7,54.7c-0.8,0-1.5-0.3-2.1-0.8c-0.6-0.5-1.1-1.2-1.4-2L1.7,25.1c-0.8-1.7-1.2-3.8-1.2-6.4
				c0-5,1.8-9.3,5.3-12.9c3.5-3.5,7.9-5.3,12.9-5.3c5,0,9.3,1.8,12.9,5.3S37,13.7,37,18.7c0,2.6-0.4,4.7-1.2,6.4L22.3,51.9
				c-0.3,0.8-0.8,1.5-1.4,2C20.2,54.4,19.5,54.7,18.7,54.7z"/>
			<path fill="#FFFFFF" d="M18.7,1c4.9,0,9.1,1.7,12.5,5.2s5.2,7.6,5.2,12.5c0,2.5-0.4,4.6-1.1,6.2L21.8,51.7
				c-0.3,0.8-0.7,1.4-1.3,1.8s-1.2,0.7-1.8,0.7c-0.6,0-1.3-0.2-1.8-0.7s-1-1-1.3-1.8L2.1,24.9C1.4,23.3,1,21.2,1,18.7
				c0-4.9,1.7-9.1,5.2-12.5S13.8,1,18.7,1 M18.7,0C13.6,0,9.1,1.8,5.5,5.5C1.8,9.1,0,13.6,0,18.7c0,2.7,0.4,4.9,1.2,6.6l13.5,26.8
				c0.3,0.9,0.9,1.7,1.6,2.2c0.7,0.6,1.6,0.9,2.4,0.9c0.9,0,1.7-0.3,2.4-0.9c0.7-0.5,1.2-1.3,1.6-2.2l13.5-26.8
				c0.8-1.8,1.2-4,1.2-6.6c0-5.1-1.8-9.6-5.5-13.2C28.3,1.8,23.9,0,18.7,0L18.7,0z"/>
		</g>
	</g>
	<g>
		<path fill="#FFFFFF" d="M19,35.4c2.5-3.8,3.2-10.4,1.8-12.8c-0.4-0.8-1.1-1.2-1.9-1.2c-1.1,0-1.9,0.9-2.2,2.3
			c-0.4,1.9-0.4,6-0.2,8.8c-1.5-0.9-2.7-2.1-3.4-3.7c-1-2.2-1.1-5-0.4-8.3c0.7-3,0.8-9.2,0.2-11.8c2.2,0.7,3.5,1.8,4.3,3.4
			c0.9,1.9,0.9,4.6,0,8.3l0.3,0.1c0.6-1.7,2.1-2.3,3.2-2.3c0.1,0,0.3,0,0.4,0c2.4,0.3,4.6,2.2,5.1,4.4c0.5,2.2,0.1,4.9-1,7.2
			C24.4,31.5,22.6,34,19,35.4z"/>
	</g>
</g>
</svg>
